<svg xmlns="http://www.w3.org/2000/svg" width="40" height="40" viewBox="0 0 40 40">
  <path fill="#FFF" d="M19.5852302,26.5948567 C19.8539885,26.8019171 19.997743,27.0779976 19.997743,27.3678822 C19.997743,27.0779976 20.1414974,26.8019171 20.4102558,26.5948567 C21.9509285,25.4357786 25.2660313,26.3132546 25.9604278,26.4154044 C27.6854812,26.7006876 36.7920135,28.573894 34.6856982,36 C34.6856982,36 32.7043868,31.7299545 27.2854688,31.9186095 C27.2854688,31.9186095 22.8478313,32.0106364 20.8540195,31.1593881 C20.3227531,30.9339223 19.997743,30.5013962 19.997743,30.041262 C19.997743,30.5013962 19.6789831,30.9339223 19.1477166,31.1593881 C17.1476547,32.0106364 12.7100171,31.9186095 12.7100171,31.9186095 C7.29109919,31.7299545 5.31603798,36 5.31603798,36 C3.20347251,28.5734338 12.3100047,26.7006876 14.0350582,26.4154044 C14.6600776,26.3233775 18.0320571,25.426576 19.5852302,26.5948567 Z M31.2195524,5 C33.6695652,5 36.5526113,5.24944687 39.7884229,5.74175457 L39.7884229,5.74175457 L40,5.77344996 L39.6744019,7.51134551 C39.6748135,7.51587342 39.6138925,8.03370208 38.8013378,8.03370208 C38.7408284,8.03370208 38.6757911,8.03082068 38.6058143,8.02464626 C38.4691536,8.01312066 38.3703627,8.04481605 38.2921533,8.12796501 C38.1048624,8.32554669 38.0863391,8.75240545 38.0949833,8.90018009 L38.0949833,8.90018009 L37.9138667,10.8554155 L36.9971701,10.7722665 C37.0218678,11.6576794 36.9625933,14.7206072 35.0863905,16.5766401 C34.0807821,17.5719578 32.7154103,18.0766144 31.0269102,18.0766144 C30.7420633,18.0766144 30.4415745,18.0617957 30.1344996,18.0329817 C26.8003087,17.7139696 24.9319269,15.9904811 23.9518395,14.6012349 C22.8844868,13.0885001 22.6128119,11.6375096 22.6103422,11.6231026 C22.6074608,11.6078724 22.2452277,9.63205557 22.802161,8.06951376 C22.6757911,8.00900437 22.4835606,7.94108567 22.2551068,7.94108567 L22.2551068,7.94108567 L21.9916645,7.95178801 L21.9879599,7.78631335 C21.3519938,7.59284795 20.6822742,7.49446874 19.9960895,7.49446874 C19.0299974,7.49446874 18.2882429,7.6916388 18.0116285,7.77725753 L18.0116285,7.77725753 L18.0075122,7.95178801 L17.74407,7.94108567 C17.5152045,7.94108567 17.322974,8.00900437 17.1970157,8.06951376 C17.7399537,9.59747878 17.4036532,11.5391304 17.3884229,11.6239259 C17.3756625,11.6889632 17.085876,13.1292514 16.0473373,14.6012349 C15.0672498,15.9904811 13.1984564,17.7139696 9.8642655,18.0329817 C7.74643684,18.2326216 6.08798559,17.7407255 4.91237458,16.5770517 C3.04316954,14.7267816 2.97895549,11.6580911 3.00241832,10.7726782 L3.00241832,10.7726782 L2.08531001,10.8558271 L1.90501672,8.93228711 C1.91324929,8.75322871 1.89472601,8.32636995 1.70784667,8.12878827 C1.62922562,8.04605094 1.52878827,8.01353229 1.39418575,8.02546951 C0.376640082,8.11643941 0.325186519,7.51875482 0.322716748,7.49488037 L0.322716748,7.49488037 L0,5.77386159 L0.210342166,5.74175457 C3.44615385,5.24944687 6.32961153,5 8.77962439,5 C15.0524312,5 16.7936198,6.6230512 17.1542063,7.07049138 L17.1542063,7.07049138 L17.5938256,7.02974016 C17.6345768,7.01409828 18.6039619,6.64939542 19.9853872,6.64939542 C20.8020581,6.64939542 21.602264,6.77494211 22.3641883,7.02274247 L22.3641883,7.02274247 L22.4308721,7.04455879 L22.8445588,7.07049138 C23.2051454,6.62263957 24.9459223,5 31.2195524,5 Z M9.75147929,6.09575508 C9.10810394,6.09575508 8.39351685,6.12950862 7.56614356,6.19825058 C3.98767173,6.49622845 3.54238642,8.0780921 3.50468654,8.25035616 L3.50172369,8.26544893 L3.46179573,10.5466941 C3.4585027,10.5956779 3.20905583,14.207718 5.25443787,16.2316954 C6.32467198,17.2916388 7.86869051,17.7370208 9.81816311,17.5493182 C12.9687677,17.2480062 14.7288912,15.6278364 15.6505274,14.3213275 C16.6450219,12.9123231 16.9080525,11.5514793 16.9105223,11.5378955 C16.9249293,11.4563931 17.2595832,9.52832519 16.693594,8.11067661 C14.1410857,6.62469771 12.3109853,6.09575508 9.75147929,6.09575508 Z M30.2472858,6.09575508 C27.6877798,6.09575508 25.8576794,6.62510934 23.3047595,8.11108824 C22.7317726,9.54849498 23.0841266,11.5148444 23.0878312,11.5346025 C23.0907126,11.5518909 23.3504502,12.9094417 24.3498842,14.3242089 C25.2715205,15.6294829 27.0312323,17.2488294 30.180602,17.5493182 C32.1325444,17.735786 33.6749164,17.2912272 34.7451505,16.2316954 C36.7794186,14.2184204 36.540674,10.594443 36.5377926,10.5582197 L36.5377926,10.5582197 L36.4949833,8.24198611 C36.4933368,8.24198611 36.192848,6.51149987 32.4326216,6.19825058 C31.6052483,6.12950862 30.8902495,6.09575508 30.2472858,6.09575508 Z M2.67105737,6.78358631 L2.22444044,7.0519681 L2.67105737,7.31993826 L3.1176743,7.0519681 L2.67105737,6.78358631 Z M37.3157705,6.78399794 L36.8695652,7.0519681 L37.3157705,7.31993826 L37.7627991,7.0519681 L37.3157705,6.78399794 Z"/>
</svg>
