<svg xmlns="http://www.w3.org/2000/svg" width="24" height="21" viewBox="0 0 24 21">
  <path fill="#FFF" d="M11.148,3.374 C11.221,3.251 11.333,3.132 11.482,3.042 C11.718,2.899 11.988,2.864 12.238,2.926 C12.488,2.988 12.712,3.142 12.852,3.374 L21.318,17.507 C21.395,17.638 21.446,17.805 21.4480609,17.989 C21.451,18.265 21.343,18.515 21.163,18.699 C20.983,18.883 20.735,18.997 20.47,19 L3.533,19 C3.381,18.999 3.212,18.959 3.052,18.866 C2.813,18.728 2.653,18.507 2.586,18.259 C2.519,18.011 2.548,17.74 2.678,17.514 L11.148,3.374 Z M9.432,2.346 L0.962,16.486 C0.54,17.217 0.456,18.036 0.654,18.776 C0.852,19.516 1.334,20.184 2.052,20.598 C2.516,20.866 3.028,20.998 3.527,21 L20.47,21 C21.309,20.991 22.057,20.646 22.593,20.098 C23.129,19.55 23.457,18.795 23.4481806,17.967 C23.442,17.431 23.295,16.923 23.042,16.493 L14.568,2.346 C14.136,1.633 13.458,1.165 12.714,0.983 C11.97,0.801 11.153,0.902 10.445,1.332 C10.016,1.592 9.67,1.947 9.433,2.346 L9.432,2.346 Z M11,8 L11,12 C11,12.552 11.448,13 12,13 C12.552,13 13,12.552 13,12 L13,8 C13,7.448 12.552,7 12,7 C11.448,7 11,7.448 11,8 Z M13,16 C13,15.448 12.552,15 12,15 C11.448,15 11,15.448 11,16 C11,16.552 11.448,17 12,17 C12.552,17 13,16.552 13,16 Z"/>
</svg>
