<svg xmlns="http://www.w3.org/2000/svg" width="10" height="24" viewBox="0 0 10 24">
  <path fill="#FFF" d="M5.00008868,0 C5.27623105,0 5.50008868,0.210689529 5.50008868,0.470588235 L5.50008868,0.470588235 L5.50008868,21.7317647 L9.06430091,15.7692888 C9.18464038,15.5679365 9.43888653,15.4820864 9.66293651,15.5549843 L9.7452193,15.5898468 C9.98589823,15.7172651 10.0712583,16.0041898 9.93587644,16.2307112 L9.93587644,16.2307112 L5.43587644,23.7601229 C5.24472441,24.079959 4.75545294,24.079959 4.56430091,23.7601229 L4.56430091,23.7601229 L0.0643009078,16.2307112 C-0.0710809952,16.0041898 0.0142791178,15.7172651 0.254958057,15.5898468 C0.495636995,15.4624285 0.800494542,15.5427675 0.935876445,15.7692888 L0.935876445,15.7692888 L4.50008868,21.7317647 L4.50008868,0.470588235 C4.50008868,0.239567163 4.67696384,0.0474274161 4.91021304,0.00758180651 L5.00008868,0 Z"/>
</svg>
