<svg xmlns="http://www.w3.org/2000/svg" width="24" height="10" viewBox="0 0 24 10">
  <path fill="#FFF" d="M12.0000887,-7 C12.2762311,-7 12.5000887,-6.78931047 12.5000887,-6.52941176 L12.5000887,-6.52941176 L12.5000887,14.7317647 L16.0643009,8.76928883 C16.1846404,8.56793651 16.4388865,8.48208636 16.6629365,8.5549843 L16.7452193,8.58984681 C16.9858982,8.71726507 17.0712583,9.00418982 16.9358764,9.23071117 L16.9358764,9.23071117 L12.4358764,16.7601229 C12.2447244,17.079959 11.7554529,17.079959 11.5643009,16.7601229 L11.5643009,16.7601229 L7.06430091,9.23071117 C6.928919,9.00418982 7.01427912,8.71726507 7.25495806,8.58984681 C7.495637,8.46242854 7.80049454,8.54276747 7.93587644,8.76928883 L7.93587644,8.76928883 L11.5000887,14.7317647 L11.5000887,-6.52941176 C11.5000887,-6.76043284 11.6769638,-6.95257258 11.910213,-6.99241819 L12.0000887,-7 Z" transform="matrix(0 -1 -1 0 17 17)"/>
</svg>
