<svg xmlns="http://www.w3.org/2000/svg" width="25" height="11" viewBox="0 0 25 11">
  <path fill="#FFF" d="M12.4112215,-6.33984375 C12.6873639,-6.33984375 12.9112215,-6.12915422 12.9112215,-5.86925551 L12.9112215,-5.86925551 L12.9112215,15.391921 L16.4754337,9.42944508 C16.5957732,9.22809276 16.8500193,9.14224261 17.0740693,9.21514055 L17.1563521,9.25000306 C17.397031,9.37742132 17.4823912,9.66434607 17.3470093,9.89086742 L17.3470093,9.89086742 L12.8470093,17.4202792 C12.6558572,17.7401153 12.1665858,17.7401153 11.9754337,17.4202792 L11.9754337,17.4202792 L7.47543372,9.89086742 C7.34005182,9.66434607 7.42541193,9.37742132 7.66609087,9.25000306 C7.90676981,9.12258479 8.21162735,9.20292372 8.34700926,9.42944508 L8.34700926,9.42944508 L11.9112215,15.391921 L11.9112215,-5.86925551 C11.9112215,-6.10027659 12.0880966,-6.29241633 12.3213459,-6.33226194 L12.4112215,-6.33984375 Z" transform="matrix(0 1 1 0 6.751 -6.751)"/>
</svg>
