<svg xmlns="http://www.w3.org/2000/svg" width="22" height="22" viewBox="0 0 22 22">
  <path fill="#FFF" d="M22,11 C22,7.963 20.768,5.211 18.778,3.222 C16.788,1.233 14.037,0 11,0 C7.963,0 5.211,1.232 3.222,3.222 C1.233,5.212 0,7.963 0,11 C0,14.037 1.232,16.789 3.222,18.778 C5.212,20.767 7.963,22 11,22 C14.037,22 16.789,20.768 18.778,18.778 C20.767,16.788 22,14.037 22,11 Z M20,11 C20,13.486 18.994,15.734 17.364,17.364 C15.734,18.994 13.486,20 11,20 C8.514,20 6.266,18.994 4.636,17.364 C3.006,15.734 2,13.486 2,11 C2,8.514 3.006,6.266 4.636,4.636 C6.266,3.006 8.514,2 11,2 C13.486,2 15.734,3.006 17.364,4.636 C18.994,6.266 20,8.514 20,11 Z M15,10 L9.414,10 L11.707,7.707 C12.098,7.316 12.098,6.683 11.707,6.293 C11.316,5.903 10.683,5.902 10.293,6.293 L6.293,10.293 C6.197,10.389 6.125,10.499 6.076,10.617 C6.027,10.735 6,10.864 6,11 C6,11.13 6.025,11.261 6.076,11.383 C6.125,11.501 6.197,11.611 6.293,11.707 L10.293,15.707 C10.684,16.098 11.317,16.098 11.707,15.707 C12.097,15.316 12.098,14.683 11.707,14.293 L9.414,12 L15,12 C15.552,12 16,11.552 16,11 C16,10.448 15.552,10 15,10 Z"/>
</svg>
