<svg xmlns="http://www.w3.org/2000/svg" width="16" height="16" viewBox="0 0 16 16">
  <path fill="#FFF" d="M7.293,1.707 L12.586,7 L1,7 C0.448,7 0,7.448 0,8 C0,8.552 0.448,9 1,9 L12.586,9 L7.293,14.293 C6.902,14.684 6.902,15.317 7.293,15.707 C7.684,16.097 8.317,16.098 8.707,15.707 L15.707,8.707 C15.799,8.615 15.873,8.505 15.924,8.383 C16.025,8.138 16.025,7.862 15.924,7.617 C15.875,7.499 15.803,7.389 15.707,7.293 L8.707,0.293 C8.316,-0.098 7.683,-0.098 7.293,0.293 C6.903,0.684 6.902,1.317 7.293,1.707 Z"/>
</svg>
