<svg xmlns="http://www.w3.org/2000/svg" width="10" height="25" viewBox="0 0 10 25">
  <path fill="#FFF" d="M5,0.5 C5.27614237,0.5 5.5,0.710689529 5.5,0.970588235 L5.5,0.970588235 L5.5,22.2317647 L9.06421223,16.2692888 C9.1845517,16.0679365 9.43879785,15.9820864 9.66284783,16.0549843 L9.74513062,16.0898468 C9.98580956,16.2172651 10.0711697,16.5041898 9.93578777,16.7307112 L9.93578777,16.7307112 L5.43578777,24.2601229 C5.24463573,24.579959 4.75536427,24.579959 4.56421223,24.2601229 L4.56421223,24.2601229 L0.0642122314,16.7307112 C-0.0711696716,16.5041898 0.0141904414,16.2172651 0.25486938,16.0898468 C0.495548319,15.9624285 0.800405866,16.0427675 0.935787769,16.2692888 L0.935787769,16.2692888 L4.5,22.2317647 L4.5,0.970588235 C4.5,0.739567163 4.67687516,0.547427416 4.91012437,0.507581807 L5,0.5 Z"/>
</svg>
