<svg xmlns="http://www.w3.org/2000/svg" width="22" height="22" viewBox="0 0 22 22">
  <path fill="#FFF" d="M22,11 C22,7.963 20.768,5.211 18.778,3.222 C16.788,1.233 14.037,0 11,0 C7.963,0 5.211,1.232 3.222,3.222 C1.233,5.212 0,7.963 0,11 C0,14.037 1.232,16.789 3.222,18.778 C5.212,20.767 7.963,22 11,22 C14.037,22 16.789,20.768 18.778,18.778 C20.767,16.788 22,14.037 22,11 Z M20,11 C20,13.486 18.994,15.734 17.364,17.364 C15.734,18.994 13.486,20 11,20 C8.514,20 6.266,18.994 4.636,17.364 C3.006,15.734 2,13.486 2,11 C2,8.514 3.006,6.266 4.636,4.636 C6.266,3.006 8.514,2 11,2 C13.486,2 15.734,3.006 17.364,4.636 C18.994,6.266 20,8.514 20,11 Z M7,12 L12.586,12 L10.293,14.293 C9.902,14.684 9.902,15.317 10.293,15.707 C10.684,16.097 11.317,16.098 11.707,15.707 L15.707,11.707 C15.799,11.615 15.873,11.505 15.924,11.383 C16.025,11.138 16.025,10.862 15.924,10.617 C15.875,10.499 15.803,10.389 15.707,10.293 L11.707,6.293 C11.316,5.902 10.683,5.902 10.293,6.293 C9.903,6.684 9.902,7.317 10.293,7.707 L12.586,10 L7,10 C6.448,10 6,10.448 6,11 C6,11.552 6.448,12 7,12 Z"/>
</svg>
