<svg xmlns="http://www.w3.org/2000/svg" width="12" height="12" viewBox="0 0 12 12">
  <path fill="#FFF" d="M2,11 L2,3.414 L10.293,11.707 C10.684,12.098 11.317,12.098 11.707,11.707 C12.097,11.316 12.098,10.683 11.707,10.293 L3.414,2 L11,2 C11.552,2 12,1.552 12,1 C12,0.448 11.552,0 11,0 L1,0 C0.864,0 0.735,0.027 0.617,0.076 C0.499,0.125 0.39,0.197 0.294,0.292 C0.293,0.293 0.293,0.293 0.292,0.294 C0.2,0.386 0.126,0.495 0.076,0.617 C0.027,0.735 0,0.864 0,1 L0,11 C0,11.552 0.448,12 1,12 C1.552,12 2,11.552 2,11 Z"/>
</svg>
