<svg xmlns="http://www.w3.org/2000/svg" width="16" height="16" viewBox="0 0 16 16">
  <path fill="#FFF" d="M14.293,7.293 L9,12.586 L9,1 C9,0.448 8.552,0 8,0 C7.448,0 7,0.448 7,1 L7,12.586 L1.707,7.293 C1.316,6.902 0.683,6.902 0.293,7.293 C-0.097,7.684 -0.098,8.317 0.293,8.707 L7.293,15.707 C7.389,15.803 7.499,15.875 7.617,15.924 C7.735,15.973 7.864,16 8,16 C8.13,16 8.261,15.975 8.383,15.924 C8.501,15.875 8.611,15.803 8.707,15.707 L15.707,8.707 C16.098,8.316 16.098,7.683 15.707,7.293 C15.316,6.903 14.683,6.902 14.293,7.293 Z"/>
</svg>
