<svg xmlns="http://www.w3.org/2000/svg" width="12" height="12" viewBox="0 0 12 12">
  <path fill="#FFF" d="M11,10 L3.414,10 L11.707,1.707 C12.098,1.316 12.098,0.683 11.707,0.293 C11.316,-0.097 10.683,-0.098 10.293,0.293 L2,8.586 L2,1 C2,0.448 1.552,0 1,0 C0.448,0 0,0.448 0,1 L0,11 C0,11.136 0.027,11.265 0.076,11.383 C0.125,11.501 0.197,11.611 0.292,11.706 C0.293,11.707 0.293,11.707 0.294,11.708 C0.386,11.8 0.496,11.874 0.617,11.924 C0.735,11.973 0.864,12 1,12 L11,12 C11.552,12 12,11.552 12,11 C12,10.448 11.552,10 11,10 Z"/>
</svg>
