<svg xmlns="http://www.w3.org/2000/svg" width="12" height="12" viewBox="0 0 12 12">
  <path fill="#FFF" d="M10,1 L10,8.586 L1.707,0.293 C1.316,-0.098 0.683,-0.098 0.293,0.293 C-0.097,0.684 -0.098,1.317 0.293,1.707 L8.586,10 L1,10 C0.448,10 0,10.448 0,11 C0,11.552 0.448,12 1,12 L11,12 C11.136,12 11.265,11.973 11.383,11.924 C11.501,11.875 11.611,11.803 11.707,11.707 C11.799,11.615 11.873,11.505 11.924,11.383 C11.973,11.265 12,11.136 12,11 L12,1 C12,0.448 11.552,5.32907052e-15 11,5.32907052e-15 C10.448,5.32907052e-15 10,0.448 10,1 Z"/>
</svg>
