<svg xmlns="http://www.w3.org/2000/svg" width="40" height="32" viewBox="0 0 40 32">
  <path fill="#FEFEFE" fill-rule="evenodd" d="M38.889,9.3259 L38.889,14.8489 L38.889,15.7849 C38.285,16.0989 37.666,16.3859 37.046,16.6679 C36.666,16.8419 36.282,17.0109 35.893,17.1709 C35.868,17.1789 35.847,17.1919 35.822,17.1999 L35.812,17.2049 C35.766,17.2259 35.715,17.2469 35.668,17.2639 C35.555,17.3099 35.436,17.3609 35.323,17.4079 C35.077,17.5089 34.836,17.6059 34.591,17.6989 C33.675,18.0579 32.749,18.3929 31.815,18.7039 L31.815,17.9979 L31.815,14.4729 L31.815,10.1829 L31.815,6.4759 C31.815,6.0369 31.826,5.5979 31.824,5.1589 L35.956,5.1589 C36.543,5.1589 37.131,5.1509 37.718,5.1589 C38.01,5.1629 38.288,5.2259 38.513,5.3569 C38.62,5.4209 38.716,5.4929 38.784,5.5819 C38.785,5.5879 38.837,5.6689 38.834,5.6649 C38.839,5.6729 38.841,5.6759 38.845,5.6809 C38.859,5.7239 38.868,5.7629 38.88,5.8009 C38.855,5.6869 38.889,5.8179 38.889,5.8469 L38.889,9.3259 Z M37.287,18.4079 L37.287,21.8489 L37.287,26.0329 L37.287,29.6349 C37.287,30.0429 37.267,30.4589 37.269,30.8719 L36.881,30.8719 L34.291,30.8719 L30.442,30.8719 L25.763,30.8719 L20.62,30.8719 L15.431,30.8719 L10.61,30.8719 L6.536,30.8719 L3.59,30.8719 C3.29,30.8719 2.991,30.8659 2.691,30.8649 L2.691,29.9929 L2.691,26.5529 L2.691,22.3679 L2.691,18.7669 C2.691,18.4689 2.701,18.1659 2.705,17.8639 C5.96,19.3609 9.376,20.5549 12.879,21.2999 C14.088,21.5569 15.31,21.7569 16.538,21.8929 L16.538,23.2079 C16.538,23.5079 16.792,23.7619 17.092,23.7619 L22.171,23.7619 L22.907,23.7619 C23.206,23.7619 23.46,23.5079 23.46,23.2079 L23.46,21.8329 C27.712,21.3109 31.86,20.0849 35.808,18.4539 C36.304,18.2499 36.797,18.0349 37.287,17.8169 L37.287,18.4079 Z M1.122,11.6949 L1.122,6.0669 L1.122,5.8509 L1.122,5.8089 L1.122,5.7799 L1.122,5.7649 L1.122,5.7629 C1.132,5.7269 1.141,5.6919 1.154,5.6589 C1.144,5.6969 1.227,5.5599 1.219,5.5579 C1.264,5.5069 1.312,5.4589 1.364,5.4179 C1.381,5.4079 1.45,5.3619 1.452,5.3619 C1.487,5.3409 1.516,5.3239 1.549,5.3069 C1.576,5.2929 1.589,5.2849 1.596,5.2809 C1.605,5.2769 1.616,5.2739 1.63,5.2689 C1.689,5.2469 1.743,5.2309 1.803,5.2139 C1.976,5.1669 2.052,5.1629 2.239,5.1589 L2.809,5.1589 L6.164,5.1589 L8.066,5.1589 L8.066,6.1849 L8.066,9.7099 L8.066,13.9999 L8.066,17.7069 C8.066,18.0529 8.06,18.3979 8.058,18.7429 C7.29,18.4819 6.529,18.2039 5.776,17.9059 C5.534,17.8079 5.289,17.7109 5.048,17.6139 C4.939,17.5679 4.825,17.5209 4.715,17.4749 C4.694,17.4669 4.571,17.4159 4.647,17.4459 C4.583,17.4159 4.516,17.3899 4.452,17.3609 C4.042,17.1829 3.633,17.0059 3.232,16.8209 C2.519,16.4929 1.811,16.1559 1.122,15.7859 L1.122,11.6949 Z M9.173,18.0529 L9.173,14.5279 L9.173,10.2379 L9.173,6.5309 C9.173,6.0739 9.185,5.6169 9.181,5.1589 L11.692,5.1589 L18.41,5.1589 L25.328,5.1589 L30.707,5.1589 L30.707,6.1299 L30.707,9.6559 L30.707,13.9449 L30.707,17.6519 C30.707,18.1219 30.696,18.5919 30.7,19.0609 C29.658,19.3829 28.605,19.6729 27.542,19.9239 C26.198,20.2399 24.835,20.4969 23.46,20.6669 L23.46,19.7249 L23.46,19.7169 C23.46,19.6789 23.456,19.6419 23.449,19.6059 C23.43,19.5119 23.388,19.4349 23.333,19.3729 C23.326,19.3649 23.32,19.3579 23.312,19.3499 C23.308,19.3449 23.302,19.3399 23.297,19.3349 C23.292,19.3299 23.287,19.3249 23.282,19.3199 C23.271,19.3089 23.259,19.2969 23.246,19.2869 C23.24,19.2819 23.234,19.2759 23.227,19.2699 C23.135,19.2039 23.026,19.1639 22.907,19.1639 L17.827,19.1639 L17.092,19.1639 C16.792,19.1639 16.538,19.4169 16.538,19.7169 L16.538,19.7249 L16.538,20.7229 C14.038,20.4439 11.573,19.8639 9.173,19.1099 L9.173,18.0529 Z M16.58,1.6589 L23.076,1.6589 L23.426,1.6589 L23.426,3.9849 L16.932,3.9849 L16.58,3.9849 L16.58,1.6589 Z M36.814,4.0529 L32.993,4.0529 L27.103,4.0529 L24.534,4.0529 L24.534,0.5529 C24.534,0.2529 24.28,-0.0001 23.98,-0.0001 L16.932,-0.0001 L16.028,-0.0001 C15.727,-0.0001 15.474,0.2529 15.474,0.5529 L15.474,4.0529 L13.243,4.0529 L7.276,4.0529 L3.299,4.0529 L2.373,4.0529 C1.533,4.0529 0.561,4.3309 0.172,5.1549 C-0.073,5.6699 0.016,6.3369 0.016,6.8939 L0.016,9.8959 L0.016,15.7649 L0.016,16.1239 C0.016,16.3139 0.121,16.5079 0.29,16.6009 C0.714,16.8379 1.147,17.0629 1.583,17.2799 L1.583,18.4159 L1.583,21.8569 L1.583,26.0409 L1.583,29.6429 C1.583,30.2259 1.562,30.8119 1.583,31.3949 L1.583,31.4209 C1.583,31.7209 1.837,31.9739 2.137,31.9739 L3.096,31.9739 L5.687,31.9739 L9.536,31.9739 L14.214,31.9739 L19.357,31.9739 L24.546,31.9739 L29.368,31.9739 L33.442,31.9739 L36.387,31.9739 C36.852,31.9739 37.317,31.9819 37.782,31.9739 L37.84,31.9739 C38.141,31.9739 38.395,31.7209 38.395,31.4209 L38.395,29.9769 L38.395,26.5349 L38.395,22.3509 L38.395,18.7499 C38.395,18.2549 38.408,17.7569 38.4,17.2619 C38.848,17.0509 39.291,16.8309 39.725,16.5969 C39.895,16.5039 40,16.3089 40,16.1189 L40,12.6399 L40,7.1179 L40,5.8469 C40,5.7989 39.993,5.7539 39.984,5.7119 C39.864,4.5899 38.67,4.0529 37.642,4.0529 L36.814,4.0529 Z"/>
</svg>
