<svg xmlns="http://www.w3.org/2000/svg" width="21" height="21" viewBox="0 0 21 21">
  <path fill="#FFF" d="M3.93,18.07 C2.046,16.249 0.877,13.7 0.877,10.877 C0.877,5.354 5.354,0.877 10.877,0.877 C13.7,0.877 16.249,2.046 18.067,3.927 L18.07,3.93 C19.807,5.726 20.877,8.177 20.877,10.877 C20.877,16.4 16.4,20.877 10.877,20.877 C8.177,20.877 5.726,19.807 3.927,18.067 L3.93,18.07 L3.93,18.07 Z M16.66,16.66 C18.109,15.211 19.004,13.21 19.004,11 C19.004,6.579 15.42,2.996 11,2.996 C8.79,2.996 6.789,3.892 5.34,5.34 L5.34,5.34 C3.891,6.789 2.996,8.79 2.996,11 C2.996,15.421 6.58,19.004 11,19.004 C13.21,19.004 15.211,18.108 16.66,16.66 L16.66,16.66 Z M7.7,10.29 L10,12.6 L14.3,8.3 L15.7,9.72 L10,15.4 L6.3,11.7 L7.7,10.28 L7.7,10.29 Z"/>
</svg>
