<svg xmlns="http://www.w3.org/2000/svg" width="36" height="40" viewBox="0 0 36 40">
  <path fill="#FFF" d="M32.275,35.707 L35.421,0.462 L35.463,0 L0,0 L0.041,0.462 L3.184,35.712 L3.21,36.006 L3.494,36.086 L17.598,40 L17.823,40 L31.966,36.08 L32.249,36 L32.275,35.706 L32.275,35.707 L32.275,35.707 Z M17.76,7.798 L28.066,7.798 L27.756,11.405 L17.589,15.924 L17.76,16.738 L27.302,16.738 L26.203,29.323 L17.726,31.673 L9.251,29.327 L8.713,23.299 L12.202,23.299 L12.482,26.355 L12.509,26.651 L12.796,26.728 L17.652,28.018 L17.873,28.016 L22.673,26.682 L22.959,26.602 L22.984,26.308 L23.464,20.664 L23.503,20.203 L8.426,20.203 L8.109,16.581 L17.927,12.379 L18.624,12.079 L18.457,11.264 L7.661,11.264 L7.354,7.798 L17.76,7.798 L17.76,7.798 Z"/>
</svg>
