<svg xmlns="http://www.w3.org/2000/svg" width="44" height="29" viewBox="0 0 44 29">
  <path fill="#FEFEFE" fill-rule="evenodd" d="M41.7499,26.848 L1.4999,26.848 L1.4999,9.684 L21.6249,18.559 L41.7499,9.684 L41.7499,26.848 Z M1.4999,1.5 L41.7499,1.5 L41.7499,8.059 L21.6249,16.973 L1.4999,8.059 L1.4999,1.5 Z M41.9999,0 L41.7499,0 L1.4999,0 L1.2499,0 C0.5609,0 -0.0001,0.56 -0.0001,1.25 L-0.0001,8.266 L-0.0001,27.098 C-0.0001,27.787 0.5609,28.348 1.2499,28.348 L41.9999,28.348 C42.6889,28.348 43.2499,27.787 43.2499,27.098 L43.2499,8.266 L43.2499,1.25 C43.2499,0.56 42.6889,0 41.9999,0 L41.9999,0 Z"/>
</svg>
