<svg xmlns="http://www.w3.org/2000/svg" width="38" height="38" viewBox="0 0 38 38">
  <path fill="#FFF" d="M35.903,0 L2.097,0 C0.93885888,0 0,0.93885888 0,2.097 L0,35.903 C0,37.06 0.939,38 2.097,38 L20.31,38 L20.31,23.304 L15.364,23.304 L15.364,17.552 L20.31,17.552 L20.31,13.32 C20.31,8.412 23.31,5.739 27.688,5.739 C29.1625591,5.73585333 30.6362627,5.81028955 32.103,5.962 L32.103,11.092 L29.09,11.092 C26.705,11.092 26.24,12.219 26.24,13.882 L26.24,17.546 L31.94,17.546 L31.199,23.298 L26.207,23.298 L26.207,38 L35.903,38 C37.0611411,38 38,37.0611411 38,35.903 L38,2.097 C38,0.93885888 37.0611411,0 35.903,0 Z"/>
</svg>
