<svg xmlns="http://www.w3.org/2000/svg" width="37" height="42" viewBox="0 0 37 42">
  <path fill="#FFF" d="M31.9095,24.178875 L31.912125,24.173625 C32.111625,24.3705 32.295375,24.654 32.32425,24.885 C32.424,25.662 32.347875,26.420625 31.983,26.971875 C31.796625,27.25275 31.492125,27.4575 31.129875,27.554625 C30.89625,27.617625 30.6075,27.649125 30.2715,27.649125 C28.38675,27.649125 25.396875,26.698875 22.966125,25.33125 C19.77675,25.809 16.1385,26.67525 12.94125,27.71475 C10.171875,32.547375 8.161125,34.7025 6.43125,34.7025 C6.108375,34.7025 5.793375,34.626375 5.494125,34.47675 L4.80375,34.13025 C4.37325,33.8835 4.31025,33.350625 4.39425,32.93325 C4.662,31.626 6.271125,29.980125 8.701875,28.5285 C8.988,28.35525 10.208625,27.706875 10.261125,27.680625 L10.9725,27.302625 C11.662875,26.121375 12.424125,24.7275 13.264125,23.08425 L13.369125,22.882125 C14.167125,21.32025 15.070125,19.548375 15.792,17.789625 L16.04925,17.16225 C15.043875,13.314 14.487375,10.3425 15.0255,8.355375 C15.201375,7.720125 15.876,7.2975 16.7055,7.2975 L17.154375,7.310625 C17.89725,7.279125 18.372375,7.86975 18.613875,8.42625 L18.69,8.62575 C18.753,8.806875 18.774,8.875125 18.8055,9.10875 C19.04175,10.815 18.151875,15.862875 18.151875,15.862875 C18.109875,16.051875 18.062625,16.235625 18.010125,16.445625 C18.829125,18.69525 20.146875,20.740125 21.7245,22.21275 C22.309875,22.761375 23.058,23.218125 23.7825,23.6355 C25.402125,23.40975 26.940375,23.296875 28.21875,23.31 C30.10875,23.33625 31.350375,23.627625 31.9095,24.178875 Z M6.055875,33.39 L6.055875,33.387375 C6.906375,33.004125 8.2005,31.775625 10.1325,28.693875 C9.87,28.94325 9.583875,29.211 9.468375,29.3055 C7.620375,30.820125 6.370875,32.526375 6.055875,33.39 Z M16.9995,8.19 C16.744875,8.19 16.7685,10.182375 16.7685,10.182375 C16.7685,11.2245 16.923375,12.817875 17.238375,13.8285 C17.619,13.146 17.926125,12.222 17.899875,10.906875 C17.873625,9.59175 17.556,8.19 16.9995,8.19 Z M13.734,26.147625 L13.731375,26.147625 C15.86025,25.328625 18.277875,24.656625 21.076125,24.10275 C20.887125,23.958375 20.703375,23.811375 20.53275,23.667 C19.15725,22.5015 17.9865,21.04725 17.04675,19.338375 C16.57425,20.559 15.941625,22.04475 14.93625,23.94525 C14.524125,24.72225 14.1225,25.454625 13.734,26.147625 Z M31.374,25.990125 L31.374,25.9875 C31.544625,25.8825 31.5315,25.368 30.53925,25.113375 C29.547,24.85875 29.245125,24.864 28.22925,24.864 C27.67275,24.864 27.05325,24.89025 26.378625,24.940125 C28.13475,25.696125 29.3895,26.158125 30.40275,26.158125 C30.715125,26.158125 31.203375,26.09775 31.374,25.990125 Z M35.020125,9.394875 C36.5715,11.510625 36.75,12.537 36.75,13.125 L36.75,38.71875 C36.75,40.527375 35.277375,42 33.46875,42 L3.28125,42 C1.472625,42 0,40.527375 0,38.71875 L0,3.28125 C0,1.472625 1.472625,0 3.28125,0 L23.625,0 C24.213,0 25.239375,0.1785 27.355125,1.729875 C28.59675,2.64075 30.051,3.91125 31.444875,5.305125 C32.83875,6.699 34.10925,8.15325 35.020125,9.394875 Z M29.586375,7.163625 L29.58375,7.163625 C28.326375,5.903625 27.18975,4.916625 26.247375,4.186875 L26.247375,10.5 L32.563125,10.5 C31.833375,9.557625 30.846375,8.423625 29.586375,7.163625 Z M34.125,38.71875 L34.125,13.125 L24.9375,13.125 C24.213,13.125 23.625,12.537 23.625,11.8125 L23.625,2.625 C23.622375,2.625 3.28125,2.625 3.28125,2.625 C2.926875,2.625 2.625,2.926875 2.625,3.28125 L2.625,38.71875 C2.625,39.07575 2.926875,39.375 3.28125,39.375 L33.46875,39.375 C33.82575,39.375 34.125,39.07575 34.125,38.71875 Z"/>
</svg>
