<svg xmlns="http://www.w3.org/2000/svg" width="42" height="41" viewBox="0 0 42 41">
  <path fill="#FFF" d="M20.9986876,0.0052496719 C9.40216236,0.0052496719 0,9.40741204 0,21.0039373 C0,30.2827323 6.01612399,38.1519905 14.3604775,40.9290669 C15.4104118,41.1233048 15.7962627,40.4723455 15.7962627,39.9185051 C15.7962627,39.4171614 15.775264,37.7635148 15.7673895,36.0101244 C9.92450472,37.280545 8.69345666,33.5322792 8.69345666,33.5322792 C7.73801637,31.104306 6.36260234,30.4585963 6.36260234,30.4585963 C4.45697144,29.1540529 6.50696831,29.1829261 6.50696831,29.1829261 C8.61471158,29.3299169 9.72501719,31.3457909 9.72501719,31.3457909 C11.5991501,34.5559653 14.6387101,33.6267733 15.8356353,33.0913068 C16.0246235,31.7342666 16.5679645,30.8076995 17.1690519,30.2827323 C12.5047185,29.7525155 7.6015249,27.951878 7.6015249,19.904131 C7.6015249,17.6126492 8.42309856,15.7385163 9.76438973,14.2686082 C9.54652834,13.7383914 8.82732329,11.6043997 9.96650209,8.71183051 C9.96650209,8.71183051 11.7303919,8.14749078 15.743766,10.864196 C17.4184113,10.3996 19.2137991,10.1659896 20.9986876,10.1581151 C22.783576,10.1659896 24.5815887,10.3996 26.2588588,10.864196 C30.2669833,8.14749078 32.0282482,8.71183051 32.0282482,8.71183051 C33.1700519,11.6043997 32.4534717,13.7410162 32.2356103,14.2686082 C33.5821511,15.7385163 34.3958503,17.6126492 34.3958503,19.904131 C34.3958503,27.9702519 29.4821574,29.744641 24.8073245,30.2643585 C25.5606525,30.9153178 26.2326105,32.1936129 26.2326105,34.1517405 C26.2326105,36.960315 26.2089869,39.2229236 26.2089869,39.9132554 C26.2089869,40.4723455 26.5869633,41.1259296 27.6526467,40.9211924 C35.9917505,38.1414912 42,30.272233 42,20.9986876 C42,9.40216236 32.5978376,0 21.0013124,0 L20.9986876,0.0052496719 Z"/>
</svg>
