<svg xmlns="http://www.w3.org/2000/svg" width="42" height="35" viewBox="0 0 42 35">
  <path fill="#FFF" d="M41.829,16.805 C41.9075702,16.8190257 41.9828423,16.7673597 41.998,16.689 C42.0114636,16.610552 41.9600435,16.5356384 41.882,16.52 C39.907,16.156 38.462,15.754 33.587,15.794 C33.891,14.67 34.055,13.341 34.088,11.767 C34.08,7.498 32.037,5.987 31.644,5.279 C32.223,2.047 31.548,0.576 31.234,0.071 C30.077,-0.341 27.206,1.131 25.639,2.167 C23.082,1.42 17.68,1.492 15.654,2.36 C11.915,-0.317 9.938,0.093 9.938,0.093 C9.938,0.093 8.659,2.384 9.6,5.737 C8.37,7.305 7.453,8.414 7.453,11.355 C7.453,13.011 7.648,14.494 8.088,15.788 C6.132,15.784 2.031,16.047 0.11,16.522 C0.0328670756,16.5416813 -0.0142831807,16.6195238 0.004,16.697 C0.0236732827,16.774618 0.102191945,16.8219077 0.18,16.803 C2.118,16.324 6.356,16.063 8.192,16.079 C8.298,16.358 8.415,16.628 8.545,16.889 C3.823,17.015 2.55,17.689 0.567,18.184 C0.424,18.221 0.283,18.255 0.146,18.289 C0.0683819942,18.3086733 0.0210923456,18.3871919 0.04,18.465 C0.0596813489,18.5421329 0.137523753,18.5892832 0.215,18.571 L0.638,18.465 C2.626,17.968 3.917,17.29 8.696,17.175 C10.101,19.726 12.81,21.313 17.379,21.751 C16.726,22.246 15.943,23.186 15.835,24.272 C15.015,24.803 13.366,24.978 12.084,24.573 C10.288,24.006 9.6,20.449 6.91,20.956 C6.327,21.066 6.443,21.45 6.947,21.776 C7.767,22.306 8.539,22.97 9.134,24.383 C9.591,25.469 10.552,27.408 13.591,27.408 C14.797,27.408 15.642,27.263 15.642,27.263 C15.642,27.263 15.665,30.033 15.665,31.11 C15.665,32.351 13.99,32.702 13.99,33.299 C13.99,33.535 14.544,33.557 14.99,33.557 C15.871,33.557 17.704,32.822 17.704,31.531 C17.704,30.506 17.72,27.058 17.72,26.455 C17.72,25.136 18.428,24.718 18.428,24.718 C18.428,24.718 18.515,31.758 18.259,32.701 C17.958,33.811 17.415,33.654 17.415,34.149 C17.415,34.885 19.621,34.329 20.352,32.713 C20.918,31.455 20.671,24.549 20.671,24.549 L21.273,24.537 C21.273,24.537 21.307,27.698 21.287,29.143 C21.266,30.64 21.164,32.533 22.053,33.425 C22.637,34.012 24.529,35.041 24.529,34.1 C24.529,33.553 23.492,33.104 23.492,31.624 L23.492,24.815 C24.32,24.815 24.196,27.054 24.196,27.054 L24.256,31.214 C24.256,31.214 24.074,32.729 25.895,33.364 C26.538,33.589 27.914,33.65 27.978,33.273 C28.043,32.894 26.322,32.332 26.306,31.158 C26.297,30.442 26.338,30.024 26.338,26.913 C26.338,23.802 25.921,22.652 24.465,21.735 C28.958,21.273 31.738,20.162 33.093,17.184 C34.651,17.236 37.911,17.395 41.701,18.553 C41.7769346,18.5764236 41.8574904,18.533908 41.881,18.458 C41.8925167,18.421268 41.8888468,18.3814541 41.8708095,18.3474463 C41.8527722,18.3134386 41.8218695,18.2880686 41.785,18.277 C38.047,17.133 34.886,16.955 33.217,16.899 C33.322,16.64 33.419,16.369 33.504,16.085 C38.407,16.039 39.856,16.441 41.829,16.805 L41.829,16.805 Z M7.791,21.538 C7.611,21.538 7.465,21.441 7.465,21.321 C7.465,21.201 7.611,21.104 7.791,21.104 C7.971,21.104 8.117,21.201 8.117,21.321 C8.117,21.441 7.971,21.538 7.791,21.538 L7.791,21.538 Z M8.478,21.872 C8.478,21.752 8.624,21.655 8.804,21.655 C8.984,21.655 9.13,21.752 9.13,21.872 C9.13,21.992 8.984,22.089 8.804,22.089 C8.624,22.089 8.478,21.992 8.478,21.872 Z M9.098,22.608 C9.098,22.488 9.243,22.391 9.423,22.391 C9.603,22.391 9.749,22.488 9.749,22.608 C9.749,22.728 9.603,22.825 9.423,22.825 C9.243,22.825 9.097,22.728 9.097,22.608 L9.098,22.608 Z M9.966,23.657 C9.786,23.657 9.64,23.56 9.64,23.44 C9.64,23.32 9.786,23.223 9.966,23.223 C10.146,23.223 10.291,23.32 10.291,23.44 C10.291,23.56 10.145,23.657 9.966,23.657 Z M10.586,24.441 C10.406,24.441 10.259,24.343 10.259,24.224 C10.259,24.104 10.405,24.007 10.585,24.007 C10.765,24.007 10.91,24.104 10.91,24.224 C10.91,24.343 10.764,24.441 10.585,24.441 L10.586,24.441 Z M11.421,25.108 C11.241,25.108 11.095,25.011 11.095,24.891 C11.095,24.771 11.241,24.674 11.421,24.674 C11.601,24.674 11.746,24.771 11.746,24.891 C11.746,25.011 11.6,25.108 11.421,25.108 Z M12.591,25.542 C12.411,25.542 12.265,25.445 12.265,25.325 C12.265,25.205 12.411,25.108 12.59,25.108 C12.77,25.108 12.916,25.205 12.916,25.325 C12.916,25.445 12.77,25.542 12.59,25.542 L12.591,25.542 Z M13.764,25.542 C13.584,25.542 13.438,25.445 13.438,25.325 C13.438,25.205 13.584,25.108 13.764,25.108 C13.944,25.108 14.09,25.205 14.09,25.325 C14.09,25.445 13.944,25.542 13.764,25.542 Z M14.942,25.357 C14.762,25.357 14.616,25.26 14.616,25.14 C14.616,25.02 14.762,24.923 14.942,24.923 C15.122,24.923 15.268,25.02 15.268,25.14 C15.268,25.26 15.122,25.357 14.942,25.357 Z M24.164,20.736 C22.18721,20.8018911 20.2087677,20.8015576 18.232,20.735 C13.296,20.562 10.578,18.479 10.578,14.87 C10.578,14.495 10.658,13.177 11.678,11.953 C12.671,10.763 14.192,10.134 16.076,10.134 C16.206,10.134 16.436,10.148 16.901,10.177 C17.901,10.239 19.573,10.343 21.231,10.343 C22.729,10.343 24.246,10.232 25.061,10.173 C25.443,10.145 25.596,10.134 25.695,10.134 C29.705,10.134 31.133,12.696 31.133,15.093 C31.133,17.563 29.924,20.548 24.164,20.736 L24.164,20.736 Z M6.81,23.858 C7.587,23.858 6.823,22.653 6.81,22.089 C6.807,22.638 6.033,23.858 6.81,23.858 Z M21.94,18.672 C21.9016349,18.672 21.8648556,18.6873077 21.8378214,18.7145296 C21.8107873,18.7417515 21.7957336,18.7786359 21.796,18.817 C21.796,19.136 21.421,19.492 20.919,19.492 C20.847,19.492 20.777,19.484 20.711,19.47 C20.5537695,19.4349173 20.4058183,19.3667371 20.277,19.27 C20.253,19.253 20.23,19.234 20.208,19.216 C20.1474594,19.1649872 20.0921832,19.108036 20.043,19.046 C19.971,18.953 19.93,18.868 19.93,18.817 C19.93,18.7371949 19.8653051,18.6725 19.7855,18.6725 C19.7056949,18.6725 19.641,18.7371949 19.641,18.817 C19.641,18.858 19.649,18.904 19.666,18.953 C19.6950395,19.0367242 19.736503,19.115606 19.789,19.187 C19.922866,19.3693113 20.0961773,19.5190358 20.296,19.625 C20.4883548,19.7257966 20.701849,19.7795985 20.919,19.782 C21.2278221,19.7840355 21.5268045,19.6734724 21.76,19.471 C21.811,19.425 21.857,19.375 21.897,19.323 C22.0117913,19.1785665 22.0776357,19.0013471 22.085,18.817 C22.085,18.7369187 22.0200813,18.672 21.94,18.672 L21.94,18.672 Z M20.49,17.898 C20.566684,18.014119 20.6892932,18.0919777 20.827,18.112 C20.992479,18.1376649 21.159757,18.0782718 21.272,17.954 C21.3090522,17.9120973 21.3384952,17.8640409 21.359,17.812 C21.386038,17.7511705 21.4006572,17.6855543 21.402,17.619 C21.3999773,17.4185998 21.2784907,17.2387696 21.0933294,17.162091 C20.908168,17.0854124 20.6951117,17.1267025 20.552,17.267 C20.547,17.27 20.544,17.275 20.54,17.279 C20.4787117,17.3471446 20.4357047,17.4297181 20.415,17.519 C20.4005373,17.5852195 20.4005373,17.6537805 20.415,17.72 C20.4280184,17.7836983 20.4535076,17.8441925 20.49,17.898 L20.49,17.898 Z M16.8,12.67 C16.7018163,12.5484853 16.5912171,12.4375509 16.47,12.339 C16.352,12.244 16.228,12.166 16.1,12.106 C15.9071816,12.0155283 15.6969856,11.9680978 15.484,11.967 C14.344,11.967 13.418,13.346 13.418,15.047 C13.418,16.747 14.343,17.933 15.484,17.933 C15.8389247,17.9325741 16.1842873,17.8179208 16.469,17.606 C16.586,17.521 16.697,17.422 16.799,17.308 C16.901,17.194 16.995,17.067 17.079,16.927 C17.374,16.436 17.551,15.79 17.551,15.047 C17.551,14.303 17.374,13.62 17.079,13.088 C16.998074,12.9407442 16.9043813,12.8008743 16.799,12.67 L16.8,12.67 Z M26.651,11.967 C25.511,11.967 24.585,13.346 24.585,15.046 C24.585,16.747 25.51,17.933 26.651,17.933 C27.793,17.933 28.718,16.747 28.718,15.046 C28.718,13.346 27.793,11.967 26.651,11.967 L26.651,11.967 Z"/>
</svg>
