<svg xmlns="http://www.w3.org/2000/svg" width="24" height="27" viewBox="0 0 24 27">
  <path fill="#FFF" d="M8.75,2.10305078 C7.22871525,2.10305078 6,3.33176603 6,4.85305078 L6,14.106791 L5.39355045,13.2994518 C4.83014562,12.5482449 3.9397573,12.1030508 3,12.1030508 C1.34271519,12.1030508 0,13.4527327 0,15.1030508 C0,15.7618736 0.214062164,16.3974074 0.613804254,16.9163179 L6.606,24.9060508 C7.16985438,25.6578566 8.0602427,26.1030508 9,26.1030508 L19.75,26.1030508 C20.945419,26.1030508 21.9814674,25.2507303 22.2147413,24.079362 L23.40483,17.7405644 C23.4683513,17.3417855 23.5,16.983487 23.5,16.6340508 L23.5,8.85305078 C23.5,7.33176603 22.2712847,6.10305078 20.75,6.10305078 C20.2995881,6.10305078 19.8748226,6.21075929 19.5,6.40187993 L19.5,4.85305078 C19.5,3.33176603 18.2712847,2.10305078 16.75,2.10305078 C16.2859052,2.10305078 15.8490388,2.21740273 15.4659794,2.41952803 C15.2558317,1.08613956 14.0982196,0 12.7236328,0 C11.4057249,0 10.3277374,0.995594807 10.0625802,2.2533275 L10.0326512,2.41880591 C9.64992009,2.21713039 9.2135418,2.10305078 8.75,2.10305078 Z M12.7236328,1 C13.6926328,1 14.5,1.88405078 14.5,2.85305078 L14.5,13.1030508 L15,13.1030508 L15,4.85305078 C15,3.88405078 15.781,3.10305078 16.75,3.10305078 C17.719,3.10305078 18.5,3.88405078 18.5,4.85305078 L18.5,13.1030508 L19,13.1030508 L19,8.85305078 C19,7.88405078 19.781,7.10305078 20.75,7.10305078 C21.719,7.10305078 22.5,7.88405078 22.5,8.85305078 L22.5,16.6340508 C22.5,16.9470508 22.469,17.2590508 22.422,17.5560508 L21.234,23.8840508 C21.094,24.5870508 20.469,25.1030508 19.75,25.1030508 L9,25.1030508 C8.375,25.1030508 7.781,24.8060508 7.406,24.3060508 L1.406,16.3060508 C1.141,15.9620508 1,15.5410508 1,15.1030508 C1,14.0090508 1.891,13.1030508 3,13.1030508 C3.625,13.1030508 4.219,13.4000508 4.594,13.9000508 L7,17.1030508 L7,4.85305078 C7,3.88405078 7.781,3.10305078 8.75,3.10305078 C9.719,3.10305078 10.5,3.88405078 10.5,4.85305078 L10.5,13.1030508 L11,13.1030508 L11,2.85305078 C11,1.88405078 11.7546328,1 12.7236328,1 Z"/>
</svg>
