<svg xmlns="http://www.w3.org/2000/svg" width="70" height="57" viewBox="0 0 70 57">
  <path fill="#FFF" d="M62.8725011,39.8705075 C62.6965011,40.0115075 62.5855011,40.2455075 62.5855011,40.4895075 C62.5855011,40.5355075 62.5925011,40.5795075 62.6005011,40.6235075 C62.6335011,40.8175075 62.7325011,40.9955075 62.8855011,41.1175075 L63.0325011,41.2335075 L63.2435011,41.4025075 L63.2315011,41.8685075 C63.2115011,42.6535075 63.1925011,43.4375075 63.1735011,44.2225075 C58.1465011,44.5165075 54.6615011,44.5215075 49.7025011,44.2405075 C49.6935011,43.4705075 49.6945011,42.6975075 49.6775011,41.9315075 L49.6665011,41.4305075 L50.0705011,41.1495075 C50.2955011,40.9925075 50.4545011,40.7055075 50.4385011,40.4835075 C50.4355011,40.4395075 50.4255011,40.3505075 50.3065011,40.2555075 C50.2735011,40.2285075 50.2355011,40.2025075 50.1825011,40.1755075 C47.7105011,38.9665075 46.3675011,36.7575075 45.0665011,34.6205075 C44.0345011,32.9225075 43.0605011,31.3195075 41.5635011,30.2245075 C41.3345011,30.0575075 40.7055011,29.7375075 40.0955011,29.4285075 C38.6935011,28.7175075 37.8105011,28.2405075 37.3085011,27.7825075 C37.0115011,27.5105075 36.8475011,27.2465075 36.7915011,26.9455075 C36.7465011,26.6955075 36.7865011,26.4465075 36.9005011,26.2285075 C36.9415011,26.1465075 36.9925011,26.0695075 37.0565011,25.9985075 C38.6075011,24.2485075 40.9465011,25.5725075 42.6525011,26.5365075 C43.3435011,26.9265075 44.0575011,27.3285075 44.4675011,27.3965075 C44.6655011,27.4305075 44.8505011,27.4425075 45.0275011,27.4455075 C45.6575011,27.4565075 46.1705011,27.2855075 46.5775011,26.9145075 C48.4175011,25.2355075 48.1715011,20.0585075 48.0245011,16.9655075 C47.9925011,16.2825075 47.9635011,15.6745075 47.9575011,15.1835075 C47.9575011,14.1345075 47.9385011,13.0955075 47.9185011,12.0555075 C47.8925011,10.6635075 47.8645011,9.2255075 47.8865011,7.7965075 C47.8865011,7.5875075 47.8975011,7.3675075 47.9185011,7.1465075 C48.0015011,6.2755075 48.2765011,5.3985075 49.0345011,5.1775075 C49.4595011,5.0525075 50.0885011,5.1125075 50.6915011,6.1015075 C51.0065011,6.6015075 50.9965011,7.2455075 50.9875011,7.8145075 C50.9855011,7.9665075 50.9815011,8.1095075 50.9905011,8.2275075 C51.1775011,10.7515075 51.3135011,13.3175075 51.4465011,15.7995075 C51.5305011,17.3795075 51.6145011,18.9605075 51.7115011,20.5405075 C51.7475011,21.1605075 52.2915011,21.1775075 52.4015011,21.1715075 C52.5235011,21.1665075 52.6555011,21.1395075 52.7595011,21.0555075 C52.8625011,20.9705075 52.9365011,20.8285075 52.9365011,20.5975075 L52.9365011,11.0275075 C52.9365011,10.8195075 52.9135011,10.4615075 52.8865011,10.0105075 C52.7685011,8.0735075 52.6885011,6.1285075 52.9075011,4.6285075 C53.0455011,3.6795075 53.3015011,2.9075075 53.7455011,2.4325075 C54.0805011,2.0745075 54.5045011,1.8845075 54.9715011,1.8845075 C54.9835011,1.8845075 55.0045011,1.8875075 55.0045011,1.8845075 C55.6935011,1.8845075 56.1185011,2.1975075 56.3505011,2.4575075 C57.0045011,3.1965075 56.8965011,4.3095075 56.8035011,5.2925075 C56.7775011,5.5455075 56.7535011,5.7895075 56.7505011,6.0025075 L56.7505011,20.5905075 C56.7505011,21.0535075 57.0495011,21.1575075 57.3015011,21.1635075 C57.3645011,21.1625075 57.5605011,21.1545075 57.7265011,21.0425075 C57.8525011,20.9565075 57.9615011,20.8095075 57.9745011,20.5465075 L58.4795011,10.1515075 C58.5275011,9.0455075 58.5755011,7.9395075 58.6435011,6.8335075 C58.6655011,6.4845075 58.7005011,6.1425075 58.7585011,5.8255075 C58.8965011,5.0605075 59.1785011,4.4475075 59.8205011,4.2885075 C60.7535011,4.0585075 61.3215011,5.0515075 61.5095011,5.3765075 C62.3235011,6.7825075 62.2025011,9.2185075 62.1035011,11.1775075 C62.0695011,11.8465075 62.0385011,12.4795075 62.0585011,12.8885075 L62.5045011,22.0175075 C62.5325011,22.6205075 63.0705011,22.6345075 63.1815011,22.6325075 C63.2475011,22.6315075 63.3185011,22.6205075 63.3865011,22.5995075 C63.5695011,22.5415075 63.7285011,22.3985075 63.7285011,22.0635075 L63.7285011,12.6175075 C63.7265011,12.5435075 63.7085011,12.3795075 63.6885011,12.1765075 C63.5895011,11.1775075 63.5555011,10.6095075 63.6205011,10.2225075 C63.6575011,10.0055075 63.7255011,9.8445075 63.8325011,9.6995075 C64.4695011,8.8545075 65.1595011,8.9645075 65.4305011,9.0495075 C67.2075011,9.6155075 67.5085011,14.8765075 67.5195011,15.1005075 L67.5195011,15.1045075 C67.6255011,17.2685075 67.5995011,19.4655075 67.5715011,21.5905075 C67.5605011,22.5465075 67.5495011,23.5025075 67.5495011,24.4555075 C67.5495011,29.4475075 67.5495011,36.2825075 62.8725011,39.8705075 L62.8725011,39.8705075 Z M65.5895011,54.7665075 C58.2305011,55.2545075 54.5325011,55.2545075 47.1745011,54.7665075 L47.1745011,53.1375075 L47.1745011,45.6535075 C47.9725011,45.7055075 48.7205011,45.7525075 49.4415011,45.7935075 C54.7555011,46.0995075 58.2545011,46.0925075 63.6425011,45.7745075 C64.2665011,45.7385075 64.9075011,45.6985075 65.5895011,45.6535075 L65.5895011,48.7105075 L65.5895011,54.7665075 Z M32.1515011,27.7505075 C31.6515011,28.2045075 30.7715011,28.6905075 29.3545011,29.4275075 C28.7745011,29.7295075 28.1735011,30.0405075 27.9595011,30.1965075 C26.4765011,31.2835075 25.5045011,32.8825075 24.4765011,34.5735075 C23.1735011,36.7155075 21.8265011,38.9305075 19.3365011,40.1495075 C19.2825011,40.1755075 19.2435011,40.2025075 19.2105011,40.2295075 C19.0915011,40.3255075 19.0805011,40.4145075 19.0775011,40.4595075 C19.0625011,40.6785075 19.2225011,40.9615075 19.4485011,41.1155075 L19.8635011,41.3995075 L19.8475011,41.9105075 C19.8235011,42.6835075 19.8205011,43.4645075 19.8075011,44.2425075 C14.8505011,44.5225075 11.3595011,44.5155075 6.31550114,44.2185075 C6.29650114,43.4255075 6.27750114,42.6335075 6.25750114,41.8395075 L6.24450114,41.3705075 L6.45750114,41.2035075 L6.60750114,41.0845075 C6.76350114,40.9615075 6.86150114,40.7875075 6.89350114,40.5935075 C6.90150114,40.5495075 6.90850114,40.5045075 6.90850114,40.4595075 C6.90850114,40.2165075 6.79650114,39.9825075 6.60750114,39.8345075 C1.93850114,36.2215075 1.93850114,29.3625075 1.93850114,24.8235075 C1.93850114,23.7545075 1.92550114,22.6815075 1.91050114,21.6075075 C1.88250114,19.4695075 1.85250114,17.2595075 1.93950114,15.0835075 C2.17450114,10.7145075 2.89150114,9.7035075 3.48750114,9.3095075 C3.87350114,9.0575075 4.32250114,9.0115075 4.75550114,9.1835075 C5.33750114,9.4105075 5.60250114,9.8525075 5.71850114,10.3395075 C5.83750114,10.8475075 5.79250114,11.4045075 5.75650114,11.8185075 C5.74150114,11.9995075 5.72650114,12.1775075 5.72450114,12.3395075 L5.72450114,22.0335075 C5.72450114,22.3705075 5.88350114,22.5145075 6.06650114,22.5725075 C6.13650114,22.5925075 6.20650114,22.6045075 6.27450114,22.6065075 C6.37350114,22.6085075 6.91950114,22.5925075 6.94750114,21.9905075 L7.38050114,13.2125075 C7.39950114,12.7815075 7.37050114,12.1125075 7.33950114,11.4025075 C7.24750114,9.3235075 7.13450114,6.7355075 7.94450114,5.3445075 C8.14950114,4.9925075 8.70250114,4.0625075 9.57250114,4.2305075 C10.3005011,4.3735075 10.5325011,5.0805075 10.6635011,5.7745075 C10.6905011,5.9215075 10.7155011,6.0675075 10.7375011,6.2065075 C10.7545011,6.3145075 10.7705011,6.4205075 10.7885011,6.5165075 C10.9765011,8.1895075 11.0555011,9.8265075 11.0345011,11.4445075 L11.4785011,20.5155075 C11.4905011,20.7745075 11.6005011,20.9215075 11.7265011,21.0085075 C11.8935011,21.1225075 12.0935011,21.1315075 12.1545011,21.1315075 C12.4045011,21.1255075 12.7025011,21.0215075 12.7025011,20.5615075 L12.7025011,6.0515075 C12.7025011,5.8335075 12.6805011,5.5785075 12.6565011,5.3145075 C12.5715011,4.3275075 12.4755011,3.2095075 13.1255011,2.4685075 C13.3515011,2.2095075 13.7645011,1.8995075 14.4465011,1.88426613 C14.9285011,1.8765075 15.3755011,2.0675075 15.7215011,2.4375075 C16.1615011,2.9095075 16.4135011,3.6675075 16.5485011,4.5955075 C16.7545011,6.0245075 16.6795011,7.8565075 16.5655011,9.6805075 C16.5385011,10.1155075 16.5165011,10.4625075 16.5165011,10.6675075 L16.5165011,20.5905075 C16.5165011,20.7965075 16.5775011,20.9405075 16.6875011,21.0355075 C16.7725011,21.1085075 16.8865011,21.1545075 17.0365011,21.1605075 C17.0995011,21.1635075 17.6945011,21.1665075 17.7425011,20.5215075 C17.8165011,19.2145075 17.8865011,17.8915075 17.9555011,16.5695075 C18.0995011,13.8315075 18.2465011,11.0005075 18.4625011,8.2175075 C18.4745011,8.0805075 18.4685011,7.9295075 18.4665011,7.7715075 C18.4565011,7.2495075 18.4455011,6.6005075 18.7655011,6.0875075 C18.9335011,5.8105075 19.4635011,4.9455075 20.3145011,5.1185075 C21.2105011,5.3025075 21.3715011,6.3385075 21.5155011,7.2525075 L21.5545011,7.5015075 C21.5555011,7.5075075 21.5555011,7.5135075 21.5565011,7.5195075 C21.8275011,9.2035075 21.7135011,11.0305075 21.6035011,12.7965075 C21.5515011,13.6295075 21.5015011,14.4145075 21.4955011,15.1525075 C21.4885011,15.6575075 21.4595011,16.2785075 21.4265011,16.9745075 C21.2795011,20.0385075 21.0325011,25.1695075 22.8605011,26.8565075 C23.2695011,27.2345075 23.7875011,27.4135075 24.4225011,27.4095075 C24.6035011,27.4085075 24.7905011,27.3975075 24.9925011,27.3665075 L24.9935011,27.3665075 C25.4665011,27.2925075 26.1955011,26.8705075 26.9015011,26.4615075 C28.5165011,25.5265075 30.7285011,24.2465075 32.3725011,25.9425075 C32.4395011,26.0045075 32.4965011,26.0815075 32.5445011,26.1645075 C32.6565011,26.3595075 32.7135011,26.6015075 32.6815011,26.8525075 C32.6415011,27.1775075 32.4735011,27.4575075 32.1515011,27.7505075 L32.1515011,27.7505075 Z M22.4765011,45.6615075 L22.4765011,46.6035075 L22.4765011,52.9395075 L22.4765011,54.7745075 C15.1185011,55.2625075 11.5365011,55.2625075 4.17850114,54.7745075 L4.17850114,50.6285075 L4.17850114,45.6615075 C4.83750114,45.7045075 5.34450114,45.7435075 5.94950114,45.7795075 C11.3535011,46.0995075 14.8535011,46.1085075 20.1585011,45.8045075 C20.8935011,45.7625075 21.6575011,45.7155075 22.4735011,45.6615075 L22.4765011,45.6615075 Z M69.3765011,25.3315075 C69.4195011,20.7885075 69.9975011,15.6455075 68.7985011,11.2025075 C68.2835011,9.3175075 67.2845011,7.2455075 65.0615011,7.1455075 C64.6005011,7.1225075 64.1375011,7.1855075 63.6975011,7.3315075 C63.5185011,5.0815075 62.9835011,2.7885075 60.7265011,2.2455075 C59.9235011,1.9985075 59.0545011,2.0965075 58.3275011,2.5165075 C57.9895011,0.999507496 56.6145011,-0.0584925039 55.0615011,0.00250749612 C52.5565011,-0.0404925039 51.4905011,1.5815075 51.0405011,3.5745075 C49.9955011,2.6255075 48.4005011,2.6255075 47.3545011,3.5745075 C45.3615011,5.0025075 45.7055011,7.9745075 45.7265011,10.1315075 C45.7265011,13.1095075 45.8555011,16.0955075 45.7835011,19.0815075 C45.7835011,20.1525075 46.0765011,23.0525075 45.4705011,23.9315075 C44.1275011,25.8815075 43.0695011,24.3525075 41.6975011,23.8025075 C39.8335011,23.0885075 38.2695011,22.9245075 36.4975011,23.9025075 C35.7285011,24.2725075 35.1185011,24.9075075 34.7765011,25.6885075 C34.4835011,25.0125075 33.9835011,24.4475075 33.3485011,24.0745075 C31.5415011,22.9105075 29.8115011,23.0245075 27.8545011,23.8025075 C26.4835011,24.3525075 25.4265011,25.8815075 24.0835011,23.9315075 C23.4765011,23.0525075 23.7905011,20.1525075 23.7685011,19.0815075 C23.6975011,16.0955075 23.7685011,13.1095075 23.8265011,10.1315075 C23.8265011,7.9885075 24.1905011,5.0165075 22.1975011,3.5745075 C21.1485011,2.6435075 19.5685011,2.6435075 18.5185011,3.5745075 C18.0695011,1.6175075 17.0125011,0.00250749612 14.4905011,0.00250749612 C12.9395011,-0.0524925039 11.5695011,1.0035075 11.2265011,2.5165075 C10.4965011,2.1055075 9.63050114,2.0075075 8.82650114,2.2455075 C6.59150114,2.7595075 6.03350114,5.1025075 5.86150114,7.3245075 C5.41750114,7.1795075 4.95050114,7.1185075 4.48350114,7.1455075 C2.26250114,7.2455075 1.26250114,9.2885075 0.747501141,11.2025075 C-0.416498859,15.5315075 0.126501141,20.4885075 0.126501141,24.9245075 C0.126501141,30.2315075 0.611501141,36.0245075 4.31950114,39.9675075 C4.35650114,41.3455075 4.38950114,42.7205075 4.42350114,44.0985075 C4.17550114,44.0815075 3.93450114,44.0665075 3.67850114,44.0485075 C3.03350114,44.0035075 2.50950114,44.4825075 2.50950114,45.1215075 L2.50950114,55.0605075 C2.50950114,55.6995075 3.03350114,56.2605075 3.67850114,56.3055075 C11.3445011,56.8375075 15.2015011,56.8375075 22.8675011,56.3055075 C23.5125011,56.2605075 24.0365011,55.6995075 24.0365011,55.0605075 L24.0365011,45.1215075 C24.0365011,44.4825075 23.5125011,44.0035075 22.8675011,44.0485075 C22.5685011,44.0695075 22.2855011,44.0875075 21.9975011,44.1065075 C22.0175011,42.9535075 22.0245011,41.8025075 22.0695011,40.6455075 C23.4225011,39.6015075 24.5715011,38.3185075 25.4625011,36.8595075 C26.3265011,35.5315075 27.0125011,34.0025075 28.1045011,32.8595075 C29.3615011,31.5165075 31.0405011,31.2315075 32.5125011,30.3025075 C33.5305011,29.7025075 34.3245011,28.7875075 34.7765011,27.6955075 C35.2245011,28.7875075 36.0165011,29.7035075 37.0335011,30.3025075 C38.5055011,31.2315075 40.1845011,31.5165075 41.4405011,32.8595075 C42.5335011,34.0315075 43.2195011,35.5315075 44.0835011,36.8595075 C44.9685011,38.3305075 46.1155011,39.6265075 47.4695011,40.6815075 C47.5125011,41.8245075 47.5165011,42.9645075 47.5335011,44.1065075 C47.2505011,44.0875075 46.9715011,44.0695075 46.6775011,44.0485075 C46.0325011,44.0035075 45.5095011,44.4825075 45.5095011,45.1215075 L45.5095011,55.0605075 C45.5095011,55.6995075 46.0325011,56.2605075 46.6775011,56.3055075 C54.3455011,56.8375075 58.2015011,56.8375075 65.8685011,56.3055075 C66.5135011,56.2605075 67.0365011,55.6995075 67.0365011,55.0605075 L67.0365011,45.1215075 C67.0365011,44.4825075 66.5135011,44.0035075 65.8685011,44.0485075 C65.5985011,44.0675075 65.3425011,44.0835075 65.0805011,44.1015075 C65.1135011,42.7325075 65.1505011,41.3655075 65.1845011,39.9955075 C68.7555011,36.1455075 69.3765011,30.5165075 69.3765011,25.3315075 L69.3765011,25.3315075 Z"/>
</svg>
