<svg xmlns="http://www.w3.org/2000/svg" width="26" height="28" viewBox="0 0 26 28">
  <path fill="#FFF" d="M13.75,2 C12.781,2 12,2.781 12,3.75 L12,14 L11.5,14 L11.5,5.75 C11.5,4.781 10.719,4 9.75,4 C8.781,4 8,4.781 8,5.75 L8,18 L5.594,14.797 C5.219,14.297 4.625,14 4,14 C2.891,14 2,14.906 2,16 C2,16.438 2.141,16.859 2.406,17.203 L8.406,25.203 C8.781,25.703 9.375,26 10,26 L20.75,26 C21.469,26 22.094,25.484 22.234,24.781 L23.422,18.453 C23.469,18.156 23.5,17.844 23.5,17.531 L23.5,9.75 C23.5,8.781 22.719,8 21.75,8 C20.781,8 20,8.781 20,9.75 L20,14 L19.5,14 L19.5,5.75 C19.5,4.781 18.719,4 17.75,4 C16.781,4 16,4.781 16,5.75 L16,14 L15.5,14 L15.5,3.75 C15.5,2.781 14.719,2 13.75,2 Z M13.75,-6.21724894e-15 C15.156,-6.21724894e-15 16.453,0.797 17.094,2.063 C17.313,2.016 17.532,2 17.75,2 C19.813,2 21.5,3.687 21.5,5.75 L21.5,6.016 C23.672,5.891 25.5,7.563 25.5,9.75 L25.5,17.531 C25.5,17.969 25.453,18.406 25.375,18.828 L24.187,25.14 C23.89,26.796 22.437,27.999 20.75,27.999 L10,27.999 C8.75,27.999 7.547,27.39 6.797,26.405 L0.797,18.405 C0.281,17.717 0,16.858 0,15.999 C0,13.796 1.781,11.999 4,11.999 C4.656,11.999 5.453,12.155 6,12.53 L6,5.749 C6,3.686 7.687,1.999 9.75,1.999 C9.969,1.999 10.188,2.015 10.406,2.062 C11.047,0.796 12.343,-0.001 13.75,-0.001 L13.75,-6.21724894e-15 Z"/>
</svg>
