<svg xmlns="http://www.w3.org/2000/svg" width="84" height="27" viewBox="0 0 84 27">
  <path fill="#FFF" d="M52.4754,16.6363 C52.2404,18.4373 51.5354,21.3363 49.9684,21.7283 C49.3414,21.8853 48.1674,22.1983 47.1484,22.4333 C46.8354,23.0603 47.0024,23.2633 47.4714,23.8903 C48.0635667,24.5561333 49.0749617,24.6626981 50.1753561,24.2108369 L50.3704,24.1253 L55.6094,20.9453 C55.7654,20.8663 56.0014,20.7883 56.1584,20.7883 C56.2364,20.7883 61.5634,21.0233 65.3244,17.6543 C61.3284,18.4373 56.8624,18.0463 52.4754,16.6363 Z M2.7754,1.7546 C1.9554,7.3866 1.7754,10.2366 1.8814,15.9266 C4.6774,16.1036 6.0754,16.1916 8.8714,16.3676 L8.8714,16.3526 C8.8594,15.7316 8.8524,15.1486 8.8474,14.5876 C8.8174,10.6136 8.9824,7.9626 9.5064,4.0426 C9.5764,3.5206 9.6524,2.9736 9.7354,2.4006 C9.7454,2.3316 9.7544,2.2656 9.7644,2.1956 C9.1264,2.1546 8.5664,2.1196 8.0404,2.0866 C7.6594,2.0626 7.2964,2.0396 6.9444,2.0176 C5.6534,1.9366 4.4704,1.8616 2.7754,1.7546 Z M80.797,1.8333 L76.086,2.0353 L74.652,2.0963 L73.826,2.1313 C73.834,2.1903 73.84,2.2413 73.848,2.2993 C73.928,2.9063 74.001,3.4893 74.065,4.0443 C74.479,7.5913 74.592,10.2493 74.484,13.8153 C74.468,14.3643 74.445,14.9413 74.418,15.5393 L74.413875,15.651425 L74.409,15.7643 L81.38,15.4663 C81.635,10.0903 81.51,7.1653 80.797,1.8333 Z M72.6308719,14.2093004 L72.6268719,14.3063004 L72.6268719,14.3093004 L72.6258719,14.3293004 L72.6258719,14.3543004 L72.6308719,14.2093004 Z M13.5394,15.0693 C13.8524,15.0693 14.0874,15.3043 14.2444,15.5393 C16.6724,20.8663 25.5254,21.8073 25.6034,21.8073 C25.729,21.8073 25.8546,21.85722 25.940264,21.917124 L25.9964,21.9633 L30.7284,24.1633 L35.0374,24.8683 C35.7424,24.9473 36.1844,24.8363 36.6044,24.3203 C37.0234,23.8033 37.0284,23.5573 37.0094,23.2993 C36.9654,22.6583 36.7284,22.4333 35.7104,22.3553 C34.6134,22.1983 33.5164,22.0413 32.6544,21.8853 C32.592,21.8853 32.47904,21.83538 32.396416,21.774964 L32.3414,21.7283 L25.2114,16.4793 C24.8984,16.2443 24.7424,15.7743 24.9774,15.3823 C24.9774,15.3043 25.9174,13.5023 27.8764,12.8753 C29.2084,12.4053 30.6964,12.6403 32.2624,13.4243 C32.6544,13.6593 33.1254,13.8943 33.6724,14.2073 C33.9236,14.3329 34.22408,14.50842 34.494992,14.693924 L34.6914,14.8343 L34.2204,11.5273 C34.1424,11.0573 34.4554,10.5873 35.0034,10.5083 C35.4398286,10.4358714 35.8771194,10.7014429 35.999814,11.1785106 L36.0224,11.2923 L36.6504,15.9313 L36.6504,16.0093 C36.6504,16.4013 36.4944,16.7143 36.1804,16.8713 C35.5534,17.2633 34.7704,16.8713 32.8114,15.6963 C32.3414,15.4603 31.8714,15.1473 31.4794,14.9913 C30.3044,14.3643 29.2864,14.2073 28.4234,14.5203 C27.7184,14.7553 27.0764,15.0153 26.9354,15.5393 C27.3114,16.0273 33.2034,20.1613 33.2034,20.1613 C34.379025,20.455675 36.4484977,20.6797375 37.4779496,20.7716894 L37.6694,20.7883 L38.1384,20.8663 C39.0014,20.9453 39.7064,21.0233 40.0194,20.7093 C40.2534,20.4753 40.4114,19.9263 40.4894,19.0643 C40.5674,18.3593 40.2534,13.5803 40.0194,10.0553 C39.8624,7.1563 39.7064,4.5713 39.7064,3.7873 C39.7064,1.89246129 36.2571804,1.68430312 36.0346501,1.6728453 L36.0234,1.6723 L35.9454,1.6723 C35.5534,1.5943 32.8894,1.9863 30.3044,2.2993 C22.8544,3.3253 15.8524,4.1643 11.3454,4.1253 C10.8144,8.0166 10.6404,10.8256 10.6834,14.7756 L13.5394,15.0693 Z M72.6438719,13.8253004 L72.6438719,13.8243004 L72.644,13.8153 C72.753,10.3053 72.645,7.7443 72.238,4.2623 L71.8442662,4.28460644 C66.9037857,4.52452992 59.0477684,3.47366842 51.1434,2.3773 C48.8814,2.07589259 46.6898746,1.70122867 46.1806046,1.7435396 L46.1294,1.7503 L46.0514,1.7503 C46.0514,1.7503 42.603117,1.89733434 42.3806471,3.68228953 L42.3694,3.8663 L42.4474,12.7973 C42.2914,14.7553 42.2124,18.0463 42.3694,18.9863 C42.5264,20.0043 42.8394,20.7093 43.2314,21.0233 C43.4654,21.1803 43.8574,21.3363 44.8764,21.1013 C45.4005739,21.0266913 48.1471221,20.3784191 49.3458807,19.9791282 L49.4994,19.9263 L49.5774,19.9263 C49.9684,19.6913 50.5954,17.8113 50.8304,15.9313 C49.9162333,15.5388 48.9479,15.1476889 48.0156778,14.6653741 L47.4614,14.3643 L47.1864,16.1563 C47.1154909,16.5126636 46.7850777,16.803738 46.4318245,16.8537155 L46.3254,16.8613 L46.1694,16.8613 C45.7346308,16.7893 45.4336367,16.3832882 45.4512516,15.9515831 L45.4624,15.8433 L45.9734,12.8753 C46.0514,12.5623 46.2084,12.3273 46.4434,12.2483 C46.6784,12.1703 46.9914,12.1703 47.2264,12.3273 C55.1394,16.9493 64.1484,17.5763 70.2594,13.9723 C70.37715,13.9138 70.4949,13.8547375 70.6122281,13.8288625 L70.7294,13.8153 L72.6434,13.8153 L72.6428719,13.8283004 L72.6438719,13.8253004 Z M70.9644,15.5393 C70.1024,16.0093 69.2414,16.4013 68.3004,16.7923 C64.6063649,22.1800895 58.1131916,22.502404 56.4014815,22.512055 L56.3144,22.5123 L51.2324,25.5353 L51.1544,25.6133 C50.2924,26.0833 49.5084,26.2403 48.8034,26.2403 C47.6274,26.2403 46.6884,25.6923 46.0614,24.9873 C45.4344,24.2033 45.0334,23.7653 45.1894,22.8253 C44.7974,22.9033 44.4064,22.9813 44.0144,22.9813 C43.3094,22.9813 42.6824,22.8253 42.2124,22.4333 C41.8994,22.2763 41.6644,21.9633 41.5074,21.7283 C41.4294,21.8853 41.2724,22.0413 41.1164,22.1203 C40.6223,22.5433 40.00184,22.71196 39.368744,22.741462 L39.1574,22.7463 L38.8434,22.7463 C38.8434,22.8253 38.9034,23.0753 38.8594,23.3923 C38.8164,23.7103 38.7974,24.4763 37.9364,25.4953 C37.3094,26.2783 36.3694,26.7483 35.3504,26.7483 C35.1164,26.7483 30.9044,26.2553 30.1794,25.9653 C29.5015875,25.693425 25.7282672,23.8597336 25.2592499,23.6315842 L25.2114,23.6083 C23.7504545,23.4551364 16.0208321,22.243537 12.9974539,17.0830734 L12.8344,16.7923 L10.7154,16.5573 C10.7204,16.7896 10.7264,17.0176 10.7324,17.2576 C10.7464,17.7796 10.3094,18.1746 9.7504,18.1396 C6.2904,17.9216 4.5604,17.8126 1.1014,17.5946 C0.5424,17.5596 0.0704,17.1066 0.0564,16.5846 C-0.1176,10.2756 0.0824,7.1106 1.0464,0.8726 C1.1274,0.3576 1.6514,-0.0334 2.2104,0.0026 C5.6704,0.2206 7.4004,0.3296 10.8594,0.5476 C11.4184,0.5826 11.8024,1.0306 11.7234,1.5466 C11.6744,1.8596 11.6294,2.1606 11.5844,2.4596 L11.5844,2.4593 C16.6974,2.4443 25.3334,1.2923 30.1474,0.6543 C34.2214,0.1053 35.6314,-0.0507 36.1804,0.0273 C37.7474,0.1053 40.0974,0.6543 41.1164,2.2993 C42.0554,0.6543 44.4844,0.1053 46.0514,0.0273 C46.5994,-0.0507 47.9314,0.1833 51.5354,0.6543 C56.7774,1.4033 66.6374,2.7963 72.0184,2.5013 L72.0188719,2.50430043 L72.019,2.5013 C71.978,2.1883 71.935,1.8713 71.89,1.5403 C71.86,1.32687143 71.9174286,1.11123878 72.0478017,0.932445773 L72.119,0.8463 L72.443,0.5393 L81.481,0.1533 C82.009,0.1303 82.471,0.4803 82.533,0.9463 C83.363,6.9783 83.497,10.1153 83.186,16.1983 C83.1656923,16.6349154 82.7968876,16.9999568 82.3249822,17.0708371 L82.205,17.0823 L73.573,17.4513 C73.338,17.4613 73.1085556,17.3969944 72.9234398,17.2728509 L72.818,17.1913 L72.512,16.8793 L72.53,16.5183 C72.548,16.1823 72.564,15.8583 72.577,15.5393 L70.9644,15.5393 Z"/>
</svg>
