<svg xmlns="http://www.w3.org/2000/svg" width="70" height="45" viewBox="0 0 70 45">
  <path fill="#FFF" d="M58.2356338,1.77646913 L51.2326338,5.96046913 C53.7296338,8.25146913 55.6746338,10.8714691 57.2706338,13.7104691 C58.8696338,16.5564691 60.1126338,19.6114691 61.2076338,22.7714691 L68.2456338,18.5654691 C67.1506338,15.3694691 65.9146338,12.2894691 64.3216338,9.45446913 C62.7286338,6.61946913 60.7726338,4.01946913 58.2356338,1.77646913 L58.2356338,1.77646913 Z M12.0856338,0.108469128 L20.5166338,5.14646913 C20.8946338,5.37146913 21.0206338,5.86046913 20.7966338,6.24146913 C20.7386338,6.33946913 20.6636338,6.42046913 20.5766338,6.48346913 C20.3056338,6.71346913 20.0416338,6.94846913 19.7826338,7.18646913 C20.3386338,7.80446913 20.9406338,8.16046913 21.7206338,8.35946913 C22.7316338,8.61846913 24.0586338,8.64646913 25.9096338,8.62646913 C26.9386338,7.58346913 27.7426338,7.00346913 29.4076338,6.54646913 C30.3556338,6.28746913 31.5626338,6.07946913 32.8216338,5.92846913 C34.2186338,5.76146913 35.7146338,5.65946913 37.0086338,5.63046913 C38.2246338,5.60446913 39.2486338,5.64446913 40.1616338,5.72946913 C41.0946338,5.81746913 41.8906338,5.94546913 42.6456338,6.09546913 C42.9656338,6.15946913 43.3216338,6.23646913 43.6736338,6.31246913 C44.7586338,6.54746913 45.8186338,6.77646913 46.9576338,6.81446913 C47.7046338,6.83846913 48.5156338,6.78446913 49.2496338,6.70646913 C49.3786338,6.69346913 49.5056338,6.67846913 49.6316338,6.66346913 C49.5626338,6.60346913 49.4926338,6.54346913 49.4226338,6.48346913 C49.3366338,6.42046913 49.2606338,6.33946913 49.2026338,6.24146913 C48.9796338,5.86046913 49.1046338,5.37146913 49.4826338,5.14646913 L57.9136338,0.108469128 L57.9156338,0.110469128 C58.1966338,-0.0565308725 58.5646338,-0.0365308725 58.8286338,0.186469128 C61.7336338,2.64546913 63.9336338,5.52446913 65.7026338,8.67246913 C67.4516338,11.7854691 68.7746338,15.1484691 69.9426338,18.6244691 C70.0876338,18.9844691 69.9516338,19.4064691 69.6096338,19.6094691 L61.1776338,24.6484691 L61.1776338,24.6474691 C61.1306338,24.6754691 61.0796338,24.6984691 61.0256338,24.7164691 C60.6096338,24.8574691 60.1596338,24.6314691 60.0206338,24.2134691 L59.9206338,23.9164691 C59.3416338,24.5584691 58.7306338,25.1324691 58.0786338,25.6454691 C57.3786338,26.1974691 56.6336338,26.6794691 55.8376338,27.1044691 C56.4736338,27.8744691 56.6916338,28.8004691 56.5956338,29.6954691 C56.5376338,30.2334691 56.3616338,30.7574691 56.0926338,31.2264691 C55.8216338,31.6984691 55.4576338,32.1144691 55.0246338,32.4304691 C54.4216338,32.8694691 53.6916338,33.1264691 52.8936338,33.0934691 C52.9096338,33.2404691 52.9186338,33.3904691 52.9186338,33.5424691 C52.9186338,34.6274691 52.4806338,35.6104691 51.7736338,36.3214691 C51.0666338,37.0334691 50.0896338,37.4734691 49.0096338,37.4734691 C48.7316338,37.4734691 48.4586338,37.4434691 48.1936338,37.3854691 C48.1806338,38.0324691 47.9936338,38.6614691 47.6666338,39.2084691 C47.3286338,39.7764691 46.8396338,40.2554691 46.2406338,40.5704691 C45.7406338,40.8344691 45.1696338,40.9874691 44.5496338,40.9874691 C44.2296338,40.9874691 43.9176338,40.9444691 43.6196338,40.8654691 C43.5426338,41.4274691 43.3296338,41.9594691 43.0106338,42.4154691 C42.6036338,42.9964691 42.0206338,43.4564691 41.3216338,43.7024691 C40.9596338,43.8304691 40.5716338,43.9014691 40.1676338,43.9014691 C39.2566338,43.9014691 37.5396338,43.7604691 35.6346338,43.3464691 C34.4886338,43.0974691 33.2716338,42.7484691 32.1106338,42.2714691 L31.3586338,43.2174691 L31.3596338,43.2184691 C30.6966338,44.0494691 29.7566338,44.5334691 28.7776338,44.6424691 C27.7986338,44.7514691 26.7776338,44.4854691 25.9486338,43.8184691 L25.9466338,43.8174691 L25.9456338,43.8184691 C25.2056338,43.2224691 24.7426338,42.4024691 24.5756338,41.5304691 C24.1576338,41.7554691 23.7036338,41.8904691 23.2346338,41.9424691 C22.2666338,42.0504691 21.2396338,41.7964691 20.3586338,41.2264691 C20.2626338,41.1654691 20.1756338,41.1024691 20.0956338,41.0394691 C19.3006338,40.4094691 18.9066338,39.5124691 18.8376338,38.5834691 C18.8306338,38.4894691 18.8266338,38.3944691 18.8266338,38.2994691 C18.5746338,38.3794691 18.3156338,38.4324691 18.0546338,38.4624691 C17.0416338,38.5744691 15.9836338,38.3094691 15.1976338,37.7144691 C15.1766338,37.6984691 15.1956338,37.7114691 15.1196338,37.6504691 L15.1186338,37.6524691 C14.2646338,36.9684691 13.8286338,36.0124691 13.7506338,35.0374691 C13.6976338,34.3894691 13.8076338,33.7314691 14.0596338,33.1364691 C13.2066338,33.1434691 12.3456338,32.8664691 11.6286338,32.2894691 C10.7996338,31.6214691 10.3176338,30.6764691 10.2096338,29.6924691 C10.1006338,28.7084691 10.3656338,27.6814691 11.0286338,26.8484691 L11.2876338,26.5224691 C11.1016338,26.0744691 10.9146338,25.6964691 10.6506338,25.3284691 C10.4506338,25.0504691 10.1986338,24.7644691 9.86063378,24.4404691 C9.66063378,24.7074691 9.30663378,24.8294691 8.97463378,24.7164691 C8.92063378,24.6984691 8.86963378,24.6754691 8.82263378,24.6474691 L8.82163378,24.6484691 L0.39063378,19.6094691 C0.0476337799,19.4064691 -0.0873662201,18.9844691 0.0576337799,18.6244691 C1.22563378,15.1484691 2.54863378,11.7854691 4.29763378,8.67246913 C6.06663378,5.52446913 8.26563378,2.64546913 11.1716338,0.186469128 C11.4356338,-0.0365308725 11.8026338,-0.0565308725 12.0846338,0.110469128 L12.0856338,0.108469128 Z M18.6426338,8.30446913 C16.8376338,10.1824691 15.3616338,12.2654691 14.1106338,14.4924691 C12.6466338,17.0964691 11.4846338,19.9084691 10.4556338,22.8274691 C11.1276338,23.4144691 11.5856338,23.9054691 11.9376338,24.3964691 C12.1156338,24.6444691 12.2636338,24.8854691 12.3946338,25.1324691 L13.4246338,23.8384691 L13.4226338,23.8374691 C14.0846338,23.0064691 15.0246338,22.5234691 16.0036338,22.4144691 C16.9816338,22.3054691 18.0026338,22.5714691 18.8306338,23.2374691 L18.8346338,23.2404691 L18.8356338,23.2394691 L18.8396338,23.2424691 L18.8416338,23.2414691 L18.8776338,23.2734691 C19.5126338,23.7994691 19.9376338,24.4924691 20.1396338,25.2394691 L20.3346338,24.9934691 C21.6266338,23.3624691 23.1726338,22.9404691 24.4956338,23.2594691 C25.0336338,23.3894691 25.5276338,23.6424691 25.9486338,23.9874691 C26.3666338,24.3314691 26.7146338,24.7654691 26.9616338,25.2594691 C27.4366338,26.2094691 27.5516338,27.3794691 27.0966338,28.5494691 C27.9586338,28.5294691 28.8316338,28.7974691 29.5576338,29.3674691 C29.5946338,29.3934691 29.6296338,29.4224691 29.6616338,29.4554691 C30.4006338,30.1974691 30.8636338,31.1424691 30.9706338,32.1104691 C31.0746338,33.0564691 30.8426338,34.0174691 30.1996338,34.8374691 L30.1076338,34.9554691 C30.8916338,34.9924691 31.6726338,35.2684691 32.3306338,35.7994691 C33.1596338,36.4664691 33.6416338,37.4114691 33.7506338,38.3964691 C33.8466338,39.2704691 33.6486338,40.1804691 33.1376338,40.9564691 C34.0766338,41.3124691 35.0486338,41.5814691 35.9696338,41.7824691 C37.7466338,42.1684691 39.3306338,42.2994691 40.1676338,42.2994691 C40.3966338,42.2994691 40.6086338,42.2624691 40.7986338,42.1954691 C41.1736338,42.0634691 41.4876338,41.8134691 41.7106338,41.4954691 C41.9316338,41.1794691 42.0596338,40.7964691 42.0596338,40.3954691 C42.0596338,40.3164691 42.0546338,40.2374691 42.0456338,40.1594691 C40.3456338,39.7094691 38.6586338,39.0964691 36.9826338,38.3204691 C35.1586338,37.4764691 33.3476338,36.4384691 31.5486338,35.2064691 C31.1866338,34.9584691 31.0926338,34.4604691 31.3396338,34.0964691 C31.5876338,33.7314691 32.0816338,33.6384691 32.4436338,33.8864691 C34.1686338,35.0674691 35.9026338,36.0614691 37.6486338,36.8694691 C39.3876338,37.6744691 41.1356338,38.2944691 42.8926338,38.7274691 C43.0236338,38.7594691 43.1396338,38.8234691 43.2336338,38.9074691 C43.4106338,39.0574691 43.6156338,39.1774691 43.8396338,39.2604691 C44.0586338,39.3414691 44.2976338,39.3854691 44.5496338,39.3854691 C44.9056338,39.3854691 45.2266338,39.3024691 45.5006338,39.1574691 C45.8386338,38.9784691 46.1136338,38.7094691 46.3046338,38.3894691 C46.4956338,38.0684691 46.6026338,37.6964691 46.6026338,37.3124691 C46.6026338,37.0894691 46.5666338,36.8644691 46.4906338,36.6454691 C42.5216338,35.3424691 38.1186338,33.1454691 33.2836338,30.0524691 C32.9126338,29.8164691 32.8026338,29.3214691 33.0376338,28.9484691 C33.2736338,28.5754691 33.7646338,28.4644691 34.1356338,28.7014691 C38.9926338,31.8074691 43.3846338,33.9844691 47.3116338,35.2294691 C47.4206338,35.2644691 47.5166338,35.3194691 47.5976338,35.3914691 C47.7926338,35.5424691 48.0106338,35.6624691 48.2446338,35.7444691 C48.4796338,35.8274691 48.7366338,35.8724691 49.0096338,35.8724691 C49.6496338,35.8724691 50.2286338,35.6114691 50.6476338,35.1894691 C51.0666338,34.7684691 51.3266338,34.1854691 51.3266338,33.5424691 C51.3266338,33.3294691 51.2986338,33.1244691 51.2456338,32.9294691 C51.2146338,32.8184691 51.1776338,32.7114691 51.1346338,32.6094691 C50.0086338,32.2054691 48.3136338,31.4094691 46.0496338,30.2214691 C43.5776338,28.9224691 40.4396338,27.1664691 36.6346338,24.9514691 C36.2556338,24.7304691 36.1256338,24.2414691 36.3456338,23.8594691 C36.5656338,23.4784691 37.0506338,23.3474691 37.4306338,23.5684691 C41.2516338,25.7934691 44.3696338,27.5394691 46.7836338,28.8074691 C49.1666338,30.0584691 50.8766338,30.8524691 51.9136338,31.1894691 C51.9606338,31.2034691 52.0066338,31.2214691 52.0516338,31.2444691 C52.8366338,31.6414691 53.5616338,31.5214691 54.0906338,31.1354691 C54.3476338,30.9484691 54.5606338,30.7054691 54.7186338,30.4314691 C54.8776338,30.1544691 54.9816338,29.8444691 55.0156338,29.5264691 C55.0876338,28.8614691 54.8316338,28.1574691 54.1036338,27.6734691 L54.1016338,27.6724691 L54.0966338,27.6694691 L54.0946338,27.6674691 L54.0936338,27.6664691 L54.0926338,27.6664691 L54.0906338,27.6644691 L54.0776338,27.6554691 L54.0766338,27.6544691 C54.0666338,27.6474691 54.0556338,27.6394691 54.0466338,27.6314691 L54.0446338,27.6304691 L54.0286338,27.6174691 L54.0276338,27.6164691 L54.0256338,27.6144691 L54.0246338,27.6124691 L54.0216338,27.6114691 L54.0206338,27.6094691 L53.9386338,27.5404691 C53.9186338,27.5254691 53.8996338,27.5084691 53.8816338,27.4914691 C52.5716338,26.3804691 51.2606338,25.2704691 49.8796338,24.1594691 C48.4466338,23.0084691 46.9466338,21.8644691 45.3106338,20.7324691 C42.0926338,18.5044691 38.2866338,16.2784691 34.4696338,14.0524691 C34.0876338,14.1204691 33.7046338,14.1994691 33.3116338,14.3354691 C32.8336338,14.5004691 32.3276338,14.7544691 31.7656338,15.1824691 C31.1606338,15.6444691 30.4516338,16.3374691 29.7206338,17.0524691 C28.9786338,17.7774691 28.2146338,18.5244691 27.4636338,19.1244691 C26.6576338,19.7674691 25.8646338,20.2454691 25.0916338,20.5084691 C24.2446338,20.7974691 23.4226338,20.8334691 22.6346338,20.5584691 L22.6316338,20.5574691 L22.6316338,20.5584691 C21.7786338,20.2594691 20.9876338,19.5894691 20.5676338,18.6454691 C20.2176338,17.8604691 20.1246338,16.8954691 20.4666338,15.8124691 C21.0486338,13.9734691 22.9276338,11.8214691 24.4056338,10.2224691 C23.1666338,10.2054691 22.1766338,10.1284691 21.3286338,9.91146913 C20.2376338,9.63246913 19.4026338,9.14446913 18.6426338,8.30446913 L18.6426338,8.30446913 Z M18.7676338,5.96046913 L11.7646338,1.77646913 C9.22663378,4.01946913 7.27163378,6.61946913 5.67863378,9.45446913 C4.08563378,12.2894691 2.84963378,15.3694691 1.75463378,18.5654691 L8.66063378,22.6924691 C8.68963378,22.6184691 8.73063378,22.5474691 8.78263378,22.4814691 C8.83163378,22.4204691 8.88663378,22.3684691 8.94763378,22.3264691 C10.0046338,19.3244691 11.2056338,16.4224691 12.7296338,13.7104691 C14.3246338,10.8714691 16.2706338,8.25146913 18.7676338,5.96046913 L18.7676338,5.96046913 Z M15.8016338,30.6884691 C15.8356338,30.6464691 15.8726338,30.6084691 15.9116338,30.5754691 L18.1246338,27.7824691 C18.1456338,27.7454691 18.1706338,27.7094691 18.1976338,27.6754691 L18.1986338,27.6744691 L18.2016338,27.6764691 C18.5846338,27.1914691 18.7356338,26.5894691 18.6726338,26.0094691 C18.6106338,25.4434691 18.3396338,24.9004691 17.8736338,24.5104691 L17.8336338,24.4804691 L17.8356338,24.4784691 L17.8326338,24.4754691 L17.8336338,24.4754691 C17.3516338,24.0914691 16.7536338,23.9394691 16.1776338,24.0034691 C15.6016338,24.0674691 15.0486338,24.3504691 14.6606338,24.8384691 L14.6596338,24.8384691 L14.6526338,24.8454691 L14.6526338,24.8454691 L12.8556338,27.1024691 C12.8316338,27.1384691 12.8036338,27.1724691 12.7746338,27.2054691 L12.2666338,27.8424691 C11.8786338,28.3294691 11.7246338,28.9344691 11.7886338,29.5174691 C11.8526338,30.0994691 12.1346338,30.6554691 12.6176338,31.0454691 C13.1016338,31.4344691 13.7036338,31.5894691 14.2836338,31.5244691 C14.8606338,31.4604691 15.4136338,31.1764691 15.8016338,30.6884691 L15.8016338,30.6884691 Z M26.8136338,36.5774691 C26.8396338,36.5154691 26.8756338,36.4554691 26.9206338,36.4004691 C27.0056338,36.2934691 27.0956338,36.1914691 27.1896338,36.0954691 L28.9496338,33.8494691 C29.3176338,33.3794691 29.4506338,32.8284691 29.3906338,32.2864691 C29.3256338,31.6914691 29.0316338,31.0974691 28.5626338,30.6144691 C28.0836338,30.2464691 27.4956338,30.0984691 26.9316338,30.1604691 C26.4096338,30.2184691 25.9086338,30.4554691 25.5356338,30.8604691 L21.0556338,36.5154691 C21.0276338,36.5894691 20.9876338,36.6614691 20.9366338,36.7264691 C20.8916338,36.7844691 20.8506338,36.8414691 20.8156338,36.8974691 C20.5276338,37.3474691 20.3826338,37.9164691 20.4236338,38.4644691 C20.4616338,38.9734691 20.6676338,39.4564691 21.0786338,39.7824691 C21.1256338,39.8194691 21.1726338,39.8524691 21.2166338,39.8814691 C21.7926338,40.2534691 22.4516338,40.4214691 23.0606338,40.3534691 C23.5966338,40.2944691 24.0976338,40.0444691 24.4596338,39.5814691 L25.0086338,38.8804691 C25.1076338,38.7064691 25.2206338,38.5384691 25.3486338,38.3774691 C25.4036338,38.3084691 25.4676338,38.2514691 25.5376338,38.2054691 L26.8136338,36.5774691 Z M26.3266338,39.7824691 C26.1326338,40.1794691 26.0616338,40.6184691 26.1086338,41.0464691 C26.1726338,41.6274691 26.4556338,42.1834691 26.9406338,42.5744691 L26.9396338,42.5754691 C27.4236338,42.9644691 28.0246338,43.1184691 28.6026338,43.0544691 C29.1796338,42.9894691 29.7336338,42.7054691 30.1216338,42.2174691 L30.1236338,42.2184691 L31.2036338,40.8624691 C31.2336338,40.8154691 31.2686338,40.7714691 31.3066338,40.7334691 L31.6936338,40.2464691 C32.0816338,39.7594691 32.2356338,39.1534691 32.1716338,38.5704691 C32.1066338,37.9894691 31.8256338,37.4334691 31.3416338,37.0444691 C30.8586338,36.6544691 30.2566338,36.4994691 29.6766338,36.5644691 C29.2036338,36.6164691 28.7466338,36.8174691 28.3826338,37.1564691 L26.3266338,39.7824691 Z M24.1366338,30.0624691 C24.1506338,30.0414691 24.1646338,30.0224691 24.1796338,30.0024691 L24.1936338,29.9844691 C24.2096338,29.9644691 24.2256338,29.9464691 24.2426338,29.9284691 L24.2446338,29.9264691 L25.1086338,28.8364691 C25.9036338,27.8314691 25.9376338,26.7674691 25.5436338,25.9794691 C25.3966338,25.6844691 25.1916338,25.4264691 24.9466338,25.2264691 C24.7046338,25.0274691 24.4256338,24.8824691 24.1286338,24.8104691 C23.3606338,24.6264691 22.4236338,24.9204691 21.5786338,25.9874691 L15.8226338,33.2524691 L15.7876338,33.2984691 C15.4516338,33.7474691 15.2896338,34.3344691 15.3366338,34.9124691 C15.3816338,35.4714691 15.6276338,36.0164691 16.1076338,36.4014691 L16.1056338,36.4034691 L16.1076338,36.4044691 C16.1426338,36.4324691 16.0906338,36.3894691 16.1556338,36.4384691 C16.6176338,36.7884691 17.2566338,36.9424691 17.8806338,36.8734691 C18.4466338,36.8104691 18.9886338,36.5594691 19.3516338,36.1004691 L24.1366338,30.0624691 Z M51.1286338,8.06846913 C50.6956338,8.13446913 50.1086338,8.22146913 49.4116338,8.29546913 C48.6246338,8.37846913 47.7436338,8.43646913 46.9076338,8.40946913 C45.6106338,8.36646913 44.4906338,8.12446913 43.3446338,7.87646913 C43.0276338,7.80746913 42.7076338,7.73846913 42.3406338,7.66546913 C41.6076338,7.51946913 40.8546338,7.39646913 40.0186338,7.31846913 C39.1616338,7.23846913 38.1936338,7.20046913 37.0396338,7.22646913 C35.8246338,7.25246913 34.3846338,7.35246913 33.0086338,7.51746913 C31.8006338,7.66146913 30.6706338,7.85346913 29.8246338,8.08546913 C28.1496338,8.54446913 27.5196338,9.21946913 26.1686338,10.6664691 L26.1106338,10.7274691 C24.6876338,12.2524691 22.5236338,14.5704691 21.9776338,16.2944691 C21.7656338,16.9644691 21.8146338,17.5414691 22.0156338,17.9954691 C22.2486338,18.5164691 22.6846338,18.8864691 23.1536338,19.0504691 L23.1536338,19.0514691 C23.5856338,19.2014691 24.0646338,19.1714691 24.5816338,18.9954691 C25.1726338,18.7944691 25.8086338,18.4054691 26.4746338,17.8734691 C27.1736338,17.3144691 27.9046338,16.6014691 28.6126338,15.9074691 C29.3706338,15.1674691 30.1066338,14.4484691 30.8086338,13.9134691 C31.5346338,13.3594691 32.1836338,13.0334691 32.7946338,12.8224691 C33.3936338,12.6154691 33.9406338,12.5214691 34.4876338,12.4284691 C34.6636338,12.3994691 34.8506338,12.4284691 35.0166338,12.5264691 L35.0466338,12.5434691 C38.9586338,14.8234691 42.8686338,17.1034691 46.2126338,19.4184691 C47.8976338,20.5854691 49.4226338,21.7484691 50.8676338,22.9094691 C52.1346338,23.9264691 53.3446338,24.9464691 54.5486338,25.9674691 C55.4806338,25.5194691 56.3266338,24.9994691 57.1026338,24.3884691 C57.9006338,23.7594691 58.6306338,23.0304691 59.3116338,22.1764691 C58.3406338,19.4904691 57.2446338,16.9024691 55.8896338,14.4924691 C54.5856338,12.1724691 53.0386338,10.0074691 51.1286338,8.06846913 L51.1286338,8.06846913 Z"/>
</svg>
