<svg xmlns="http://www.w3.org/2000/svg" width="23" height="33" viewBox="0 0 23 33">
  <path fill="#FEFEFE" fill-rule="evenodd" d="M21.7845888,30.5629844 L20.6669015,30.5629844 L20.6649372,30.2870029 C20.6281066,28.0658443 20.1429242,25.8974179 19.2614442,24.016308 C18.4546076,22.295366 17.269643,21.1140664 16.0159279,19.8637714 C15.8131138,19.6617135 15.6088265,19.4576843 15.4045392,19.2497125 C14.5255146,18.3562223 14.0801093,17.4277415 14.0801093,16.4903899 C14.0801093,15.8088141 14.3015843,15.097176 14.7032838,14.4870596 C14.9940003,14.0454892 15.4271287,13.6817849 15.8853019,13.2968892 C16.0321334,13.1736832 16.1784738,13.0504771 16.3208856,12.9252998 C17.282902,12.0761637 18.0882654,11.1018503 18.7138953,10.0289721 C19.09055,9.38337241 19.4200615,8.68602619 19.6935904,7.95713923 C19.9700658,7.21888861 20.1920318,6.44170487 20.3516312,5.64677947 C20.5151593,4.83509804 20.6163208,3.99483281 20.6526603,3.14963934 C20.6629729,2.91259091 20.6678837,2.67504966 20.6678837,2.4375084 L21.7855709,2.4375084 C22.4563797,2.4375084 23,1.89195203 23,1.2187542 C23,0.545556369 22.4563797,0 21.7855709,0 L1.21442907,0 C0.543620292,0 0,0.545556369 0,1.2187542 C0,1.89195203 0.543620292,2.4375084 1.21442907,2.4375084 L2.42885814,2.4375084 C2.42885814,2.67504966 2.4337689,2.91259091 2.44408148,3.15013217 C2.48042104,3.99483281 2.58158254,4.83509804 2.7451106,5.64677947 C2.90520113,6.44121205 3.12618499,7.21839578 3.40315142,7.95713923 C3.67618926,8.68553337 4.00619182,9.38287959 4.38284653,10.0294649 C5.00847639,11.1023432 5.81383978,12.0766566 6.77585618,12.9252998 C6.918268,13.05097 7.06460842,13.174176 7.21143992,13.2973821 C7.66961312,13.6822777 8.10274148,14.0454892 8.39345802,14.4875525 C8.79515757,15.0981616 9.0166325,15.8093069 9.0166325,16.4908828 C9.0166325,17.4277415 8.57122726,18.3562223 7.69220258,19.2502053 C7.48791528,19.4576843 7.28362798,19.6617135 7.0808139,19.8637714 C5.82660774,21.1140664 4.64213426,22.295366 3.83529763,24.016308 C2.9533265,25.8979107 2.46814416,28.0658443 2.43180459,30.2870029 L2.42984029,30.5624916 L1.21541122,30.5624916 C0.544602443,30.5624916 0.000982150483,31.108048 0.000982150483,31.7812458 C0.000982150483,32.4544436 0.544602443,33 1.21541122,33 L21.7855709,33 C22.4563797,33 23,32.4544436 23,31.7812458 C23,31.108048 22.4553976,30.5629844 21.7845888,30.5629844 Z M3.90208387,30.5629844 L3.90404817,30.3116441 C3.93695021,28.2989501 4.37400717,26.3394812 5.16758476,24.6461373 C5.86343838,23.1607652 6.95902724,22.0691597 8.11845589,20.9129941 C8.32470749,20.7074864 8.53243232,20.5005003 8.74064822,20.2890787 C9.88485353,19.1255208 10.4893672,17.8121444 10.4893672,16.4913756 C10.4893672,15.5234689 10.181463,14.522543 9.62212828,13.6729141 C9.2130626,13.0504771 8.67582629,12.599543 8.15626868,12.1633936 C8.01876761,12.0480728 7.88175762,11.9332447 7.74818516,11.8154597 C6.90451789,11.0708024 6.19982492,10.2187094 5.65374925,9.28283628 C5.31883594,8.70820328 5.02517294,8.08724481 4.78159962,7.43671689 C4.53262448,6.77189707 4.33324793,6.07110109 4.18887181,5.3540419 C4.04056709,4.61776258 3.94873602,3.85487075 3.91583397,3.08705067 C3.90650354,2.87070086 3.90208387,2.65435104 3.90208387,2.4375084 L19.1936758,2.4375084 C19.1936758,2.65435104 19.1892561,2.87070086 19.1799257,3.08655785 C19.1470237,3.85487075 19.0551926,4.61726975 18.9068879,5.3540419 C18.7625117,6.07159391 18.5631352,6.77189707 18.313669,7.43622407 C18.0691135,8.08724481 17.7759416,8.70869611 17.4415193,9.28234345 C16.8954437,10.2182166 16.1907507,11.0708024 15.3465924,11.8154597 C15.213511,11.9327519 15.076501,12.0480728 14.9389999,12.1633936 C14.4194423,12.599543 13.8826971,13.0504771 13.4731403,13.6729141 C12.9138056,14.522543 12.6059014,15.5229761 12.6059014,16.4913756 C12.6059014,17.8121444 13.2104151,19.1255208 14.3546204,20.2890787 C14.5623452,20.5005003 14.7705611,20.7079793 14.9768127,20.913487 C16.1362414,22.0696525 17.2313391,23.161258 17.9276838,24.6466301 C18.7212614,26.3394812 19.1583184,28.2984573 19.1912204,30.3121369 L19.1931847,30.5634772 L3.90208387,30.5634772 L3.90208387,30.5629844 Z"/>
</svg>
