<svg xmlns="http://www.w3.org/2000/svg" width="36" height="40" viewBox="0 0 36 40">
  <path fill="#FFF" d="M32.322,35.842 L17.755,40 L3.2,35.842 L0,0 L35.52,0 L32.322,35.842 Z M12.014,16.204 L11.566,11.164 L28.871,11.164 L29,11.048 L29.345,7.222 L29.217,7.083 L7.211,7.083 L7.083,7.223 L8.248,20.16 L8.376,20.276 L24.046,20.276 L23.477,26.516 L18.232,27.627 L12.946,26.518 L12.701,24.213 L8.583,24.235 L9.094,29.57 L9.185,29.681 L18.168,32.381 L27.241,29.681 L27.332,29.571 L28.524,16.342 L28.396,16.203 L12.014,16.203 L12.014,16.204 Z"/>
</svg>
