<svg xmlns="http://www.w3.org/2000/svg" width="28" height="28" viewBox="0 0 28 28">
  <path fill="#FFF" d="M13.75,0 C21.3439153,0 27.5,6.15608469 27.5,13.75 C27.5,21.3439153 21.3439153,27.5 13.75,27.5 C6.15608469,27.5 0,21.3439153 0,13.75 C0,6.15608469 6.15608469,0 13.75,0 Z M13.75,1.5 C6.98451181,1.5 1.5,6.98451181 1.5,13.75 C1.5,20.5154882 6.98451181,26 13.75,26 C20.5154882,26 26,20.5154882 26,13.75 C26,6.98451181 20.5154882,1.5 13.75,1.5 Z M15,11 L15,21 L13,21 L13,11 L15,11 Z M15,7 L15,9 L13,9 L13,7 L15,7 Z"/>
</svg>
