<svg xmlns="http://www.w3.org/2000/svg" width="38" height="38" viewBox="0 0 38 38">
  <path fill="#FFF" d="M19,9.117 C24.363,9.117 28.806,13.56 28.806,18.923 C28.806,24.286 24.44,28.73 19,28.73 C13.56,28.73 9.194,24.363 9.194,18.923 C9.194,13.484 13.637,9.117 19,9.117 Z M34.935,3.141 C36.927,5.133 38,7.891 38,11.11 L38,26.892 C38,30.186 36.927,33.021 34.859,35.013 C32.867,36.927 30.109,38 26.815,38 L11.185,38 C8.044,38 5.286,37.004 3.218,35.012 C1.073,32.944 0,30.109 0,26.815 L0,11.109 C0,4.444 4.444,0 11.109,0 L26.891,0 C30.109,0 32.944,1.073 34.935,3.141 Z M19,25.206 C22.448,25.206 25.282,22.371 25.282,18.923 C25.282,15.476 22.448,12.641 19,12.641 C15.552,12.641 12.718,15.476 12.718,18.923 C12.718,22.371 15.552,25.206 19,25.206 Z M29.19,11.11 C28.3850989,11.1270783 27.6339221,10.7074376 27.2264607,10.01308 C26.8189992,9.31872227 26.8189992,8.45827773 27.2264607,7.76392004 C27.6339221,7.06956235 28.3850989,6.64992173 29.19,6.667 C30.398536,6.69264253 31.3648646,7.67969202 31.3648646,8.8885 C31.3648646,10.097308 30.398536,11.0843575 29.19,11.11 L29.19,11.11 Z M34.476,26.892 L34.629,26.892 L34.629,11.11 C34.629,8.888 33.863,6.973 32.56,5.594 C31.181,4.214 29.266,3.525 26.968,3.525 L11.185,3.525 C8.887,3.525 6.895,4.215 5.593,5.517 C4.213,6.897 3.524,8.811 3.524,11.11 L3.524,26.816 C3.524,29.191 4.214,31.106 5.593,32.486 C6.972,33.787 8.887,34.477 11.185,34.477 L26.815,34.477 C29.113,34.477 31.028,33.787 32.407,32.485 C33.786,31.182 34.476,29.267 34.476,26.892 L34.476,26.892 Z"/>
</svg>
