<svg xmlns="http://www.w3.org/2000/svg" width="28" height="28" viewBox="0 0 28 28">
  <path fill="#FFF" d="M20.624,8.795 C26.327,8.795 27.381,12.55 27.381,17.434 L27.381,27.381 L21.751,27.381 L21.751,18.563 C21.751,16.459 21.71,13.754 18.821,13.754 C15.9651842,13.754 15.4662479,15.9260076 15.4419658,18.2244067 L15.441,27.381 L9.806,27.381 L9.806,9.247 L15.214,9.247 L15.214,11.725 L15.29,11.725 C16.043,10.299 17.882,8.795 20.624,8.795 Z M6.271,9.247 L6.271,27.381 L0.633,27.381 L0.633,9.247 L6.271,9.247 Z M3.45333252,0.233999994 C5.25738622,0.234736433 6.71936723,1.69761244 6.71899939,3.50166626 C6.7186441,5.24351132 5.35518262,6.66674686 3.6373622,6.76282988 L3.453,6.76800015 C2.58601784,6.76826554 1.75448337,6.42390736 1.14152817,5.81076459 C0.528572965,5.19762182 0.184469208,4.36598204 0.184999387,3.499 C0.18610441,1.69494648 1.64927881,0.233264111 3.45333252,0.233999994 Z"/>
</svg>
