<svg xmlns="http://www.w3.org/2000/svg" width="38" height="38" viewBox="0 0 38 38">
  <path fill="#FFF" d="M32.381,32.381 L26.751,32.381 L26.751,23.563 C26.751,21.459 26.71,18.754 23.821,18.754 C20.888,18.754 20.441,21.045 20.441,23.411 L20.441,32.381 L14.806,32.381 L14.806,14.247 L20.214,14.247 L20.214,16.725 L20.29,16.725 C21.043,15.299 22.882,13.795 25.624,13.795 C31.327,13.795 32.381,17.55 32.381,22.434 L32.381,32.381 Z M5.633,32.381 L5.633,14.247 L11.271,14.247 L11.271,32.381 L5.633,32.381 Z M8.453,11.7680002 C7.58601784,11.7682655 6.75448337,11.4239074 6.14152817,10.8107646 C5.52857297,10.1976218 5.18446921,9.36598204 5.18499939,8.499 C5.18610441,6.69494648 6.64927881,5.23326411 8.45333252,5.23399999 C10.2573862,5.23473643 11.7193672,6.69761244 11.7189994,8.50166626 C11.7186314,10.3057201 10.2560539,11.7680002 8.452,11.7680002 L8.453,11.7680002 Z M35.188,0 L2.804,0 C1.257,0 -5.68434189e-14,1.227 -5.68434189e-14,2.738 L-5.68434189e-14,35.26 C-5.68434189e-14,36.773 1.257,38.002 2.805,38.002 L35.188,38.002 C36.738,38.002 38.003,36.773 38.003,35.26 L38.003,2.74 C38.003,1.226 36.737,0 35.188,0 Z"/>
</svg>
