<svg xmlns="http://www.w3.org/2000/svg" width="100" height="83" viewBox="0 0 100 83">
  <path fill="#FFF" d="M10.911,0.255837218 C10.911,0.255837218 17.019,4.99583722 19.889,6.96483722 C20.211,7.17983722 20.474,7.34983722 20.517,7.57983722 C20.487,7.60983722 20.455,7.64483722 20.299,7.84583722 C20.2430483,7.93349542 20.1909975,8.02358329 20.143,8.11583722 C20.1086234,8.19380409 20.080534,8.27439407 20.059,8.35683722 C20.047,8.40383722 20.041,8.45683722 20.011,8.68183722 C20.008,8.79483722 20.016,8.91383722 20.013,9.06783722 C20.136,9.25783722 20.259,9.44483722 20.392,9.62583722 C20.536,9.82783722 20.69,10.0228372 20.848,10.2118372 C21.035,10.4418372 21.224,10.6618372 21.428,10.8818372 C21.6,11.0658372 21.771,11.2518372 21.946,11.4338372 C22.181,11.6838372 22.43,11.9318372 22.682,12.1748372 C23.297,12.7848372 23.922,13.3848372 24.504,14.0108372 C29.004,18.8508372 33.737,23.4798372 38.352,28.2068372 C42.295,32.2468372 46.227,36.2998372 50.16,40.3508372 C56.753,33.7368372 63.352,27.1288372 69.948,20.5168372 C72.098,18.3668372 74.261,16.2188372 76.398,14.0468372 C76.951,13.4818372 77.497,12.9088372 78.04,12.3328372 C78.124,12.2428372 78.21,12.1548372 78.294,12.0638372 C78.869,11.4498372 79.439,10.8338372 80.005,10.2128372 C80.089,10.1208372 80.171,10.0268372 80.348,9.81583722 C80.439,9.70383722 80.526,9.58883722 80.681,9.34183722 C80.621,9.19283722 80.552,9.05383722 80.304,8.80183722 C80.286,8.78883722 80.268,8.77483722 80.064,8.67883722 C79.9790487,8.6542381 79.8920158,8.637501 79.804,8.62883722 C79.804,8.62883722 87.868,2.47883722 89.667,1.23883722 C91.465,-0.0111627821 90.523,1.68383722 90.523,1.68383722 C90.523,1.68383722 85.883,7.88683722 83.96,10.8008372 C83.75,11.1268372 83.584,11.3948372 83.357,11.4398372 C83.2728501,11.3621372 83.1840169,11.289668 83.091,11.2228372 C83.0037755,11.1664795 82.9136514,11.1147416 82.821,11.0678372 C82.7432337,11.0343572 82.6629945,11.0069421 82.581,10.9858372 C82.534,10.9738372 82.481,10.9698372 82.257,10.9408372 C82.145,10.9388372 82.027,10.9478372 81.874,10.9478372 C81.689,11.0738372 81.502,11.2008372 81.324,11.3358372 C81.124,11.4838372 80.934,11.6408372 80.748,11.8008372 C80.522,11.9938372 80.306,12.1838372 80.088,12.3938372 C79.908,12.5678372 79.724,12.7418372 79.547,12.9208372 C79.3,13.1598372 79.057,13.4118372 78.819,13.6688372 C78.221,14.2968372 77.631,14.9328372 77.015,15.5258372 C72.26,20.1108372 67.717,24.9268372 63.074,29.6258372 C59.153,33.5958372 55.218,37.5518372 51.286,41.5098372 C52.778,43.0478372 54.276,44.5798372 55.766,46.1168372 C59.854,50.3368372 63.946,54.5608372 67.995,58.8268372 C69.619,60.5388372 71.245,62.2418372 73.127,63.6908372 C73.46,63.9438372 73.8,64.1868372 74.147,64.4198372 C74.278,64.5068372 74.416,64.5858372 74.55,64.6698372 C74.763,64.8058372 74.975,64.9418372 75.195,65.0668372 C75.485,65.2328372 75.784,65.3848372 76.085,65.5328372 C76.193,65.5868372 76.297,65.6478372 76.408,65.6988372 C76.822,65.8928372 77.248,66.0688372 77.69,66.2288372 C78.04,66.3508372 78.25,66.8508372 78.408,67.3838372 C78.662,67.5398372 78.915,67.6878372 79.22,67.8708372 C79.448,68.0108372 79.673,68.1558372 79.882,68.3228372 C80.799,69.0668372 81.734,69.8108372 82.572,70.6498372 C83.158,71.2428372 83.496,71.5998372 83.636,71.9498372 C83.6659453,72.0316106 83.6821641,72.1177726 83.684,72.2048372 C83.687,72.3538372 83.646,72.5108372 83.548,72.7238372 C83.5015373,72.8206946 83.4508213,72.9154535 83.396,73.0078372 C83.342,73.1008372 83.278,73.2048372 83.164,73.3838372 C83.092,73.4958372 83.016,73.6138372 82.929,73.7458372 C83.018,73.7668372 83.104,73.7998372 83.189,73.8278372 C83.229,73.8408372 83.269,73.8508372 83.525,73.8668372 C83.645,73.8188372 83.76,73.7788372 84.002,73.7158372 C84.068,73.6998372 84.132,73.6818372 84.351,73.6528372 C84.4,73.6468372 84.451,73.6398372 84.661,73.6398372 C84.701,73.6408372 84.741,73.6408372 84.946,73.6678372 C84.979,73.6738372 85.013,73.6778372 85.211,73.7308372 L85.2386501,73.7399859 C85.2679796,73.7502046 85.3211429,73.7704086 85.459,73.8268372 C85.482,73.8368372 85.506,73.8468372 85.691,73.9498372 C85.711,73.9608372 85.73,73.9728372 85.909,74.0968372 C85.926,74.1088372 85.943,74.1208372 86.115,74.2638372 C86.13,74.2768372 86.146,74.2898372 86.31,74.4468372 L86.3273703,74.4635194 C86.3469184,74.4833882 86.386,74.5251229 86.496,74.6408372 L86.671,74.8418372 C86.707,74.8848372 86.744,74.9288372 86.833,75.0388372 C86.963,75.1998372 87.088,75.3648372 87.216,75.5288372 C87.262,75.5958372 87.317,75.6618372 87.364,75.7288372 C87.476,75.8708372 87.556,75.9818372 87.649,76.2758372 C87.647,76.2958372 87.634,76.3218372 87.544,76.5068372 C87.514,76.5468372 87.488,76.5868372 87.369,76.7018372 C87.2844889,76.7843217 87.1964044,76.8630639 87.105,76.9378372 C86.8414089,77.1538618 86.5740341,77.3652279 86.303,77.5718372 C87.153,78.5728372 87.993,79.5728372 88.847,80.5528372 C89.189,80.9408372 89.679,81.2338372 89.899,81.6728372 C90.073,82.0188372 89.937,82.5228372 89.936,82.9548372 C89.503,82.9408372 88.916,83.1048372 88.66,82.8828372 C87.653,82.0198372 86.738,81.0498372 85.818,80.0828372 C85.549,79.8048372 85.301,79.6008372 85.05,79.5288372 L84.617,79.5588372 L84.617,79.5578372 C84.412,79.6378372 84.219,79.8448372 84.029,80.1958372 C83.533,81.1158372 83.077,80.8478372 82.462,80.2208372 C82.2617758,80.0246252 82.0529017,79.8374393 81.836,79.6598372 C81.7238286,79.5657585 81.6104865,79.4730846 81.496,79.3818372 C81.179,79.1298372 80.859,78.8838372 80.466,78.5508372 C80.328851,78.431694 80.1954528,78.3083007 80.066,78.1808372 C79.9422658,78.0595966 79.8244617,77.9324484 79.713,77.7998372 L79.545,77.5988372 C79.479,77.5128372 79.409,77.4258372 79.341,77.3388372 C78.991,76.9048372 78.604,76.4788372 78.21,75.9648372 C78.167,75.9018372 78.124,75.8508372 78.059,75.7528372 C77.9426011,75.5885273 77.8347901,75.4182993 77.736,75.2428372 C77.636,75.0628372 77.546,74.8748372 77.457,74.6468372 C77.3781762,74.4331971 77.3169718,74.2134635 77.274,73.9898372 C77.206225,73.5849187 77.1971316,73.1723487 77.247,72.7648372 C76.999,72.9938372 76.801,73.1688372 76.556,73.3928372 C76.46,73.4788372 76.363,73.5648372 76.249,73.6688372 C76.132,73.4888372 76.009,73.3118372 75.883,73.1348372 C75.799,73.0168372 75.713,72.8998372 75.521,72.6388372 C75.236,72.2568372 74.95,71.8808372 74.568,71.3528372 C74.481,71.2298372 74.398,71.1068372 74.193,70.8018372 C74.0969274,70.6521989 74.005222,70.4998013 73.918,70.3448372 C73.862,70.2478372 73.812,70.1478372 73.761,70.0488372 C73.717,69.9618372 73.669,69.8768372 73.618,69.7618372 C73.5153578,69.5394322 73.4281515,69.3102234 73.357,69.0758372 C73.1839197,68.4991538 72.9727898,67.9345819 72.725,67.3858372 C72.611,67.1358372 72.49,66.8908372 72.336,66.5978372 C72.2,66.3428372 72.056,66.0928372 71.856,65.7608372 C70.874,64.1748372 69.618,62.7978372 68.309,61.4388372 C62.511,55.4108372 56.674,49.4118372 50.859,43.4018372 L50.144,42.6618372 C48.589,44.2268372 47.039,45.7978372 45.484,47.3598372 C41.339,51.5238372 37.19,55.6918372 32.999,59.8168372 C31.317,61.4718372 29.643,63.1268372 28.226,65.0388372 C27.978,65.3758372 27.741,65.7218372 27.514,66.0728372 C27.428,66.2068372 27.351,66.3458372 27.269,66.4818372 C27.137,66.6978372 27.005,66.9138372 26.881,67.1358372 C26.721,67.4298372 26.574,67.7328372 26.429,68.0358372 C26.377,68.1478372 26.317,68.2518372 26.267,68.3658372 C26.081,68.7838372 25.909,69.2158372 25.756,69.6618372 C25.639,70.0148372 25.145,70.2318372 24.616,70.3968372 C24.465,70.6538372 24.322,70.9108372 24.143,71.2198372 C24.006,71.4528372 23.863,71.6798372 23.701,71.8918372 C22.973,72.8238372 22.243,73.7728372 21.421,74.6268372 C20.837,75.2238372 20.487,75.5688372 20.141,75.7128372 C20.0603266,75.7435534 19.9752426,75.7611104 19.889,75.7648372 C19.74,75.7688372 19.585,75.7288372 19.372,75.6328372 C19.2746272,75.5874814 19.1795152,75.5374224 19.087,75.4828372 C18.9606233,75.4084381 18.8356029,75.3317589 18.712,75.2528372 L18.35,75.0208372 C18.33,75.1088372 18.299,75.1978372 18.271,75.2818372 C18.259,75.3238372 18.249,75.3628372 18.237,75.6218372 C18.286,75.7418372 18.327,75.8578372 18.393,76.1008372 C18.409,76.1658372 18.426,76.2318372 18.458,76.4508372 C18.464,76.4998372 18.471,76.5508372 18.474,76.7638372 C18.474,76.8038372 18.474,76.8438372 18.45,77.0508372 C18.445,77.0848372 18.44,77.1188372 18.39,77.3188372 C18.381,77.3468372 18.374,77.3748372 18.298,77.5688372 C18.288,77.5928372 18.278,77.6158372 18.178,77.8038372 C18.167,77.8238372 18.155,77.8438372 18.035,78.0248372 C18.022,78.0428372 18.01,78.0598372 17.871,78.2348372 C17.858,78.2508372 17.845,78.2668372 17.691,78.4338372 C17.6287377,78.4975771 17.5653952,78.5602529 17.501,78.6218372 C17.478,78.6428372 17.456,78.6648372 17.303,78.8018372 L17.108,78.9668372 C16.951,79.0978372 16.788,79.2268372 16.626,79.3568372 C16.56,79.4048372 16.496,79.4618372 16.431,79.5098372 C16.2735564,79.64409 16.0895444,79.7435927 15.891,79.8018372 C15.869,79.7998372 15.846,79.7878372 15.659,79.6988372 C15.627,79.6748372 15.595,79.6527572 15.5246,79.5849812 L15.464,79.5248372 C15.411,79.4708372 15.357,79.4148372 15.226,79.2608372 C15.0091444,78.9975383 14.7964514,78.7308385 14.588,78.4608372 C13.604,79.3268372 12.62,80.1848372 11.658,81.0558372 C11.277,81.4048372 10.991,81.9008372 10.557,82.1278372 C10.215,82.3048372 9.712,82.1738372 9.284,82.1778372 C9.294,81.7418372 9.124,81.1528372 9.343,80.8918372 C10.187,79.8678372 11.141,78.9348372 12.091,77.9988372 C12.363,77.7248372 12.563,77.4728372 12.632,77.2198372 L12.599,76.7828372 C12.516,76.5788372 12.309,76.3858372 11.959,76.1978372 C11.042,75.7088372 11.301,75.2478372 11.917,74.6198372 C12.07,74.4618372 12.214,74.2948372 12.468,73.9838372 C12.56,73.8698372 12.651,73.7538372 12.74,73.6368372 C12.987,73.3158372 13.227,72.9918372 13.554,72.5928372 C13.654,72.4718372 13.758,72.3528372 13.918,72.1828372 C14.037,72.0568372 14.161,71.9378372 14.29,71.8248372 L14.488,71.6528372 L14.744,71.4458372 C15.171,71.0878372 15.59,70.6928372 16.096,70.2908372 C16.157,70.2478372 16.209,70.2028372 16.305,70.1368372 C16.6404103,69.8839728 17.0075423,69.6762003 17.397,69.5188372 C17.582,69.4448372 17.777,69.3868372 18.047,69.3258372 C18.4482118,69.2531273 18.8579535,69.2399859 19.263,69.2868372 C19.033,69.0378372 18.856,68.8418372 18.632,68.5968372 C18.5397873,68.4950611 18.4474539,68.3933943 18.355,68.2918372 C18.532,68.1698372 18.706,68.0448372 18.879,67.9168372 C18.997,67.8308372 19.112,67.7428372 19.369,67.5468372 C19.745,67.2548372 20.116,66.9638372 20.635,66.5738372 C20.756,66.4838372 20.878,66.3988372 21.178,66.1898372 C21.327,66.0898372 21.476,65.9968372 21.628,65.9068372 C21.724,65.8498372 21.823,65.7988372 21.921,65.7468372 C22.006,65.7008372 22.091,65.6518372 22.203,65.5998372 C22.426,65.4948372 22.651,65.3998372 22.882,65.3288372 C23.7316957,65.0594589 24.5524206,64.7060448 25.332,64.2738372 C25.582,64.1338372 25.829,63.9858372 26.157,63.7798372 C27.722,62.7748372 29.074,61.4948372 30.409,60.1628372 C36.33,54.2568372 42.222,48.3128372 48.126,42.3888372 L49.017,41.4958372 C42.47,34.7278372 35.928,27.9548372 29.384,21.1858372 C27.271,18.9948372 25.164,16.7918372 23.029,14.6158372 C22.476,14.0528372 21.912,13.4968372 21.346,12.9448372 C21.259,12.8578372 21.17,12.7718372 21.082,12.6858372 C20.479,12.1008372 19.872,11.5208372 19.263,10.9428372 C19.173,10.8568372 19.081,10.7728372 18.873,10.5908372 C18.763,10.5008372 18.65,10.4108372 18.406,10.2508372 C18.257,10.3108372 18.119,10.3788372 17.866,10.6268372 C17.852,10.6438372 17.838,10.6618372 17.742,10.8668372 C17.7156514,10.9521874 17.6978966,11.0399567 17.689,11.1288372 C17.689,11.1288372 11.671,2.93883722 10.459,1.11483722 C9.238,-0.711162782 10.911,0.255837218 10.911,0.255837218 Z M36.407,65.3378372 C36.914,65.3538372 37.39,65.4048372 37.832,65.4898372 C38.275,65.5738372 38.676,65.6948372 39.036,65.8518372 C39.381627,65.9987084 39.6954375,66.2113117 39.96,66.4778372 L39.961,66.4778372 C40.217,66.7388372 40.416,67.0578372 40.557,67.4368372 C40.699,67.8138372 40.769,68.2638372 40.769,68.7858372 C40.718,69.2758372 40.608,69.7098372 40.437,70.0878372 C40.267,70.4668372 40.047,70.7958372 39.777,71.0808372 C39.507,71.3648372 39.188,71.6008372 38.819,71.7948372 C38.45,71.9858372 38.041,72.1358372 37.592,72.2408372 C37.3442303,72.2149005 37.0950523,72.20488 36.846,72.2108372 L36.066,72.2308372 L36.066,72.2308372 C35.806,72.2358372 35.551,72.2348372 35.306,72.2248372 C35.0734368,72.218121 34.8421984,72.1872892 34.616,72.1328372 L34.616,70.5088372 C34.6148433,69.3606961 34.6291779,68.2125916 34.659,67.0648372 C34.676,66.4968372 34.696,65.9558372 34.722,65.4408372 C34.722,65.4278372 34.725,65.4108372 34.732,65.3908372 C34.744,65.3528372 34.777,65.3338372 34.827,65.3338372 C35.3535905,65.3195604 35.8804885,65.3208943 36.407,65.3378372 Z M44.486,66.1508372 C44.754,66.4428372 45.019,66.7408372 45.278,67.0468372 L46.061,67.9768372 C46.324,68.2868372 46.591,68.5998372 46.864,68.9098372 C47.134,69.2178372 47.419,69.5148372 47.715,69.8018372 C47.715,69.5148372 47.705,69.2148372 47.685,68.8948372 C47.6650725,68.5772017 47.653735,68.2590855 47.651,67.9408372 C47.648,67.6228372 47.656,67.3108372 47.675,67.0048372 C47.695,66.6968372 47.745,66.4138372 47.825,66.1508372 C48.04,66.1508372 48.276,66.1548372 48.532,66.1638372 C48.788,66.1728372 49.021,66.2008372 49.231,66.2468372 L49.231,72.2008372 C49.151,72.2238372 49.06,72.2358372 48.954,72.2398372 C48.8473086,72.2422522 48.7405639,72.2405843 48.634,72.2348372 C48.5288864,72.229233 48.4238722,72.2218986 48.319,72.2128372 C48.2285622,72.2047147 48.1378017,72.2007106 48.047,72.2008372 C47.7228869,71.9189167 47.4134787,71.620523 47.12,71.3068372 C46.83,70.9968372 46.547,70.6848372 46.27,70.3668372 L46.271,70.3668372 C45.994,70.0468372 45.719,69.7288372 45.443,69.4068372 C45.166,69.0868372 44.877,68.7688372 44.574,68.4538372 C44.574,69.0838372 44.587,69.7188372 44.614,70.3608372 C44.639,71.0038372 44.627,71.6168372 44.574,72.2008372 L43.077,72.2008372 L43.077,66.2468372 C43.2988044,66.1529347 43.5362261,66.1013802 43.777,66.0948372 C44.026,66.0858372 44.262,66.1038372 44.486,66.1508372 Z M63.114,65.3238372 C63.493,65.3268372 63.854,65.3538372 64.197,65.4028372 C64.539,65.4528372 64.843,65.5408372 65.108,65.6688372 C65.372,65.7978372 65.588,65.9728372 65.752,66.1938372 C65.918,66.4138372 66.019,66.7038372 66.055,67.0588372 C66.0602487,67.5741856 65.926194,68.0813825 65.667,68.5268372 C65.595,68.6498372 65.522,68.7708372 65.451,68.8938372 C65.301,68.9418372 65.168,69.0058372 65.053,69.0868372 C64.9318022,69.1713084 64.7982062,69.2364196 64.657,69.2798372 C64.783,69.4498372 64.917,69.6218372 65.057,69.7988372 C65.199,69.9778372 65.339,70.1558372 65.478,70.3378372 C65.616,70.5178372 65.745,70.6978372 65.866,70.8778372 C65.986,71.0598372 66.082,71.2348372 66.154,71.4028372 L64.657,71.4028372 C64.5049265,71.2782929 64.369782,71.1344077 64.255,70.9748372 C64.1370728,70.8102745 64.0256536,70.6411442 63.921,70.4678372 L63.606,69.9478372 C63.503508,69.7799729 63.3874542,69.6207753 63.259,69.4718372 C63.1657311,69.4495924 63.0697544,69.4408366 62.974,69.4458372 C62.8867237,69.451461 62.7996706,69.4601329 62.713,69.4718372 C62.625,69.4838372 62.537,69.4918372 62.447,69.4968372 C62.3496436,69.501879 62.2520571,69.4934664 62.157,69.4718372 C62.135,69.6178372 62.121,69.7718372 62.117,69.9348372 C62.115,70.0978372 62.117,70.2648372 62.122,70.4378372 C62.128,70.6088372 62.136,70.7778372 62.144,70.9398372 C62.154,71.1038372 62.158,71.2568372 62.158,71.4028372 C61.959,71.4498372 61.728,71.4728372 61.464,71.4728372 C61.2304284,71.4759343 60.9972627,71.45245 60.769,71.4028372 L60.769,65.4158372 C61.148,65.3988372 61.539,65.3778372 61.942,65.3538372 C62.3322443,65.3312814 62.7231128,65.3212763 63.114,65.3238372 Z M52.67,65.3358372 C52.797,65.3478372 52.91,65.3658372 53.007,65.3888372 C53.299,66.0548372 53.575,66.7478372 53.837,67.4688372 C54.099,68.1868372 54.375,68.8818372 54.666,69.5458372 C54.909,68.8818372 55.168,68.2008372 55.446,67.5028372 C55.63,67.0375039 55.8068889,66.5695039 55.9766667,66.0982446 L56.226,65.388 L56.605375,65.3923372 C56.7345,65.3945872 56.866,65.3978372 57,65.4018372 C57.267,65.4108372 57.498,65.4398372 57.692,65.4858372 C57.498,65.9798372 57.298,66.4708372 57.092,66.9598372 C56.6756594,67.9445739 56.2623242,68.9305785 55.852,69.9178372 C55.644,70.4178372 55.445,70.9268372 55.25,71.4438372 C55.144983,71.4207577 55.0369428,71.4146805 54.93,71.4258372 C54.816,71.4398372 54.703,71.4498372 54.593,71.4638372 C54.484,71.4738372 54.383,71.4748372 54.293,71.4668372 C54.2079504,71.4623369 54.1300562,71.417826 54.083,71.3468372 C53.834,70.9018372 53.603,70.4308372 53.39,69.9398372 C53.177,69.4468372 52.97,68.9518372 52.77,68.4468372 C52.57,67.9448372 52.37,67.4418372 52.168,66.9418372 C51.968,66.4418372 51.758,65.9568372 51.538,65.4858372 C51.636,65.4398372 51.748,65.4018372 51.876,65.3738372 C52.1373636,65.3222408 52.4049035,65.3094366 52.67,65.3358372 Z M36.231,66.8758372 C36.178569,67.5078024 36.1528794,68.1417018 36.154,68.7758372 C36.154,69.4398372 36.18,70.0728372 36.231,70.6778372 C36.709,70.7258372 37.156,70.7058372 37.571,70.6178372 C37.9504703,70.5466647 38.3072047,70.3851053 38.611,70.1468372 C38.888,69.9198372 39.075,69.6258372 39.174,69.2668372 C39.273,68.9058372 39.243,68.4768372 39.083,67.9738372 C38.867,67.5738372 38.511,67.2798372 38.016,67.0888372 C37.521,66.8988372 36.926,66.8268372 36.231,66.8758372 Z M63.06,66.8608372 C62.841,66.8648372 62.63,66.8658372 62.424,66.8658372 C62.3721735,66.9551237 62.341074,67.0549155 62.333,67.1578372 C62.3158729,67.2958352 62.3075228,67.4347813 62.3079807,67.5738372 C62.3079807,67.7238372 62.311,67.8708372 62.316,68.0158372 C62.321,68.1628372 62.324,68.2898372 62.324,68.3978372 L62.869,68.3978372 C63.065,68.3978372 63.259,68.3908372 63.45,68.3758372 C63.642,68.3598372 63.819,68.3338372 63.982,68.2948372 C64.1286018,68.2634655 64.2671558,68.2021886 64.389,68.1148372 C64.4954336,68.0360547 64.5702551,67.9218722 64.6,67.7928372 C64.634,67.6628372 64.612,67.4968372 64.534,67.2968372 C64.4641576,67.1652066 64.3474666,67.0645739 64.207,67.0148372 C64.054,66.9548372 63.879,66.9148372 63.683,66.8928372 C63.4762204,66.8689893 63.2681348,66.8583011 63.06,66.8608372 Z M40,60.7128372 C40.851,60.7448372 44.39,60.7628372 45.255,60.7678372 C45.8735714,60.7706944 48.5395918,60.7730413 50.3226676,60.7741492 L51.9944472,60.7744247 C53.0496359,60.7692572 56.4964146,60.7194226 62.179,60.8478372 C62.375,60.8518372 62.28,61.2948372 62.291,61.5478372 C62.302,61.8018372 62.308,62.0348372 62.308,62.2498372 L40,62.2498372 L40,60.7128372 Z M29.231,26.1298372 L29.231,34.7198372 L24.012,34.7198372 L24.012,31.3298372 L17.76,31.3298372 L17.76,51.7378372 L21.185,51.7378372 L21.185,56.8698372 L8.079,56.8698372 L8.079,51.7378372 L11.5,51.7378372 L11.5,31.3298372 L5.217,31.3298372 L5.217,34.7198372 L0,34.7198372 L0,26.1298372 L29.231,26.1298372 Z M81.566,26.1298372 L81.566,31.2998372 L79.503,31.2998372 L79.503,38.2178372 L91.653,38.2178372 L91.653,31.2998372 L89.203,31.2998372 L89.203,26.1298372 L100,26.1298372 L100,31.2998372 L97.84,31.2998372 L97.84,51.7318372 L100,51.7318372 L100,56.8698372 L89.203,56.8698372 L89.203,51.7318372 L91.653,51.7318372 L91.653,43.4218372 L79.503,43.4218372 L79.503,51.7318372 L81.566,51.7318372 L81.566,56.8698372 L70.769,56.8698372 L70.769,51.7318372 L73.315,51.7318372 L73.315,31.2998372 L70.769,31.2998372 L70.769,26.1298372 L81.566,26.1298372 Z M39.231,21.5188372 C40.082,21.5498372 43.621,21.5688372 44.486,21.5738372 C45.0427143,21.5764086 47.257449,21.5781535 48.9947442,21.5790719 L51.2254472,21.5794316 C52.2806359,21.5743524 55.7274146,21.5254226 61.41,21.6538372 C61.606,21.6568372 61.51,22.0998372 61.522,22.3538372 C61.533,22.6078372 61.538,22.8408372 61.538,23.0558372 L39.231,23.0558372 L39.231,21.5188372 Z M63.046,11.5308372 C63.456,11.5448372 63.853,11.6128372 64.235,11.7318372 C64.617,11.8528372 64.935,12.0248372 65.189,12.2488372 C65.079,12.4388372 64.949,12.6188372 64.799,12.7908372 C64.649,12.9628372 64.492,13.0988372 64.329,13.1948372 C64.237,13.1498372 64.119,13.0948372 63.976,13.0318372 C63.6601825,12.8952823 63.3296635,12.7956233 62.991,12.7348372 C62.811,12.7048372 62.641,12.6968372 62.478,12.7138372 C62.321113,12.7286967 62.1689598,12.7756702 62.031,12.8518372 C61.8942971,12.9302941 61.7863478,13.0505105 61.723,13.1948372 C61.795,13.3668372 61.903,13.5088372 62.046,13.6178372 C62.19,13.7268372 62.353,13.8148372 62.536,13.8808372 C62.718,13.9468372 62.913,14.0018372 63.123,14.0478372 C63.333,14.0928372 63.537,14.1408372 63.736,14.1908372 C63.935,14.2378372 64.124,14.2958372 64.305,14.3628372 C64.4714788,14.4208086 64.6255114,14.5096997 64.759,14.6248372 C64.871,14.6708372 64.956,14.7348372 65.019,14.8138372 C65.081,14.8938372 65.138,14.9568372 65.189,15.0048372 C65.353,15.3828372 65.414,15.7298372 65.372,16.0458372 C65.3355879,16.3465023 65.2149527,16.6307577 65.024,16.8658372 C64.834,17.0998372 64.584,17.2848372 64.274,17.4218372 C63.964,17.5598372 63.62,17.6418372 63.241,17.6648372 C62.8947764,17.6875988 62.547164,17.6768825 62.203,17.6328372 C61.9084293,17.5941775 61.6181498,17.5278853 61.336,17.4348372 C61.0844692,17.3520802 60.8419121,17.2442026 60.612,17.1128372 C60.3995469,16.9910671 60.1951269,16.8557891 60,16.7078372 C60.11,16.5648372 60.243,16.4228372 60.396,16.2808372 C60.55,16.1408372 60.708,16.0028372 60.871,15.8638372 C61.0030166,15.9419054 61.1384876,16.0139787 61.277,16.0798372 C61.444,16.1598372 61.623,16.2358372 61.816,16.3088372 C62.009,16.3788372 62.209,16.4398372 62.418,16.4888372 C62.627,16.5358372 62.824,16.5578372 63.012,16.5488372 C63.1896355,16.5418739 63.3640724,16.4993697 63.525,16.4238372 C63.6879046,16.3431519 63.8189313,16.2100119 63.897,16.0458372 L63.897,15.9588372 C63.8551306,15.7855809 63.7526103,15.633042 63.608,15.5288372 C63.463547,15.4302036 63.3032116,15.3571394 63.134,15.3128372 C62.9529464,15.2665594 62.7692845,15.2311627 62.584,15.2068372 C62.4058235,15.1819866 62.2294514,15.1455765 62.056,15.0978372 C61.7108435,15.0158984 61.3826021,14.8744501 61.086,14.6798372 C60.831058,14.5135342 60.6112364,14.2988088 60.439,14.0478372 C60.257,13.6058372 60.213,13.2228372 60.307,12.8998372 C60.403,12.5738372 60.583,12.3098372 60.851,12.1018372 C61.118,11.8968372 61.449,11.7468372 61.841,11.6518372 C62.2350643,11.5555406 62.6406571,11.5148131 63.046,11.5308372 Z M47.841,11.5998372 C48.303,11.6628372 48.707,11.7818372 49.052,11.9598372 C49.397,12.1398372 49.654,12.4128372 49.824,12.7808372 C50.012,13.3468372 50.049,13.8348372 49.937,14.2478372 C49.8298072,14.6505402 49.588095,15.0044633 49.252,15.2508372 C48.91,15.5058372 48.474,15.6828372 47.943,15.7758372 C47.3598776,15.8731682 46.7657729,15.8859664 46.179,15.8138372 C46.1278851,15.9607741 46.1018552,16.1152636 46.102,16.2708372 C46.102,16.4298372 46.11,16.5868372 46.126,16.7438372 C46.143,16.9018372 46.152,17.0598372 46.156,17.2168372 C46.159,17.3748372 46.135,17.5268372 46.082,17.6758372 L44.684,17.6758372 C44.678,16.6898372 44.661,15.6758372 44.631,14.6358372 C44.6016266,13.6224574 44.6129691,12.6083066 44.665,11.5958372 C45.232,11.5728372 45.787,11.5518372 46.332,11.5338372 C46.8359593,11.5142076 47.3406789,11.5362828 47.841,11.5998372 Z M39.996,11.5278372 C40.14,11.5278372 40.28,11.5388372 40.418,11.5618372 C40.557,11.5868372 40.673,11.6218372 40.769,11.6698372 C40.7207077,12.6473761 40.7040323,13.6262207 40.719,14.6048372 C40.7342526,15.6067593 40.7182448,16.6089134 40.671,17.6098372 L39.322,17.6098372 L39.322,13.8708372 C39.161897,14.0272154 39.0227378,14.2036854 38.908,14.3958372 C38.783,14.6028372 38.656,14.8178372 38.528,15.0398372 C38.398,15.2618372 38.263,15.4798372 38.122,15.6968372 C37.982,15.9118372 37.828,16.1068372 37.66,16.2798372 C37.4693523,16.1092704 37.3001145,15.9161915 37.156,15.7048372 C37.0117058,15.4951297 36.8765787,15.27926 36.751,15.0578372 C36.625589,14.8352882 36.4969084,14.6145977 36.365,14.3958372 C36.2345544,14.1781566 36.0838885,13.973251 35.915,13.7838372 L35.915,17.6098372 C35.6839238,17.6625813 35.4467668,17.683774 35.21,17.6728372 C35.0980355,17.6676738 34.986842,17.6515977 34.878,17.6248372 C34.7963399,17.6068076 34.7206231,17.5682609 34.658,17.5128372 C34.658,17.0328372 34.653,16.5448372 34.644,16.0478372 C34.6356198,15.5505199 34.6282865,15.0531854 34.622,14.5558372 C34.6156433,14.064531 34.6139765,13.5731753 34.617,13.0818372 C34.62,12.5958372 34.634,12.1248372 34.657,11.6698372 C34.754,11.6458372 34.86,11.6328372 34.977,11.6298372 C35.2272355,11.6292256 35.4774076,11.6378982 35.727,11.6558372 C35.859,11.6658372 35.984,11.6698372 36.105,11.6698372 C36.356,12.0548372 36.607,12.4558372 36.855,12.8678372 C37.104,13.2828372 37.372,13.6828372 37.66,14.0678372 C37.804,13.9018372 37.939,13.7158372 38.063,13.5078372 C38.189,13.2998372 38.315,13.0878372 38.437,12.8678372 C38.56,12.6498372 38.684,12.4358372 38.81,12.2298372 C38.936,12.0228372 39.07,11.8358372 39.214,11.6698372 C39.309,11.6228372 39.429,11.5868372 39.569,11.5618372 C39.71,11.5388372 39.853,11.5278372 39.996,11.5278372 Z M54.19,11.5448372 C54.309,11.5588372 54.42,11.5908372 54.522,11.6378372 C54.522,12.0278372 54.518,12.4278372 54.509,12.8378372 C54.499,13.2478372 54.492,13.6548372 54.487,14.0648372 C54.4805775,14.4681369 54.4789107,14.8714983 54.482,15.2748372 C54.485,15.6718372 54.499,16.0508372 54.522,16.4128372 C54.747,16.4358372 54.993,16.4508372 55.261,16.4528372 C55.527,16.4558372 55.798,16.4568372 56.071,16.4568372 C56.344,16.4568372 56.614,16.4588372 56.881,16.4618372 C57.149,16.4638372 57.394,16.4778372 57.621,16.5018372 C57.6475553,16.5867934 57.6653151,16.6742522 57.674,16.7628372 C57.6979266,16.9788433 57.6979266,17.1968311 57.674,17.4128372 C57.663,17.5168372 57.644,17.6048372 57.62,17.6758372 L53.12,17.6758372 C53.12,17.1888372 53.116,16.6928372 53.106,16.1848372 C53.096,15.6788372 53.09,15.1698372 53.083,14.6558372 C53.0768941,14.1458609 53.0755607,13.6358385 53.079,13.1258372 C53.082,12.6208372 53.096,12.1228372 53.12,11.6378372 C53.223,11.6138372 53.336,11.5918372 53.456,11.5698372 C53.579,11.5498372 53.701,11.5368372 53.826,11.5298372 C53.95,11.5238372 54.072,11.5298372 54.19,11.5448372 Z M46.734,12.2958372 C46.5399424,12.2904296 46.3457974,12.3028147 46.154,12.3328372 L46.153,12.3328372 L46.153,13.5008372 C46.153,13.8628372 46.157,14.2218372 46.163,14.5798372 C46.453,14.6098372 46.753,14.6098372 47.063,14.5798372 C47.3443436,14.5582734 47.6191208,14.4839818 47.873,14.3608372 C48.105,14.2418372 48.275,14.0688372 48.38,13.8388372 C48.487,13.6108372 48.488,13.3018372 48.385,12.9138372 C48.327,12.7718372 48.208,12.6558372 48.028,12.5658372 C47.8353206,12.4710954 47.6303338,12.4037763 47.419,12.3658372 C47.1930172,12.3234494 46.9638854,12.3000345 46.734,12.2958372 Z"/>
</svg>
