<svg xmlns="http://www.w3.org/2000/svg" width="84" height="73" viewBox="0 0 84 73">
  <path fill="#FFF" d="M0,0 L84,0 L84,72.188 L0,72.188 L0,0 Z M35.998,18.7479978 C35.912,18.7479978 35.826,18.755 35.741,18.768 C35.6674766,18.7792663 35.5958226,18.8004597 35.528,18.831 C35.4383153,18.9333835 35.3573655,19.0431005 35.286,19.159 C35.211,19.279 35.136,19.405 35.062,19.533 C34.989,19.661 34.913,19.786 34.838,19.908 C34.763,20.029 34.682,20.138 34.596,20.235 C34.4230823,20.0094274 34.2618698,19.7751184 34.113,19.533 C33.963,19.291 33.813,19.057 33.663,18.831 C33.591,18.831 33.515,18.829 33.436,18.823 C33.2862302,18.8125708 33.1361319,18.8075675 32.986,18.808 C32.9216995,18.8088965 32.8576752,18.8166062 32.795,18.831 C32.78,19.098 32.772,19.373 32.77,19.658 C32.768,19.942 32.77,20.23 32.773,20.521 L32.786,21.394 C32.792,21.685 32.795,21.971 32.795,22.252 C32.824,22.28 32.867,22.302 32.927,22.317 C32.987,22.332 33.053,22.342 33.127,22.345 C33.2686375,22.3516002 33.4105271,22.3394959 33.549,22.309 L33.549,20.069 C33.65,20.179 33.74,20.299 33.819,20.427 C33.898,20.555 33.975,20.685 34.051,20.815 C34.126,20.945 34.207,21.071 34.294,21.194 C34.38,21.317 34.48,21.429 34.596,21.53 C34.696,21.429 34.789,21.315 34.873,21.189 C34.958,21.062 35.039,20.934 35.116,20.804 C35.194,20.674 35.27,20.548 35.345,20.427 C35.421,20.307 35.503,20.204 35.593,20.12 L35.593,22.309 L36.403,22.309 C36.431,21.717 36.441,21.13 36.431,20.549 C36.423,19.969 36.433,19.397 36.461,18.831 C36.3941188,18.8007395 36.3234938,18.779552 36.251,18.768 C36.1673409,18.7545472 36.0827337,18.7478589 35.998,18.7479978 L35.998,18.7479978 Z M40.766,21.235 C41.084,21.181 41.346,21.077 41.551,20.928 C41.756,20.778 41.893,20.583 41.962,20.34 C42.03,20.1 42.007,19.813 41.894,19.482 C41.7992059,19.273688 41.6357599,19.1042408 41.431,19.002 C41.2025579,18.891232 40.9571525,18.8195709 40.705,18.79 C40.4045148,18.7529719 40.1015305,18.7402639 39.799,18.752 C39.472,18.762 39.139,18.774 38.799,18.788 C38.768,19.366 38.761,19.958 38.779,20.568 C38.796,21.177 38.807,21.77 38.811,22.348 L39.649,22.348 C39.6803103,22.261861 39.6952335,22.1706257 39.693,22.079 C39.6910862,21.9864465 39.6850803,21.8940229 39.675,21.802 C39.6655519,21.7099705 39.660879,21.6175132 39.661,21.525 C39.661,21.434 39.677,21.343 39.707,21.257 C40.095,21.298 40.447,21.292 40.766,21.235 L40.766,21.235 Z M39.692,19.22 C39.786,19.204 39.901,19.197 40.04,19.198 C40.18,19.201 40.316,19.214 40.451,19.239 C40.587,19.264 40.708,19.303 40.817,19.356 C40.925,19.409 40.997,19.476 41.031,19.56 C41.093,19.787 41.092,19.968 41.028,20.101 C40.9648535,20.2349119 40.857495,20.3429768 40.724,20.407 C40.584,20.475 40.424,20.519 40.237,20.535 C40.0574043,20.552061 39.8765957,20.552061 39.697,20.535 C39.694,20.325 39.692,20.115 39.692,19.903 L39.692,19.22 L39.692,19.22 Z M44.706,19.515 C44.711,19.275 44.713,19.041 44.713,18.813 C44.6496319,18.784287 44.5821394,18.7657266 44.513,18.758 C44.4410452,18.7489254 44.3684276,18.7462483 44.296,18.75 C44.2216129,18.7533054 44.1474848,18.7609853 44.074,18.773 C44.001,18.786 43.934,18.799 43.872,18.813 C43.857,19.096 43.849,19.388 43.847,19.683 C43.845,19.982 43.846,20.28 43.85,20.579 C43.854,20.88 43.858,21.179 43.864,21.474 C43.869,21.772 43.872,22.062 43.872,22.347 L46.572,22.347 C46.5882363,22.2972716 46.5992949,22.2459998 46.605,22.194 C46.6196256,22.0677555 46.6196256,21.9402445 46.605,21.814 C46.5994722,21.7616449 46.5884104,21.7100232 46.572,21.66 C46.4247849,21.6452689 46.2769491,21.6375935 46.129,21.637 C45.969,21.635 45.807,21.634 45.643,21.634 C45.479,21.634 45.316,21.634 45.156,21.631 C45.0080591,21.6301177 44.8602368,21.622443 44.713,21.608 C44.6985879,21.3862775 44.6905845,21.1641848 44.689,20.942 C44.687,20.709 44.689,20.472 44.692,20.233 C44.695,19.993 44.7,19.755 44.706,19.515 L44.706,19.515 Z M50.116,21.615 C50.0187196,21.6590354 49.9137255,21.6835001 49.807,21.687 C49.687305,21.6912122 49.5675829,21.6794417 49.451,21.652 C49.328322,21.6243487 49.2074336,21.5892844 49.089,21.547 C48.9794915,21.5069091 48.8717285,21.4622024 48.766,21.413 C48.666,21.365 48.586,21.323 48.522,21.287 C48.425,21.367 48.33,21.449 48.238,21.531 C48.1518026,21.6075182 48.072189,21.6911459 48,21.781 C48.113,21.865 48.236,21.944 48.367,22.018 C48.497,22.092 48.643,22.154 48.802,22.206 C48.96,22.258 49.133,22.296 49.322,22.322 C49.51,22.347 49.717,22.354 49.945,22.341 C50.172,22.327 50.379,22.28 50.565,22.198 C50.7386065,22.1272775 50.8928653,22.0162111 51.015,21.874 C51.1288325,21.7371976 51.2010222,21.570606 51.223,21.394 C51.2442854,21.1843736 51.2061666,20.9729875 51.113,20.784 C51.0758544,20.7496575 51.0417289,20.7121863 51.011,20.672 C50.9693587,20.6224911 50.9156177,20.5845968 50.855,20.562 C50.7746991,20.4941984 50.6824546,20.4419717 50.583,20.408 C50.4713862,20.3680286 50.357524,20.3346379 50.242,20.308 C50.122,20.278 49.999,20.25 49.874,20.223 C49.7543586,20.1983382 49.636444,20.1659368 49.521,20.126 C49.416245,20.0894619 49.3175002,20.0375619 49.228,19.972 C49.1423747,19.9081126 49.0753939,19.8224877 49.034,19.724 C49.0727198,19.6392834 49.1375528,19.5691937 49.219,19.524 C49.299,19.479 49.388,19.453 49.487,19.443 C49.584,19.433 49.687,19.437 49.795,19.455 C49.9976689,19.4902665 50.1956276,19.5486475 50.385,19.629 C50.471,19.666 50.542,19.699 50.597,19.724 C50.695,19.668 50.789,19.588 50.879,19.488 C50.969,19.387 51.047,19.281 51.113,19.17 C50.9453293,19.0307709 50.7505398,18.9279275 50.541,18.868 C50.0746354,18.7252262 49.5786973,18.7090055 49.104,18.821 C48.8902555,18.8672038 48.6883665,18.9570836 48.511,19.085 C48.3539032,19.2007573 48.2390477,19.3647864 48.184,19.552 C48.128,19.741 48.154,19.965 48.264,20.223 C48.362,20.365 48.491,20.489 48.652,20.593 C48.812,20.7 49.006,20.781 49.234,20.838 C49.331,20.865 49.437,20.886 49.551,20.902 C49.665,20.917 49.774,20.937 49.881,20.964 C49.986,20.991 50.081,21.034 50.165,21.09 C50.2511871,21.1503711 50.3126326,21.2398756 50.338,21.342 L50.338,21.393 C50.2905413,21.4895812 50.2120049,21.5674133 50.115,21.614 L50.116,21.615 Z M35.538,24.597 L35.538,25.497 L48.923,25.497 C48.9227021,25.359943 48.919368,25.2229093 48.913,25.086 C48.907,24.937 48.963,24.678 48.846,24.676 C45.262,24.596 43.16,24.633 42.649,24.633 C42.139,24.633 39.211,24.631 38.692,24.629 C38.172,24.626 36.049,24.615 35.538,24.597 L35.538,24.597 Z M35.976,50.916 C35.8162825,50.7591633 35.6278499,50.6345601 35.421,50.549 C35.1887695,50.4522579 34.9466673,50.3811698 34.699,50.337 C34.434,50.287 34.149,50.257 33.844,50.248 C33.54,50.238 33.224,50.238 32.896,50.246 C32.866,50.246 32.846,50.257 32.839,50.279 C32.8353576,50.2886002 32.8333302,50.2987373 32.833,50.309 C32.8000542,50.9611861 32.7810499,51.6140018 32.776,52.267 C32.771339,52.6033132 32.769,52.9396545 32.769,53.276 L32.769,54.226 C32.896,54.256 33.034,54.275 33.183,54.28 C33.331,54.286 33.483,54.286 33.64,54.283 L34.107,54.272 C34.263,54.268 34.412,54.274 34.555,54.289 C34.825,54.228 35.07,54.14 35.292,54.029 C35.5048694,53.9215159 35.6987549,53.7799862 35.866,53.61 C36.028,53.443 36.16,53.25 36.262,53.029 C36.365,52.808 36.431,52.554 36.462,52.267 C36.462,51.961 36.419,51.698 36.334,51.477 C36.2562381,51.2665106 36.1341483,51.0751911 35.976,50.916 L35.976,50.916 Z M35.505,52.548 C35.4500885,52.7515502 35.3312528,52.9320823 35.166,53.063 C34.9827578,53.2030599 34.7689023,53.2976499 34.542,53.339 C34.2772947,53.3911133 34.0062325,53.4029133 33.738,53.374 C33.708,53.02 33.692,52.649 33.692,52.261 C33.692,51.874 33.708,51.502 33.738,51.149 C34.155,51.12 34.513,51.162 34.809,51.273 C35.106,51.385 35.32,51.557 35.449,51.791 C35.546,52.086 35.564,52.337 35.505,52.548 L35.505,52.548 Z M39.763,53.192 C39.928,53.379 40.098,53.562 40.272,53.742 C40.445,53.924 40.632,54.098 40.828,54.266 C40.876,54.266 40.93,54.267 40.991,54.273 C41.052,54.278 41.116,54.283 41.181,54.286 C41.246,54.289 41.31,54.29 41.373,54.289 C41.4287263,54.2880157 41.4841288,54.2802929 41.538,54.266 L41.538,50.78 C41.4000125,50.7517357 41.2598046,50.7356738 41.119,50.732 C40.9777168,50.7271306 40.8363663,50.7244637 40.695,50.724 C40.647,50.878 40.617,51.044 40.605,51.224 C40.593,51.404 40.589,51.586 40.591,51.772 C40.593,51.958 40.599,52.145 40.611,52.331 C40.623,52.518 40.629,52.694 40.629,52.861 C40.4520431,52.6939356 40.2819045,52.5197938 40.119,52.339 C39.9564472,52.1586737 39.7957719,51.9766639 39.637,51.793 L39.167,51.249 C39.012,51.069 38.853,50.895 38.691,50.724 C38.5511277,50.696298 38.408472,50.6852212 38.266,50.691 C38.116,50.696 37.976,50.726 37.846,50.781 L37.846,54.266 L38.744,54.266 C38.776,53.924 38.784,53.565 38.768,53.189 C38.7521592,52.81721 38.7441575,52.4451273 38.744,52.073 C38.926,52.257 39.1,52.443 39.266,52.63 C39.431,52.818 39.596,53.005 39.763,53.192 L39.763,53.192 Z M45.735,50.278 C45.589,50.695 45.433,51.107 45.267,51.516 C45.101,51.924 44.945,52.323 44.8,52.712 C44.625,52.323 44.46,51.916 44.302,51.495 C44.1496048,51.0838985 43.9835121,50.6780052 43.804,50.278 C43.7373866,50.2636407 43.6699114,50.2536196 43.602,50.248 C43.4430988,50.2324874 43.2827929,50.2398965 43.126,50.27 C43.0561135,50.2839992 42.9880201,50.3058025 42.923,50.335 C43.054,50.611 43.181,50.895 43.301,51.187 L43.661,52.068 C43.782,52.364 43.906,52.654 44.034,52.942 C44.161,53.23 44.3,53.505 44.45,53.766 C44.479,53.808 44.52,53.831 44.576,53.836 C44.635937,53.8407788 44.696184,53.8401094 44.756,53.834 L44.958,53.812 C45.0221298,53.8052967 45.0869136,53.8086709 45.15,53.822 C45.267,53.52 45.387,53.222 45.51,52.929 C45.7562091,52.3512319 46.0042103,51.7742291 46.254,51.198 C46.379,50.912 46.499,50.624 46.615,50.335 C46.4786234,50.3050072 46.3396117,50.2885938 46.2,50.286 C46.04,50.281 45.884,50.278 45.735,50.278 L45.735,50.278 Z M49.286,53.528 L49.273,53.234 C49.2698214,53.1356997 49.2691545,53.0373343 49.271,52.939 C49.2726621,52.8485487 49.2806819,52.7583263 49.295,52.669 C49.356,52.681 49.414,52.686 49.468,52.683 C49.522,52.68 49.575,52.675 49.628,52.668 C49.68,52.662 49.732,52.656 49.785,52.653 C49.8420882,52.6500881 49.8993038,52.6551366 49.955,52.668 C50.031,52.754 50.101,52.846 50.164,52.947 L50.353,53.252 C50.416,53.354 50.483,53.452 50.553,53.548 C50.623,53.644 50.704,53.728 50.794,53.798 L51.692,53.798 C51.6442116,53.6909213 51.5866336,53.588486 51.52,53.492 C51.4456355,53.3839455 51.3679313,53.2782278 51.287,53.175 C51.204,53.069 51.12,52.965 51.035,52.86 C50.9534591,52.7598927 50.8734498,52.6585476 50.795,52.556 C50.8792954,52.530627 50.959218,52.4925204 51.032,52.443 C51.1051906,52.3935638 51.1854292,52.3554674 51.27,52.33 L51.4,52.115 C51.5541647,51.8547445 51.6347015,51.5574844 51.633,51.255 C51.6207524,51.0726518 51.5577073,50.8973725 51.451,50.749 C51.3488384,50.6171691 51.2164419,50.5118693 51.065,50.442 C50.8916071,50.3626309 50.7071745,50.3100322 50.518,50.286 C50.3026083,50.2561243 50.0854524,50.2407564 49.868,50.24 C49.641,50.239 49.406,50.245 49.165,50.258 C48.923,50.272 48.689,50.284 48.462,50.294 L48.462,53.8 C48.58,53.827 48.719,53.84 48.878,53.84 C49.037,53.84 49.175,53.827 49.295,53.8 C49.295,53.714 49.292,53.625 49.286,53.529 L49.286,53.528 Z M49.4,51.314 C49.4046875,51.2536207 49.4231611,51.195121 49.454,51.143 C49.577,51.143 49.704,51.143 49.836,51.14 C49.967,51.139 50.091,51.145 50.21,51.159 C50.327,51.171 50.432,51.195 50.524,51.23 C50.614,51.265 50.681,51.32 50.721,51.395 C50.767,51.512 50.781,51.61 50.76,51.685 C50.741844,51.7612539 50.6967403,51.8283768 50.633,51.874 C50.5595962,51.925126 50.4765921,51.9608449 50.389,51.979 C50.2839662,52.0026871 50.1773535,52.0187291 50.07,52.027 C49.9538669,52.0356372 49.8374539,52.0399735 49.721,52.04 L49.394,52.04 C49.394,51.977 49.393,51.902 49.39,51.816 C49.3865651,51.7297099 49.3848981,51.6433584 49.3849956,51.557 C49.3849956,51.47 49.39,51.389 49.4,51.314 L49.4,51.314 Z M36,47.54 L36,48.44 L49.385,48.44 C49.3847021,48.302943 49.381368,48.1659093 49.375,48.029 C49.368,47.88 49.425,47.621 49.307,47.619 C45.723,47.539 43.621,47.576 43.111,47.576 C42.6,47.576 39.673,47.575 39.153,47.572 C38.633,47.569 36.511,47.558 36,47.54 L36,47.54 Z M65.522,27.295 L65.522,30.322 L66.992,30.322 L66.992,34.372 L59.702,34.372 L59.702,30.322 L60.939,30.322 L60.939,27.295 L54.462,27.295 L54.462,30.322 L55.989,30.322 L55.989,42.282 L54.462,42.282 L54.462,45.29 L60.939,45.29 L60.939,42.282 L59.702,42.282 L59.702,37.42 L66.992,37.42 L66.992,42.284 L65.522,42.284 L65.522,45.292 L72,45.292 L72,42.284 L70.704,42.284 L70.704,30.324 L72,30.324 L72,27.297 L65.522,27.297 L65.522,27.295 Z M62.77,58.573 L63.03,58.556 C63.18,58.598 63.33,58.717 63.491,58.88 C64.043,59.446 64.591,60.014 65.196,60.519 C65.35,60.649 65.702,60.553 65.962,60.561 C65.962,60.309 66.044,60.013 65.94,59.811 C65.808,59.554 65.514,59.382 65.308,59.155 C64.796,58.582 64.291,57.996 63.782,57.41 C64,57.246 64.145,57.134 64.262,57.039 C64.356,56.963 64.389,56.932 64.422,56.901 C64.492,56.833 64.508,56.811 64.526,56.787 C64.581,56.678 64.588,56.664 64.59,56.652 C64.5569763,56.5338561 64.4986248,56.4243191 64.419,56.331 C64.39,56.291 64.357,56.253 64.329,56.214 C64.253,56.118 64.177,56.022 64.099,55.927 C64.0672042,55.8882164 64.0348678,55.8498794 64.002,55.812 C63.922,55.722 63.91,55.707 63.897,55.694 L63.787,55.581 L63.669,55.473 C63.628624,55.43914 63.5872732,55.4064595 63.545,55.375 C63.5024774,55.3454457 63.4591267,55.317101 63.415,55.29 C63.303,55.23 63.289,55.224 63.275,55.218 C63.16,55.171 63.143,55.166 63.127,55.162 C63.007,55.13 62.987,55.128 62.967,55.124 C62.845,55.109 62.821,55.109 62.797,55.108 C62.67,55.108 62.64,55.112 62.61,55.116 C62.4402673,55.1377055 62.273747,55.1796713 62.114,55.241 C62.0466297,55.2418071 61.9794284,55.2340789 61.914,55.218 C61.863,55.202 61.811,55.183 61.757,55.17 C61.8522689,55.0272638 61.9456107,54.8832507 62.037,54.738 C62.0701293,54.6840678 62.1008268,54.628679 62.129,54.572 C62.1794972,54.4784331 62.2072464,54.374288 62.21,54.268 C62.2087828,54.2170557 62.1989785,54.166682 62.181,54.119 C62.098,53.914 61.895,53.705 61.544,53.358 C61.041,52.867 60.48,52.431 59.929,51.996 C59.8023278,51.8994666 59.669735,51.8109601 59.532,51.731 C59.349,51.624 59.197,51.538 59.045,51.446 C58.95,51.134 58.824,50.842 58.615,50.77 C58.3538704,50.6781174 58.0969505,50.5746822 57.845,50.46 C57.778,50.43 57.715,50.394 57.65,50.362 C57.4695018,50.2769922 57.2917458,50.1862799 57.117,50.09 C56.985,50.016 56.857,49.937 56.73,49.857 C56.65,49.808 56.567,49.762 56.488,49.711 C56.2799631,49.5745419 56.0758793,49.4321501 55.876,49.284 C54.746,48.436 53.771,47.439 52.796,46.437 C50.368,43.939 47.913,41.467 45.46,38.997 C44.565,38.097 43.667,37.2 42.772,36.3 C45.131,33.983 47.492,31.667 49.844,29.343 C52.63,26.593 55.356,23.773 58.209,21.089 C58.579,20.741 58.932,20.369 59.291,20.002 C59.434,19.852 59.581,19.704 59.728,19.564 C59.834,19.459 59.944,19.357 60.053,19.255 C60.2885311,19.0353127 60.5359005,18.8286708 60.794,18.636 C60.901,18.556 61.014,18.483 61.124,18.409 C61.217,18.409 61.287,18.404 61.354,18.405 C61.489,18.422 61.52,18.424 61.548,18.431 C61.599,18.444 61.648,18.461 61.692,18.479 C61.828,18.552 61.842,18.56 61.855,18.57 C61.975,18.66 61.996,18.68 62.015,18.697 C62.15,18.67 62.251,18.514 62.375,18.323 C63.53,16.617 66.314,12.986 66.314,12.986 C66.314,12.986 66.879,11.994 65.8,12.726 C64.721,13.451 59.882,17.052 59.882,17.052 C59.986,17.066 60.012,17.072 60.038,17.081 C60.161,17.137 60.172,17.145 60.182,17.152 C60.332,17.3 60.372,17.382 60.409,17.469 C60.3485366,17.5656575 60.2817231,17.6581943 60.209,17.746 C60.142113,17.8248955 60.0734284,17.9022491 60.003,17.978 C59.663,18.342 59.321,18.703 58.976,19.062 L58.824,19.22 C58.498,19.557 58.17,19.892 57.839,20.223 C56.557,21.494 55.259,22.751 53.969,24.011 C50.011,27.881 46.052,31.749 42.096,35.621 C39.736,33.25 37.377,30.877 35.011,28.512 C32.242,25.745 29.403,23.035 26.703,20.202 C26.353,19.835 25.978,19.484 25.609,19.127 C25.458,18.985 25.309,18.84 25.168,18.693 C25.062,18.587 24.96,18.478 24.858,18.37 C24.7371123,18.2431643 24.6203839,18.1124284 24.508,17.978 C24.3276918,17.7649342 24.1603886,17.5411953 24.007,17.308 C24.01,17.218 24.005,17.148 24.007,17.082 C24.025,16.95 24.027,16.92 24.035,16.892 C24.0481353,16.8436907 24.0651919,16.7965341 24.086,16.751 C24.161,16.62 24.17,16.606 24.179,16.593 C24.2192561,16.5385447 24.2630154,16.4867686 24.31,16.438 C24.285,16.302 24.126,16.203 23.933,16.078 C22.211,14.925 18.547,12.15 18.547,12.15 C18.547,12.15 17.543,11.584 18.275,12.653 C19.003,13.72 22.613,18.515 22.613,18.515 C22.618375,18.4627079 22.6290978,18.4111047 22.645,18.361 C22.6646298,18.3118401 22.6894362,18.2649091 22.719,18.221 C22.8093911,18.1241365 22.9204869,18.0489332 23.044,18.001 C23.19,18.095 23.257,18.147 23.324,18.201 C23.449,18.306 23.504,18.356 23.558,18.406 C23.923,18.744 24.288,19.084 24.649,19.426 L24.808,19.578 C25.148,19.901 25.485,20.227 25.818,20.556 C27.098,21.83 28.363,23.119 29.63,24.402 C33.557,28.364 37.482,32.33 41.41,36.292 L40.876,36.814 C37.333,40.282 33.798,43.762 30.246,47.219 C29.444,47.999 28.633,48.749 27.694,49.336 C27.498,49.456 27.35,49.543 27.199,49.626 C26.7302886,49.8791025 26.2379447,50.085753 25.729,50.243 C25.5899382,50.2864644 25.4539635,50.3392506 25.322,50.401 C25.254,50.432 25.204,50.461 25.152,50.487 C25.094,50.517 25.034,50.547 24.977,50.582 C24.886,50.634 24.796,50.688 24.707,50.747 C24.527,50.869 24.454,50.919 24.381,50.972 C24.069,51.2 23.847,51.371 23.621,51.542 C23.467,51.656 23.398,51.708 23.328,51.758 C23.224,51.833 23.119,51.906 23.013,51.978 L23.179,52.156 C23.314,52.3 23.419,52.414 23.557,52.56 C23.3138236,52.5325991 23.0679691,52.5403452 22.827,52.583 C22.5665639,52.6370179 22.3161962,52.7314963 22.085,52.863 C21.9813212,52.922853 21.8805412,52.9875925 21.783,53.057 C21.725,53.097 21.694,53.122 21.658,53.147 C21.354,53.383 21.103,53.614 20.846,53.824 L20.693,53.945 L20.574,54.045 C20.4963292,54.1113691 20.4219092,54.1814507 20.351,54.255 C20.255,54.355 20.193,54.425 20.132,54.495 C19.936,54.729 19.792,54.918 19.644,55.106 C19.59,55.175 19.536,55.243 19.481,55.309 C19.3763263,55.4379458 19.2662272,55.5623911 19.151,55.682 C18.781,56.049 18.625,56.319 19.175,56.606 C19.385,56.716 19.51,56.829 19.559,56.948 L19.579,57.204 C19.538,57.352 19.419,57.499 19.254,57.66 C18.684,58.208 18.112,58.754 17.606,59.353 C17.475,59.506 17.576,59.851 17.57,60.106 C17.827,60.104 18.129,60.181 18.334,60.076 C18.594,59.944 18.766,59.654 18.994,59.449 C19.572,58.939 20.162,58.437 20.753,57.931 C20.923,58.143 21.038,58.284 21.136,58.398 C21.214,58.489 21.246,58.522 21.278,58.553 C21.348,58.622 21.371,58.637 21.395,58.655 C21.507,58.707 21.521,58.715 21.535,58.715 C21.65363,58.6814391 21.763972,58.6235436 21.859,58.545 C21.897,58.516 21.936,58.483 21.975,58.455 C22.073,58.379 22.17,58.304 22.265,58.227 L22.382,58.13 L22.5,58.025 C22.5389567,57.9889906 22.5772956,57.9523186 22.615,57.915 L22.723,57.799 C22.806,57.696 22.813,57.686 22.821,57.675 C22.893,57.569 22.9,57.557 22.907,57.545 C22.967,57.435 22.973,57.422 22.979,57.408 C23.025,57.295 23.029,57.278 23.034,57.262 C23.064,57.145 23.067,57.125 23.07,57.105 C23.084,56.985 23.084,56.96 23.084,56.937 C23.083,56.813 23.078,56.782 23.074,56.754 C23.056,56.626 23.045,56.587 23.036,56.549 C23.0110326,56.453649 22.9796272,56.360101 22.942,56.269 C22.940113,56.2017533 22.9468342,56.1345414 22.962,56.069 C22.979,56.02 22.998,55.969 23.01,55.917 L23.227,56.053 C23.334,56.118 23.397,56.156 23.452,56.187 C23.52,56.226 23.572,56.252 23.623,56.275 C23.751,56.331 23.844,56.355 23.933,56.352 C23.9849292,56.3500569 24.0362266,56.3399325 24.085,56.322 C24.292,56.237 24.502,56.035 24.852,55.686 C25.346,55.186 25.784,54.631 26.22,54.085 C26.318,53.961 26.404,53.828 26.486,53.692 C26.593,53.511 26.679,53.36 26.77,53.21 C27.087,53.113 27.383,52.986 27.454,52.78 C27.545,52.518 27.648,52.265 27.76,52.02 C27.79,51.954 27.826,51.893 27.857,51.828 C27.944,51.65 28.032,51.473 28.129,51.301 C28.203,51.171 28.282,51.045 28.362,50.918 C28.41,50.838 28.457,50.757 28.508,50.678 C28.645,50.473 28.787,50.271 28.935,50.074 C29.786,48.954 30.79,47.984 31.799,47.016 C34.314,44.602 36.803,42.162 39.289,39.724 C40.224,38.81 41.154,37.89 42.087,36.974 L42.515,37.407 C46.005,40.925 49.507,44.437 52.985,47.966 C53.771,48.761 54.525,49.567 55.113,50.496 C55.233,50.69 55.32,50.836 55.402,50.986 C55.6540534,51.447614 55.8590833,51.9333876 56.014,52.436 C56.056,52.573 56.11,52.706 56.171,52.838 C56.201,52.906 56.231,52.955 56.257,53.006 C56.3366078,53.1567248 56.4233734,53.303559 56.517,53.446 C56.639,53.626 56.689,53.698 56.741,53.77 C56.97,54.078 57.141,54.299 57.313,54.522 L57.53,54.812 C57.605,54.916 57.68,55.019 57.75,55.125 L57.933,54.964 C58.081,54.833 58.199,54.73 58.348,54.596 C58.3178412,54.8344759 58.3232332,55.0761068 58.364,55.313 C58.4157079,55.5712794 58.5096334,55.8192698 58.642,56.047 C58.702,56.152 58.766,56.25 58.835,56.345 C58.875,56.402 58.9,56.432 58.925,56.469 C59.162,56.769 59.395,57.019 59.605,57.274 L59.727,57.426 L59.827,57.543 C59.894,57.621 59.965,57.695 60.039,57.766 C60.139,57.861 60.209,57.923 60.279,57.983 C60.515,58.178 60.708,58.323 60.897,58.469 C60.967,58.523 61.034,58.577 61.102,58.632 C61.285,58.783 61.384,58.869 61.477,58.961 C61.846,59.327 62.12,59.484 62.417,58.946 C62.532,58.741 62.647,58.619 62.77,58.573 L62.77,58.573 Z M29.538,32.325 L29.538,27.296 L12,27.296 L12,32.325 L15.13,32.325 L15.13,30.34 L18.9,30.34 L18.9,42.287 L16.847,42.287 L16.847,45.291 L24.711,45.291 L24.711,42.287 L22.657,42.287 L22.657,30.34 L26.408,30.34 L26.408,32.325 L29.538,32.325 Z"/>
</svg>
