<svg xmlns="http://www.w3.org/2000/svg" width="42" height="34" viewBox="0 0 42 34">
  <path fill="#FFF" d="M4.98,6.802 C5.03234231,6.28650294 4.83586464,5.77692382 4.451,5.43 L0.529,0.706 L0.529,0 L12.706,0 L22.118,20.641 L30.392,0 L42,0 L42,0.706 L38.647,3.92 C38.358486,4.14026153 38.2153482,4.50195369 38.275,4.86 L38.275,28.481 C38.2147243,28.8394003 38.3579489,29.201697 38.647,29.422 L41.922,32.637 L41.922,33.343 L25.452,33.343 L25.452,32.637 L28.843,29.344 C29.176,29.01 29.176,28.912 29.176,28.404 L29.176,9.31 L19.746,33.264 L18.47,33.264 L7.491,9.311 L7.491,25.365 C7.39916831,26.0399884 7.62303095,26.7196899 8.098,27.208 L12.51,32.559 L12.51,33.265 L0,33.265 L0,32.559 L4.412,27.209 C4.88420313,26.7198442 5.09546766,26.0351838 4.981,25.365 L4.981,6.802 L4.98,6.802 Z"/>
</svg>
