<svg xmlns="http://www.w3.org/2000/svg" width="22" height="22" viewBox="0 0 22 22">
  <path fill="#FFF" d="M21.999,17.374 C21.999,17.936 21.749,19.03 21.515,19.546 C21.187,20.312 20.312,20.812 19.609,21.202 C18.687,21.702 17.75,21.999 16.703,21.999 C15.25,21.999 13.937,21.405 12.609,20.921 C11.656,20.577 10.734,20.155 9.875,19.624 C7.219,17.983 4.016,14.78 2.375,12.124 C1.844,11.265 1.422,10.343 1.078,9.39 C0.594,8.062 0,6.749 0,5.296 C0,4.249 0.297,3.312 0.797,2.39 C1.188,1.687 1.688,0.812 2.453,0.484 C2.969,0.25 4.062,0 4.625,0 C4.734,0 4.844,0 4.953,0.047 C5.281,0.156 5.625,0.922 5.781,1.235 C6.281,2.126 6.765,3.032 7.281,3.907 C7.531,4.313 8,4.813 8,5.298 C8,6.251 5.172,7.642 5.172,8.485 C5.172,8.907 5.563,9.454 5.781,9.829 C7.359,12.673 9.328,14.642 12.172,16.22 C12.547,16.439 13.094,16.829 13.516,16.829 C14.36,16.829 15.75,14.001 16.703,14.001 C17.187,14.001 17.687,14.47 18.094,14.72 C18.969,15.236 19.875,15.72 20.766,16.22 C21.079,16.376 21.844,16.72 21.954,17.048 C22.001,17.157 22.001,17.267 22.001,17.376 L21.999,17.374 Z"/>
</svg>
