<svg xmlns="http://www.w3.org/2000/svg" width="38" height="38" viewBox="0 0 38 38">
  <path fill="#FFF" fill-rule="evenodd" d="M18.9998693,0 C12.2312802,0 5.44639684,1.21135603 2.98456099,3.62579024 C0.942020578,5.62885832 0.26114473,9.16751318 0.0316301424,11.4080252 C0.0316301424,11.4080252 0,11.6294362 0,11.7246751 C0,12.6032612 0.71233172,13.307925 1.58324983,13.307925 C1.68615671,13.307925 5.49405989,12.9991172 7.78981571,12.8091621 C7.84505954,12.8011456 7.90073905,12.7933034 7.95598288,12.7775319 C8.81104235,12.7539182 9.49993465,12.0570966 9.49993465,11.1942821 L9.50760256,8.0750098 C9.50760256,7.10920127 10.2916467,6.33326072 11.2575424,6.33326072 L26.7421091,6.33326072 C27.708179,6.33326072 28.4923103,7.10911413 28.4923103,8.0750098 L28.5000654,11.1942821 C28.5000654,12.0570966 29.1888705,12.7539182 30.0438429,12.7775319 C30.0987381,12.7933906 30.1544176,12.8011456 30.2102714,12.8091621 C32.5062015,12.99903 36.3140176,13.307925 36.4165759,13.307925 C37.2871455,13.307925 38,12.6032612 38,11.7246751 C38,11.6294362 37.9683699,11.4080252 37.9683699,11.4080252 C37.738681,9.16751318 37.0585894,5.62894546 35.0159618,3.62579024 C32.5533418,1.21135603 25.7684584,0 18.9998693,0 Z M18.9998693,20.5833805 C17.250278,20.5833805 15.8331954,22.0003761 15.8331954,23.7499673 C15.8331954,25.4995586 17.250278,26.916467 18.9998693,26.916467 C20.7494606,26.916467 22.1664561,25.4995586 22.1664561,23.7499673 C22.1664561,22.0003761 20.7494606,20.5833805 18.9998693,20.5833805 Z M16.6249074,13.4582335 L16.6249074,11.4791276 C16.6249074,10.3867114 15.7381307,9.50002178 14.6458016,9.50002178 C13.5534725,9.50002178 12.6666957,10.3867985 12.6666957,11.4791276 L12.6666957,13.4582335 L1.98668663,24.8662587 C1.25074122,25.5867811 0.791450644,26.5918877 0.791450644,27.7005111 L0.791450644,30.8751144 C0.791450644,32.6247056 2.20862044,34.041614 3.95812457,34.041614 L4.74983662,34.041614 L4.74983662,36.0209813 C4.74983662,37.1133104 5.6367005,37.9999129 6.72902961,37.9999129 C7.82135872,37.9999129 8.70813546,37.1133104 8.70813546,36.0209813 L8.70813546,34.041614 L29.2916031,34.041614 L29.2916031,36.0209813 C29.2916031,37.1133104 30.1781185,37.9999129 31.2708833,37.9999129 C32.3632124,37.9999129 33.2498148,37.1133104 33.2498148,36.0209813 L33.2498148,34.041614 L34.0415269,34.041614 C35.7911182,34.041614 37.2081137,32.6247056 37.2081137,30.8751144 L37.2081137,27.7005111 C37.2081137,26.5918006 36.7489102,25.586694 36.0128777,24.8662587 L25.3333043,13.4582335 L25.3333043,11.4791276 C25.3333043,10.3867114 24.4463533,9.50002178 23.3540242,9.50002178 C22.2616951,9.50002178 21.3750054,10.3867985 21.3750054,11.4791276 L21.3750054,13.4582335 L16.6249074,13.4582335 Z M18.9998693,17.4167066 C22.4990518,17.4167066 25.3333043,20.2508719 25.3333043,23.7499673 C25.3333043,27.2491499 22.499139,30.0834895 18.9998693,30.0834895 C15.5006868,30.0834895 12.6666086,27.249237 12.6666086,23.7499673 C12.6666086,20.2507848 15.5006868,17.4167066 18.9998693,17.4167066 Z"/>
</svg>
