<svg xmlns="http://www.w3.org/2000/svg" width="14" height="43" viewBox="0 0 14 43">
  <path fill="#FFF" d="M8.58832117,0.3 C10.9990073,0.3 12.9718677,2.13715095 13.0110839,4.40062394 L13.0116788,4.46934307 L13.0116788,18.3175182 C13.0116788,18.8782349 12.5274235,19.3454988 11.9354272,19.3595296 L11.9080292,19.359854 L11.0846715,19.3597664 L11.0846715,23.3364088 L11.0934307,23.3364964 L11.0934307,20.0518248 L11.9430657,20.0518248 C12.5389329,20.0518248 13.0326305,20.5882147 13.0464193,21.2496784 L13.0467153,21.2781022 L13.0467153,24.019708 L13.0291971,24.019708 L13.0291971,37.5087591 C13.0291971,38.02714 12.9573686,38.529559 12.8213299,39.0007798 L12.8014599,39.0678832 C12.8750365,38.7735766 12.9180925,38.4640097 12.9235062,38.146304 L12.9240876,38.0781022 L12.9240876,30.3175182 L12.9153285,30.3175182 L12.9153285,38.0781022 C12.9153285,38.419708 12.8715328,38.7525547 12.7927007,39.0678832 C12.5386861,39.9087591 12.0744526,40.6532847 11.4788321,41.2226277 C10.7297043,41.8770382 9.74356433,42.2859718 8.66187343,42.3 L8.60583942,42.3 L5.04087591,42.3 C3.93722628,42.3 2.92992701,41.8970803 2.16788321,41.2226277 C1.57226277,40.6620438 1.1080292,39.9175182 0.854014599,39.0766423 C0.835809635,39.0017997 0.819473175,38.92649 0.805113094,38.8507131 C0.698407063,38.4508518 0.641903357,38.0295115 0.635625087,37.5911502 L0.635036496,37.5087591 L0.635036496,24.019708 L0.626277372,24.019708 L0.626277372,21.2781022 C0.626277372,20.613149 1.11158254,20.0673935 1.7044535,20.052152 L1.72992701,20.0518248 L2.64087591,20.0518248 L2.64087591,22.6108029 L2.64963504,22.6094891 L2.64963504,19.2373607 L1.72992701,19.2373607 C1.18686131,19.2373607 0.745594783,18.8300339 0.731723148,18.3245349 L0.731386861,18.3 L0.731386861,4.45182482 C0.731386861,3.41245162 1.14729239,2.46341084 1.8299376,1.74427287 L1.90027286,1.67193817 C1.18253312,2.38837533 0.737157036,3.3500879 0.722976782,4.40845579 L0.722627737,4.46058394 L0.722627737,18.3087591 C0.722627737,18.8173445 1.15527418,19.2326139 1.69497132,19.2456689 L1.72116788,19.2459854 L1.72116788,19.2547445 L2.62335766,19.2547445 L2.62335766,19.359854 L1.70364964,19.359854 C1.10842734,19.359854 0.615153526,18.9010858 0.600342479,18.3433298 L0.6,18.3175182 L0.6,4.46934307 C0.6,2.19740146 2.54875358,0.337531095 4.95044213,0.300560882 L5.02335766,0.3 L8.58832117,0.3 Z M4.50656934,37.850365 L2.13284672,37.850365 C1.93714286,37.850365 1.78276776,38.0322115 1.77410609,38.2513721 L1.77372263,38.2708029 L1.77372263,38.7788321 C1.77372263,39.0000626 1.93077194,39.18823 2.11639713,39.1988018 L2.13284672,39.1992701 L4.50656934,39.1992701 C4.7022732,39.1992701 4.85664829,39.0174235 4.86530997,38.798263 L4.86569343,38.7788321 L4.86569343,38.2708029 C4.86569343,38.0495725 4.70864412,37.861405 4.52301893,37.8508332 L4.50656934,37.850365 Z M8.0189781,37.850365 L5.64525547,37.850365 C5.44955162,37.850365 5.29517652,38.0322115 5.28651485,38.2513721 L5.28613139,38.2708029 L5.28613139,38.7788321 C5.28613139,39.0000626 5.44318069,39.18823 5.62880589,39.1988018 L5.64525547,39.1992701 L8.0189781,39.1992701 C8.21468196,39.1992701 8.36905705,39.0174235 8.37771873,38.798263 L8.37810219,38.7788321 L8.37810219,38.2708029 C8.37810219,38.0495725 8.22105288,37.861405 8.03542769,37.8508332 L8.0189781,37.850365 Z M11.5138686,37.850365 L9.14014599,37.850365 C8.94444213,37.850365 8.79006703,38.0322115 8.78140536,38.2513721 L8.7810219,38.2708029 L8.7810219,38.7788321 C8.7810219,39.0000626 8.93807121,39.18823 9.1236964,39.1988018 L9.14014599,39.1992701 L11.5138686,39.1992701 C11.7095725,39.1992701 11.8639476,39.0174235 11.8726092,38.798263 L11.8729927,38.7788321 L11.8729927,38.2708029 C11.8729927,38.0495725 11.7159434,37.861405 11.5303182,37.8508332 L11.5138686,37.850365 Z M11.5138686,35.7569343 L9.14014599,35.7569343 C8.94444213,35.7569343 8.79006703,35.9387809 8.78140536,36.1579414 L8.7810219,36.1773723 L8.7810219,36.6854015 C8.7810219,36.9066319 8.93807121,37.0947993 9.1236964,37.1053712 L9.14014599,37.1058394 L11.5138686,37.1058394 C11.7095725,37.1058394 11.8639476,36.9239928 11.8726092,36.7048323 L11.8729927,36.6854015 L11.8729927,36.1773723 C11.8729927,35.9561418 11.7159434,35.7679744 11.5303182,35.7574025 L11.5138686,35.7569343 Z M8.0189781,35.7569343 L5.64525547,35.7569343 C5.44955162,35.7569343 5.29517652,35.9387809 5.28651485,36.1579414 L5.28613139,36.1773723 L5.28613139,36.6854015 C5.28613139,36.9066319 5.44318069,37.0947993 5.62880589,37.1053712 L5.64525547,37.1058394 L8.0189781,37.1058394 C8.21468196,37.1058394 8.36905705,36.9239928 8.37771873,36.7048323 L8.37810219,36.6854015 L8.37810219,36.1773723 C8.37810219,35.9561418 8.22105288,35.7679744 8.03542769,35.7574025 L8.0189781,35.7569343 Z M4.50656934,35.7569343 L2.13284672,35.7569343 C1.93714286,35.7569343 1.78276776,35.9387809 1.77410609,36.1579414 L1.77372263,36.1773723 L1.77372263,36.6854015 C1.77372263,36.9066319 1.93077194,37.0947993 2.11639713,37.1053712 L2.13284672,37.1058394 L4.50656934,37.1058394 C4.7022732,37.1058394 4.85664829,36.9239928 4.86530997,36.7048323 L4.86569343,36.6854015 L4.86569343,36.1773723 C4.86569343,35.9561418 4.70864412,35.7679744 4.52301893,35.7574025 L4.50656934,35.7569343 Z M11.5138686,33.6985401 L9.14014599,33.6985401 C8.94444213,33.6985401 8.79006703,33.8803867 8.78140536,34.0995472 L8.7810219,34.1189781 L8.7810219,34.6270073 C8.7810219,34.8567466 8.93807121,35.0368914 9.1236964,35.0469979 L9.14014599,35.0474453 L11.5138686,35.0474453 C11.7095725,35.0474453 11.8639476,34.8655987 11.8726092,34.6464382 L11.8729927,34.6270073 L11.8729927,34.1189781 C11.8729927,33.8977477 11.7159434,33.7095802 11.5303182,33.6990084 L11.5138686,33.6985401 Z M8.0189781,33.6985401 L5.64525547,33.6985401 C5.44955162,33.6985401 5.29517652,33.8803867 5.28651485,34.0995472 L5.28613139,34.1189781 L5.28613139,34.6270073 C5.28613139,34.8567466 5.44318069,35.0368914 5.62880589,35.0469979 L5.64525547,35.0474453 L8.0189781,35.0474453 C8.21468196,35.0474453 8.36905705,34.8655987 8.37771873,34.6464382 L8.37810219,34.6270073 L8.37810219,34.1189781 C8.37810219,33.8977477 8.22105288,33.7095802 8.03542769,33.6990084 L8.0189781,33.6985401 Z M4.50656934,33.6985401 L2.13284672,33.6985401 C1.93714286,33.6985401 1.78276776,33.8803867 1.77410609,34.0995472 L1.77372263,34.1189781 L1.77372263,34.6270073 C1.77372263,34.8567466 1.93077194,35.0368914 2.11639713,35.0469979 L2.13284672,35.0474453 L4.50656934,35.0474453 C4.7022732,35.0474453 4.85664829,34.8655987 4.86530997,34.6464382 L4.86569343,34.6270073 L4.86569343,34.1189781 C4.86569343,33.8977477 4.70864412,33.7095802 4.52301893,33.6990084 L4.50656934,33.6985401 Z M4.50656934,31.640146 L2.13284672,31.640146 C1.93714286,31.640146 1.78276776,31.8219926 1.77410609,32.0411531 L1.77372263,32.0605839 L1.77372263,32.5686131 C1.77372263,32.7898436 1.93077194,32.978011 2.11639713,32.9885829 L2.13284672,32.9890511 L4.50656934,32.9890511 C4.7022732,32.9890511 4.85664829,32.8072045 4.86530997,32.588044 L4.86569343,32.5686131 L4.86569343,32.0605839 C4.86569343,31.8393535 4.70864412,31.6511861 4.52301893,31.6406142 L4.50656934,31.640146 Z M11.5138686,31.640146 L9.14014599,31.640146 C8.94444213,31.640146 8.79006703,31.8219926 8.78140536,32.0411531 L8.7810219,32.0605839 L8.7810219,32.5686131 C8.7810219,32.7898436 8.93807121,32.978011 9.1236964,32.9885829 L9.14014599,32.9890511 L11.5138686,32.9890511 C11.7095725,32.9890511 11.8639476,32.8072045 11.8726092,32.588044 L11.8729927,32.5686131 L11.8729927,32.0605839 C11.8729927,31.8393535 11.7159434,31.6511861 11.5303182,31.6406142 L11.5138686,31.640146 Z M8.0189781,31.640146 L5.64525547,31.640146 C5.44955162,31.640146 5.29517652,31.8219926 5.28651485,32.0411531 L5.28613139,32.0605839 L5.28613139,32.5686131 C5.28613139,32.7898436 5.44318069,32.978011 5.62880589,32.9885829 L5.64525547,32.9890511 L8.0189781,32.9890511 C8.21468196,32.9890511 8.36905705,32.8072045 8.37771873,32.588044 L8.37810219,32.5686131 L8.37810219,32.0605839 C8.37810219,31.8393535 8.22105288,31.6511861 8.03542769,31.6406142 L8.0189781,31.640146 Z M4.33138686,28.679562 L1.2919708,28.679562 C1.27664234,28.679562 1.26131387,28.6929745 1.25772126,28.7080634 L1.25693431,28.7145985 L1.25693431,30.5627737 C1.25693431,30.5781022 1.27034672,30.5934307 1.28543568,30.5970233 L1.2919708,30.5978102 L4.33138686,30.5978102 C4.34671533,30.5978102 4.3620438,30.5843978 4.36563641,30.5693089 L4.36642336,30.5627737 L4.36642336,28.7145985 C4.36642336,28.6992701 4.35301095,28.6839416 4.33792199,28.680349 L4.33138686,28.679562 Z M12.4948905,28.679562 L9.45547445,28.679562 C9.44014599,28.679562 9.42481752,28.6929745 9.42122491,28.7080634 L9.42043796,28.7145985 L9.42043796,30.5627737 C9.42043796,30.5781022 9.43385036,30.5934307 9.44893932,30.5970233 L9.45547445,30.5978102 L12.4948905,30.5978102 C12.510219,30.5978102 12.5255474,30.5843978 12.5291401,30.5693089 L12.529927,30.5627737 L12.529927,28.7145985 C12.529927,28.6992701 12.5165146,28.6839416 12.5014256,28.680349 L12.4948905,28.679562 Z M7.43211679,26.6474453 L6.17080292,26.6474453 C5.65387101,26.6474453 5.23015632,27.0372628 5.21640296,27.5251598 L5.21605839,27.549635 L5.21605839,29.0474453 C5.21605839,29.5385306 5.63129878,29.9363987 6.14503547,29.9493115 L6.17080292,29.949635 L7.43211679,29.949635 C7.9490487,29.949635 8.37276338,29.5598175 8.38651675,29.0719205 L8.38686131,29.0474453 L8.38686131,27.549635 C8.38686131,27.0585497 7.97162092,26.6606816 7.45788424,26.6477688 L7.43211679,26.6474453 Z M7.3620438,26.7963504 C7.83548955,26.7963504 8.22433842,27.1516573 8.2459201,27.6045424 L8.24671533,27.6284672 L8.24671533,28.9686131 C8.24671533,29.4163677 7.85733817,29.7879397 7.38647013,29.8004068 L7.3620438,29.8007299 L6.24087591,29.8007299 C5.75867871,29.8007299 5.36959343,29.4367469 5.35654263,28.9917035 L5.35620438,28.9686131 L5.35620438,27.6284672 C5.35620438,27.1807126 5.74558154,26.8091405 6.21644957,26.7966735 L6.24087591,26.7963504 L7.3620438,26.7963504 Z M3.35036496,29.5467153 C3.41167883,29.5467153 3.46423358,29.5817518 3.46423358,29.6255474 C3.46423358,29.6664234 3.41845255,29.6996691 3.36249797,29.7039202 L3.35036496,29.7043796 L2.08029197,29.7043796 C2.0189781,29.7043796 1.96642336,29.6693431 1.96642336,29.6255474 C1.96642336,29.5846715 2.01220438,29.5514258 2.06815896,29.5471747 L2.08029197,29.5467153 L3.35036496,29.5467153 Z M11.6890511,29.5467153 C11.750365,29.5467153 11.8029197,29.5817518 11.8029197,29.6255474 C11.8029197,29.6664234 11.7571387,29.6996691 11.7011841,29.7039202 L11.6890511,29.7043796 L10.4189781,29.7043796 C10.3576642,29.7043796 10.3051095,29.6693431 10.3051095,29.6255474 C10.3051095,29.5846715 10.3508905,29.5514258 10.4068451,29.5471747 L10.4189781,29.5467153 L11.6890511,29.5467153 Z M7.30948905,27.2343066 L6.29343066,27.2343066 C6.02836288,27.2343066 5.80503004,27.4429813 5.79454541,27.6892174 L5.79416058,27.7072993 L5.79416058,28.8547445 C5.79416058,29.1112617 6.01118228,29.317697 6.27411242,29.3273818 L6.29343066,29.3277372 L7.30948905,29.3277372 C7.57455683,29.3277372 7.79788967,29.1190625 7.8083743,28.8728264 L7.80875912,28.8547445 L7.80875912,27.7072993 C7.80875912,27.4507821 7.59173742,27.2443468 7.32880729,27.234662 L7.30948905,27.2343066 Z M4.33138686,25.5525547 L1.2919708,25.5525547 C1.27664234,25.5525547 1.26131387,25.5659672 1.25772126,25.5810561 L1.25693431,25.5875912 L1.25693431,27.4357664 C1.25693431,27.4510949 1.27034672,27.4664234 1.28543568,27.470016 L1.2919708,27.4708029 L4.33138686,27.4708029 C4.34671533,27.4708029 4.3620438,27.4573905 4.36563641,27.4423016 L4.36642336,27.4357664 L4.36642336,25.5875912 C4.36642336,25.5722628 4.35301095,25.5569343 4.33792199,25.5533417 L4.33138686,25.5525547 Z M12.4948905,25.5525547 L9.45547445,25.5525547 C9.44014599,25.5525547 9.42481752,25.5659672 9.42122491,25.5810561 L9.42043796,25.5875912 L9.42043796,27.4357664 C9.42043796,27.4510949 9.43385036,27.4664234 9.44893932,27.470016 L9.45547445,27.4708029 L12.4948905,27.4708029 C12.510219,27.4708029 12.5255474,27.4573905 12.5291401,27.4423016 L12.529927,27.4357664 L12.529927,25.5875912 C12.529927,25.5722628 12.5165146,25.5569343 12.5014256,25.5533417 L12.4948905,25.5525547 Z M11.6890511,26.4109489 C11.750365,26.4109489 11.8029197,26.4459854 11.8029197,26.489781 C11.8029197,26.5306569 11.7571387,26.5639027 11.7011841,26.5681538 L11.6890511,26.5686131 L10.4189781,26.5686131 C10.3576642,26.5686131 10.3051095,26.5335766 10.3051095,26.489781 C10.3051095,26.4489051 10.3508905,26.4156594 10.4068451,26.4114083 L10.4189781,26.4109489 L11.6890511,26.4109489 Z M3.35036496,26.4109489 C3.41167883,26.4109489 3.46423358,26.4459854 3.46423358,26.489781 C3.46423358,26.5306569 3.41845255,26.5639027 3.36249797,26.5681538 L3.35036496,26.5686131 L2.08029197,26.5686131 C2.0189781,26.5686131 1.96642336,26.5335766 1.96642336,26.489781 C1.96642336,26.4489051 2.01220438,26.4156594 2.06815896,26.4114083 L2.08029197,26.4109489 L3.35036496,26.4109489 Z M8.83357664,2.07810219 L4.80437956,2.07810219 C2.82727007,2.07810219 1.21072292,3.5031819 1.17858969,5.2484753 L1.17810219,5.30145985 L1.17810219,14.9277372 C1.17810219,16.6793869 2.77487825,18.1219831 4.74457878,18.1506598 L4.80437956,18.1510949 L8.83357664,18.1510949 C10.8106861,18.1510949 12.4272333,16.7260152 12.4593665,14.9807218 L12.459854,14.9277372 L12.459854,5.30145985 C12.459854,3.54981022 10.863078,2.10721401 8.89337742,2.07853726 L8.83357664,2.07810219 Z M7.42640332,1.2547968 L6.21155289,1.2547968 L6.12321772,1.25559309 C5.68755041,1.26191914 5.34744526,1.30281022 5.34744526,1.35109489 C5.34744526,1.40364964 5.75036496,1.44744526 6.24087591,1.44744526 L7.42640332,1.44739298 L7.51473848,1.44659669 C7.95040579,1.44027064 8.29051095,1.39937956 8.29051095,1.35109489 C8.29051095,1.30064234 7.91918015,1.25826219 7.45550099,1.2549525 L7.42640332,1.2547968 Z"/>
</svg>
