<svg xmlns="http://www.w3.org/2000/svg" width="28" height="28" viewBox="0 0 28 28">
  <path fill="#FFF" d="M27.5641126,0.17586654 C27.8921126,0.40986654 28.0481126,0.78486654 27.9861126,1.17586654 L23.9861126,25.1758665 C23.9391126,25.4728665 23.7521126,25.7228665 23.4861126,25.8788665 C23.3451126,25.9568665 23.1731126,26.0038665 23.0021126,26.0038665 C22.8771126,26.0038665 22.7521126,25.9728665 22.6271126,25.9258665 L14.3931126,22.5668665 L9.73711256,27.6758665 C9.55011256,27.8948665 9.28411256,28.0038665 9.00311256,28.0038665 C8.87811256,28.0038665 8.75311256,27.9878665 8.64411256,27.9408665 C8.25311256,27.7848665 8.00311256,27.4098665 8.00311256,27.0028665 L8.00311256,19.9398665 L0.628112564,16.9238665 C0.269112564,16.7828665 0.034112564,16.4548665 0.00311256396,16.0648665 C-0.027887436,15.6898665 0.175112564,15.3308665 0.503112564,15.1428665 L26.5031126,0.14286654 C26.8311126,-0.0601334598 27.2531126,-0.0441334598 27.5651126,0.17386654 L27.5641126,0.17586654 Z M22.2201126,23.5978665 L25.6731126,2.92586654 L3.26711256,15.8478665 L8.51711256,17.9888665 L22.0011126,8.00486654 L14.5321126,20.4578665 L22.2201126,23.5978665 Z"/>
</svg>
