<svg xmlns="http://www.w3.org/2000/svg" width="30" height="24" viewBox="0 0 30 24">
  <path fill="#FFF" d="M29.1738697,0.0568390733 C28.613043,0.255647626 0.935268176,10.0859912 0.389114287,10.2798706 C-0.073893786,10.4441752 -0.176603323,10.8467214 0.372811186,11.0668896 C1.02656554,11.3314199 6.56146839,13.5659623 6.56146839,13.5659623 L6.56146839,13.5659623 L10.2296662,15.0463467 C10.2296662,15.0463467 27.8989672,1.97098753 28.1369925,1.79353858 C28.3782784,1.61608962 28.6554311,1.94962793 28.4809879,2.14022126 C28.3065447,2.33081458 15.648817,16.1274709 15.648817,16.1274709 L15.648817,16.130757 L14.9119168,16.9572091 L15.8884726,17.4862698 C15.8884726,17.4862698 23.4694146,21.6004567 24.0106776,21.8929189 C24.4850978,22.1492341 25.0997247,21.9372811 25.2366708,21.3441416 C25.3980715,20.644204 29.8749031,1.19875596 29.974352,0.76499185 C30.1031465,0.201427111 29.7330661,-0.141969479 29.1738697,0.0568390733 L29.1738697,0.0568390733 Z M10,23.613171 C10,24.0134761 10.2184848,24.1257568 10.5202766,23.8426142 C10.9148067,23.4699724 15,19.6752099 15,19.6752099 L10,17 L10,23.613171 L10,23.613171 Z"/>
</svg>
