<svg xmlns="http://www.w3.org/2000/svg" width="42" height="32" viewBox="0 0 42 32">
  <path fill="#FFF" d="M29.6981567,23.7900826 C29.5651567,23.6950826 29.5871567,23.3890826 30.0251567,22.4340826 C30.1971567,22.0590826 30.5901567,21.4280826 31.2721567,20.8250826 C31.3511567,21.0730826 31.4001567,21.3110826 31.3981567,21.5320826 C31.3891567,23.0100826 30.3351567,23.5610826 29.6981567,23.7900826 L29.6981567,23.7900826 Z M24.0881567,25.0690826 C23.9091567,25.1630826 23.7451567,25.2210826 23.6691567,25.1760826 C23.6131567,25.1430826 23.7431567,25.0200826 23.7431567,25.0200826 C23.7431567,25.0200826 24.6541567,24.0400826 25.0131567,23.5930826 C25.2211567,23.3340826 25.4631567,23.0260826 25.7271567,22.6810826 L25.7301567,22.7840826 C25.7281567,23.9580826 24.5941567,24.7500826 24.0881567,25.0690826 L24.0881567,25.0690826 Z M16.8051567,21.5940826 C16.3841567,22.6220826 15.5021567,25.2500826 14.9651567,25.1090826 C14.5041567,24.9880826 14.2241567,22.9900826 14.8731567,21.0240826 C15.2001567,20.0340826 15.8981567,18.8520826 16.3091567,18.3920826 C16.9691567,17.6540826 17.6961567,17.4120826 17.8731567,17.7120826 C18.0981567,18.0930826 17.0701567,20.9500826 16.8051567,21.5940826 Z M7.99115669,27.5870826 C6.78115669,28.9070826 5.09115669,29.4050826 4.36615669,28.9850826 C3.58315669,28.5310826 3.89315669,26.5880826 5.37815669,25.1870826 C6.28315669,24.3340826 7.45115669,23.5480826 8.22615669,23.0630826 L8.97615669,22.6130826 L9.05815669,22.5660826 L9.05815669,22.5640826 L9.24515669,22.4520826 C9.78515669,24.4460826 9.26115669,26.2010826 7.99115669,27.5870826 L7.99115669,27.5870826 Z M36.1471567,18.0940826 C34.8275071,18.0951574 33.5256062,18.3982274 32.3411567,18.9800826 C31.9521567,18.2020826 31.5571567,17.5180826 31.4911567,17.0090826 C31.4141567,16.4150826 31.3241567,16.0600826 31.4171567,15.3530826 C31.5111567,14.6450826 31.9201567,13.6430826 31.9141567,13.5680826 C31.9081567,13.4930826 31.8221567,13.1320826 30.9761567,13.1260826 C30.1291567,13.1200826 29.4051567,13.2890826 29.3201567,13.5120826 C29.1706602,13.9195344 29.0536285,14.3381734 28.9701567,14.7640826 C28.8221567,15.5310826 27.2791567,18.2690826 26.4041567,19.7020826 C26.1171567,19.1430826 25.8741567,18.6500826 25.8231567,18.2600826 C25.7461567,17.6660826 25.6561567,17.3120826 25.7501567,16.6040826 C25.8431567,15.8960826 26.2521567,14.8940826 26.2461567,14.8190826 C26.2411567,14.7440826 26.1551567,14.3830826 25.3081567,14.3770826 C24.4611567,14.3710826 23.7371567,14.5400826 23.6521567,14.7640826 C23.5671567,14.9870826 23.4761567,15.5100826 23.3021567,16.0150826 C23.1291567,16.5200826 21.0791567,21.0880826 20.5421567,22.2720826 C20.3256453,22.7495524 20.0989266,23.2223276 19.8621567,23.6900826 L19.8611567,23.6890826 L19.8331567,23.7480826 C19.6891567,24.0300826 19.6031567,24.1850826 19.6031567,24.1850826 L19.6061567,24.1910826 C19.4921567,24.3980826 19.3691567,24.5900826 19.3091567,24.5900826 C19.2671567,24.5900826 19.1821567,24.0400826 19.3271567,23.2840826 C19.6321567,21.6990826 20.3651567,19.2280826 20.3581567,19.1430826 C20.3541567,19.1000826 20.4941567,18.6690826 19.8791567,18.4440826 C19.2821567,18.2250826 19.0691567,18.5900826 19.0151567,18.5910826 C18.9621567,18.5920826 18.9221567,18.7200826 18.9221567,18.7200826 C18.9221567,18.7200826 19.5881567,15.9410826 17.6531567,15.9410826 C16.4431567,15.9410826 14.7661567,17.2650826 13.9401567,18.4650826 C13.4191567,18.7490826 12.3041567,19.3580826 11.1201567,20.0080826 L9.76215669,20.7550826 L9.67215669,20.6560826 C7.32515669,18.1530826 2.98715669,16.3820826 3.17115669,13.0160826 C3.23715669,11.7920826 3.66315669,8.57008255 11.5071567,4.66108255 C17.9321567,1.45908255 23.0761567,2.34108255 23.9651567,4.29308255 C25.2351567,7.08308255 21.2161567,12.2680826 14.5431567,13.0160826 C12.0001567,13.3010826 10.6621567,12.3150826 10.3291567,11.9480826 C9.97915669,11.5620826 9.92615669,11.5450826 9.79515669,11.6170826 C9.58215669,11.7350826 9.71715669,12.0760826 9.79515669,12.2790826 C9.99515669,12.7980826 10.8121567,13.7170826 12.2061567,14.1750826 C13.4321567,14.5770826 16.4171567,14.7980826 20.0271567,13.4020826 C24.0701567,11.8380826 27.2271567,7.48808255 26.2991567,3.85208255 C25.3561567,0.153082551 19.2241567,-1.06291745 13.4201567,0.999082551 C9.96615669,2.22608255 6.22715669,4.15208255 3.53915669,6.66708255 C0.341156687,9.65708255 -0.168843313,12.2590826 0.0411566868,13.3470826 C0.788156687,17.2100826 6.11315669,19.7270826 8.24515669,21.5910826 L7.95215669,21.7530826 C6.88215669,22.2820826 2.82315669,24.4070826 1.80815669,26.6510826 C0.656156687,29.1970826 1.99115669,31.0240826 2.87515669,31.2700826 C5.61415669,32.0320826 8.42515669,30.6620826 9.93515669,28.4090826 C11.4441567,26.1560826 11.2601567,23.2240826 10.5671567,21.8850826 L10.5401567,21.8360826 L11.3771567,21.3420826 C11.8864272,21.0441026 12.4004947,20.7543978 12.9191567,20.4730826 C12.6591567,21.1830826 12.4691567,22.0350826 12.3701567,23.2650826 C12.2541567,24.7110826 12.8471567,26.5790826 13.6221567,27.3140826 C13.9631567,27.6370826 14.3741567,27.6450826 14.6341567,27.6450826 C15.5361567,27.6450826 15.9471567,26.8950826 16.4001567,26.0070826 C16.9561567,24.9190826 17.4491567,23.6520826 17.4491567,23.6520826 C17.4491567,23.6520826 16.8301567,27.0750826 18.5171567,27.0750826 C19.1311567,27.0750826 19.7491567,26.2780826 20.0241567,25.8720826 L20.0261567,25.8780826 L20.0731567,25.7990826 C20.1371567,25.7010826 20.1731567,25.6390826 20.1731567,25.6390826 L20.1761567,25.6220826 C20.7398381,24.6293403 21.2786723,23.622694 21.7921567,22.6030826 C22.8541567,20.5200826 23.8721567,17.9100826 23.8721567,17.9100826 C23.8721567,17.9100826 23.9661567,18.5480826 24.2761567,19.6030826 C24.4591567,20.2240826 24.8471567,20.9100826 25.1521567,21.5680826 C24.9061567,21.9100826 24.7551567,22.1060826 24.7551567,22.1060826 L24.7591567,22.1160826 C24.5621567,22.3770826 24.3421567,22.6590826 24.1111567,22.9340826 C23.2731567,23.9320826 22.2751567,25.0710826 22.1421567,25.4000826 C21.9841567,25.7870826 22.0221567,26.0720826 22.3261567,26.3020826 C22.5481567,26.4690826 22.9441567,26.4950826 23.3561567,26.4670826 C23.8870454,26.4387832 24.4092095,26.3200788 24.9001567,26.1160826 C25.3071567,25.9720826 25.7821567,25.7460826 26.2271567,25.4180826 C27.0491567,24.8140826 27.5441567,23.9500826 27.4971567,22.8050826 C27.4701567,22.1740826 27.2691567,21.5490826 27.0151567,20.9590826 L27.2391567,20.6340826 C28.5351567,18.7400826 29.5391567,16.6590826 29.5391567,16.6590826 C29.5391567,16.6590826 29.6341567,17.2970826 29.9441567,18.3520826 C30.1011567,18.8860826 30.4111567,19.4690826 30.6891567,20.0400826 C29.4711567,21.0300826 28.7161567,22.1800826 28.4541567,22.9340826 C27.9691567,24.3290826 28.3491567,24.9620826 29.0611567,25.1060826 C29.3841567,25.1710826 29.8391567,25.0230826 30.1821567,24.8780826 C30.6091567,24.7360826 31.1221567,24.5010826 31.6001567,24.1490826 C32.4221567,23.5450826 33.2121567,22.6990826 33.1651567,21.5540826 C33.1431567,21.0330826 33.0011567,20.5160826 32.8101567,20.0190826 C33.8421567,19.5890826 35.1791567,19.3490826 36.8821567,19.5480826 C40.5351567,19.9750826 41.2511567,22.2560826 41.1141567,23.2100826 C40.9771567,24.1650826 40.2111567,24.6890826 39.9551567,24.8480826 C39.6991567,25.0060826 39.6201567,25.0610826 39.6421567,25.1790826 C39.6731567,25.3500826 39.7921567,25.3440826 40.0101567,25.3070826 C40.3111567,25.2560826 41.9281567,24.5310826 41.9971567,22.7690826 C42.0851567,20.5320826 39.9421567,18.0740826 36.1461567,18.0940826 L36.1471567,18.0940826 Z"/>
</svg>
