<svg xmlns="http://www.w3.org/2000/svg" width="37" height="42" viewBox="0 0 37 42">
  <path fill="#FFF" d="M23.892,41.264 L25.452,4.946 C25.518,4.98 25.585,5.013 25.651,5.079 C25.916,5.312 28.106,7.503 28.106,7.503 C28.106,7.503 31.259,7.735 31.425,7.735 C31.591,7.735 31.757,7.868 31.79,8.067 C31.823,8.266 36.303,38.575 36.303,38.575 L23.892,41.264 L23.892,41.264 Z M24.921,4.88 L23.328,41.297 L0,36.915 C0,36.915 3.02,13.511 3.152,12.714 C3.285,11.619 3.318,11.586 4.48,11.221 C4.646,11.154 6.139,10.689 8.196,10.059 C8.993,6.673 11.548,0 16.89,0 C17.587,0 18.384,0.365 19.047,1.195 L19.246,1.195 C21.536,1.195 22.83,3.154 23.56,5.278 C24.29,5.046 24.755,4.913 24.788,4.913 C24.821,4.913 24.888,4.88 24.921,4.88 Z M18.848,6.507 C18.848,4.913 18.649,3.751 18.317,2.888 C17.023,3.453 15.53,4.946 14.734,8.001 C16.127,7.569 17.554,7.137 18.848,6.739 L18.848,6.507 L18.848,6.507 Z M16.725,1.427 C12.908,1.427 10.751,6.44 9.856,9.527 C10.884,9.229 11.979,8.897 13.108,8.532 C13.871,4.482 15.729,2.457 17.421,1.66 C17.2199729,1.50985652 16.9759078,1.42850151 16.725,1.428 L16.725,1.427 Z M17.654,19.454 L19.28,14.774 C19.28,14.774 18.218,14.143 16.061,14.143 C10.453,14.143 7.699,17.893 7.699,21.745 C7.699,26.325 12.278,26.459 12.278,29.247 C12.278,29.911 11.78,30.841 10.619,30.841 C8.827,30.841 6.703,29.015 6.703,29.015 L5.608,32.6 C5.608,32.6 7.665,35.123 11.714,35.123 C15.099,35.123 17.587,32.6 17.587,28.65 C17.587,23.637 12.012,22.807 12.012,20.683 C12.012,20.283 12.112,18.723 14.601,18.723 C16.26,18.723 17.654,19.453 17.654,19.453 L17.654,19.454 Z M19.777,2.657 C20.076,3.52 20.242,4.582 20.242,5.877 L20.242,6.308 C20.972,6.076 21.636,5.877 22.233,5.678 C21.735,4.15 20.972,2.789 19.777,2.657 L19.777,2.657 Z"/>
</svg>
