<svg xmlns="http://www.w3.org/2000/svg" width="28" height="28" viewBox="0 0 28 28">
  <path fill="#FFF" d="M13.75,0 C21.3439153,0 27.5,6.15608469 27.5,13.75 C27.5,21.3439153 21.3439153,27.5 13.75,27.5 C6.15608469,27.5 0,21.3439153 0,13.75 C0,6.15608469 6.15608469,0 13.75,0 Z M13.75,1.5 C6.98451181,1.5 1.5,6.98451181 1.5,13.75 C1.5,20.5154882 6.98451181,26 13.75,26 C20.5154882,26 26,20.5154882 26,13.75 C26,6.98451181 20.5154882,1.5 13.75,1.5 Z M20.4825718,7.31542347 C20.8297045,6.89485884 21.3925178,6.89485884 21.7396505,7.31542347 C22.0867832,7.73598809 22.0867832,8.41785807 21.7396505,8.83842269 L21.7396505,8.83842269 L11.9618727,20.6845765 C11.61474,21.1051412 11.0519267,21.1051412 10.704794,20.6845765 L10.704794,20.6845765 L6.26034953,15.2999611 C5.91321682,14.8793965 5.91321682,14.1975265 6.26034953,13.7769619 C6.60748223,13.3563973 7.17029555,13.3563973 7.51742825,13.7769619 L7.51742825,13.7769619 L11.3333333,18.4000777 Z"/>
</svg>
