<svg xmlns="http://www.w3.org/2000/svg" width="42" height="35" viewBox="0 0 42 35">
  <path fill="#FFF" d="M42,4.04000645 C40.4276552,4.73778506 38.759347,5.19522983 37.051,5.39700645 C38.8508495,4.32024175 40.1975774,2.62554686 40.84,0.629006453 C39.1486178,1.63322854 37.2979354,2.34076281 35.368,2.72100645 C33.738852,0.982340775 31.4616609,-0.00290918689 29.079,0 C24.3199623,0 20.462,3.85796876 20.462,8.61700645 C20.462,9.29200645 20.538,9.94900645 20.685,10.5800065 C13.524,10.2210065 7.174,6.79100645 2.924,1.57700645 C2.1576723,2.89226237 1.75522988,4.38778814 1.758,5.91000645 C1.75563931,8.79157256 3.19411744,11.4835119 5.591,13.0830065 C4.22260935,13.0394736 2.88443855,12.669531 1.688,12.0040065 L1.688,12.1130065 C1.688,16.2880065 4.658,19.7700065 8.6,20.5620065 C7.33091011,20.9073757 5.9996535,20.9579991 4.708,20.7100065 C5.83653372,24.2197886 9.07090321,26.6243689 12.757,26.6940065 C9.70467112,29.0897071 5.93521349,30.3890464 2.055,30.3830065 C1.36,30.3830065 0.675,30.3420065 0,30.2630065 C3.94002941,32.7947657 8.5256662,34.1386222 13.209,34.1340183 C29.059,34.1340183 37.725,21.0040065 37.725,9.61700645 C37.725,9.24400645 37.718,8.87100645 37.701,8.50200645 C39.3880156,7.28264264 40.8438451,5.7719529 42,4.04100645 L42,4.04000645 Z"/>
</svg>
