<svg xmlns="http://www.w3.org/2000/svg" width="122" height="64" viewBox="0 0 122 64">
  <path fill="#FFF" d="M56.5,46.7 L101.5,46.7 L101.5,47.7 L56.5,47.7 L56.5,46.7 Z M56.5,54.9 L101.5,54.9 L101.5,55.9 L56.5,55.9 L56.5,54.9 Z M56.5,50.8 L101.5,50.8 L101.5,51.8 L56.5,51.8 L56.5,50.8 Z M56.5,42.7 L101.5,42.7 L101.5,43.7 L56.5,43.7 L56.5,42.7 Z M65.5,20.2 C63.8,20.2 62.5,18.8 62.5,17.2 C62.5,15.6 63.8,14.2 65.5,14.2 C67.2,14.2 68.5,15.5 68.5,17.2 C68.5,18.8 67.2,20.2 65.5,20.2 Z M101.5,8 L101.5,38.5 L20.5,38.5 L20.5,8 L101.5,8 Z M100.5,37.5 L100.5,9 L21.5,9 L21.5,37.5 L100.5,37.5 Z M111,61 L122,61 L121,64 L1,64 L0,61 L11,61 L11,0 L111,0 L111,61 Z M21.9,57.9 L23,57.9 L35.4,50.8 L21.9,43.1 L21.9,57.9 Z M23.2,42.7 L36.5,50.2 L49.8,42.7 L23.2,42.7 Z M25,57.9 L48,57.9 L36.5,51.4 L25,57.9 Z M51.1,57.9 L51.1,43.1 L37.6,50.8 L50.1,57.9 L51.1,57.9 Z M66,62 C66.6,62 67,61.5 67,61 L55,61 C55,61.5 55.4,62 56,62 L66,62 Z M108.3,57.9 L108.3,3 L15,3 L15,57.9 L21,57.9 L21,41.6 L52,41.6 L52,57.9 L108.3,57.9 Z M25.5,25.3 L57.5,25.3 L57.5,26.3 L25.5,26.3 L25.5,25.3 Z M25.5,29.3 L37.5,29.3 L37.5,31.3 L25.5,31.3 L25.5,29.3 Z M82.8,15.6 C83.5,15.6 96.5,31.6 96.5,32.9 L60.5,32.9 C60.5,31.4 71.3,18.4 72,18.4 C72.3,18.4 73.7,20.1 76.3,23.4 C80.3,18.2 82.5,15.6 82.8,15.6 Z M25.5,21.2 L57.5,21.2 L57.5,22.2 L25.5,22.2 L25.5,21.2 Z M25.5,15.1 L53.5,15.1 L53.5,18.1 L25.5,18.1 L25.5,15.1 Z"/>
</svg>
