<svg xmlns="http://www.w3.org/2000/svg" width="122" height="64" viewBox="0 0 122 64">
  <path fill="#FFF" d="M20,10.2 L20,47.8 L16,47.8 L16,10.2 L20,10.2 Z M19,46.7 L19,44.7 L17,44.7 L17,46.7 L19,46.7 Z M19,43.7 L19,41.7 L17,41.7 L17,43.7 L19,43.7 Z M19,40.6 L19,38.6 L17,38.6 L17,40.6 L19,40.6 Z M19,37.6 L19,35.6 L17,35.6 L17,37.6 L19,37.6 Z M19,34.5 L19,32.5 L17,32.5 L17,34.5 L19,34.5 Z M19,31.5 L19,29.5 L17,29.5 L17,31.5 L19,31.5 Z M19,28.4 L19,26.4 L17,26.4 L17,28.4 L19,28.4 Z M19,25.4 L19,23.4 L17,23.4 L17,25.4 L19,25.4 Z M19,22.3 L19,20.3 L17,20.3 L17,22.3 L19,22.3 Z M19,19.3 L19,17.3 L17,17.3 L17,19.3 L19,19.3 Z M19,16.3 L19,14.3 L17,14.3 L17,16.3 L19,16.3 Z M19,13.2 L19,11.2 L17,11.2 L17,13.2 L19,13.2 Z M111,61 L122,61 L121,64 L1,64 L0,61 L11,61 L11,0 L111,0 L111,61 Z M66,62 C66.6,62 67,61.5 67,61 L55,61 C55,61.5 55.4,62 56,62 L66,62 Z M107.7,57.9 L107.6,57.9 L107.6,3 L14.3,3 L14.3,57.9 L107.7,57.9 Z M50,24.9 C50,26.9 48.4,28.4 46.5,28.5 C44.6,28.5 43,26.9 43,24.9 C43,22.9 44.6,21.3 46.5,21.3 C48.4,21.3 50,22.9 50,24.9 Z M66.8,24 C66.9,24.2 67,24.4 67.1,24.7 C70.9,28.8 81,41.5 81,42.7 L41,42.7 C41,41 53,26.5 53.9,26.5 C54.2,26.5 55.8,28.4 58.7,32.1 C62.1,27.7 64.3,25 65.3,23.9 C65.2,23.8 65.2,23.7 65.2,23.6 L57.2,25.2 L57.2,26 L55.3,26 L55.3,24 L57.2,24 L57.2,24.7 L65.2,23.2 C65.3,22.7 65.6,22.4 66.1,22.4 C66.5,22.4 66.9,22.8 67,23.2 L74.3,24.8 L74.3,24 L76.2,24 L76.2,26 L74.3,26 L74.3,25.2 L67,23.6 C66.9,23.8 66.9,23.9 66.8,24 Z M74.6,24.4 L74.6,25.6 L75.7,25.6 L75.7,24.4 L74.6,24.4 Z M56.7,25.6 L56.7,24.4 L55.6,24.4 L55.6,25.6 L56.7,25.6 Z M66.5,23.8 C66.5,23.7 66.6,23.6 66.6,23.4 C66.6,23.1 66.3,22.8 66,22.8 C65.7,22.8 65.4,23.1 65.4,23.4 C65.4,23.5 65.4,23.6 65.4,23.6 C65.6,23.5 65.7,23.4 65.8,23.4 C65.9,23.4 65.9,23.4 66,23.5 L66.5,23.8 Z M106,4.1 L106,9.2 L16,9.2 L16,4.1 L106,4.1 Z M23,8.1 L23,5.1 L17,5.1 L17,8.1 L23,8.1 Z M27,8.1 L27,5.1 L24,5.1 L24,8.1 L27,8.1 Z M31,8.1 L31,5.1 L28,5.1 L28,8.1 L31,8.1 Z M35,8.1 L35,5.1 L32,5.1 L32,8.1 L35,8.1 Z M105,8.1 L105,5.1 L102,5.1 L102,8.1 L105,8.1 Z M94,55.9 L94,10.2 L106,10.2 L106,55.9 L94,55.9 Z M99,12.2 L99,13.2 L105,13.2 L105,12.2 L99,12.2 Z M99,17.3 L99,18.3 L105,18.3 L105,17.3 L99,17.3 Z M99,22.3 L99,23.3 L105,23.3 L105,22.3 L99,22.3 Z M99,27.4 L99,28.4 L105,28.4 L105,27.4 L99,27.4 Z M99,32.5 L99,33.5 L105,33.5 L105,32.5 L99,32.5 Z M99,37.6 L99,38.6 L105,38.6 L105,37.6 L99,37.6 Z M99,42.7 L99,43.7 L105,43.7 L105,42.7 L99,42.7 Z M99,47.7 L99,48.7 L105,48.7 L105,47.7 L99,47.7 Z M99,52.8 L99,53.8 L105,53.8 L105,52.8 L99,52.8 Z M95,11.2 L95,14.2 L98,14.2 L98,11.2 L95,11.2 Z M95,16.3 L95,19.3 L98,19.3 L98,16.3 L95,16.3 Z M95,21.3 L95,24.3 L98,24.3 L98,21.3 L95,21.3 Z M95,26.4 L95,29.4 L98,29.4 L98,26.4 L95,26.4 Z M95,31.5 L95,34.5 L98,34.5 L98,31.5 L95,31.5 Z M95,36.6 L95,39.6 L98,39.6 L98,36.6 L95,36.6 Z M95,41.7 L95,44.7 L98,44.7 L98,41.7 L95,41.7 Z M95,46.7 L95,49.7 L98,49.7 L98,46.7 L95,46.7 Z M95,51.8 L95,54.8 L98,54.8 L98,51.8 L95,51.8 Z"/>
</svg>
