<svg xmlns="http://www.w3.org/2000/svg" width="42" height="42" viewBox="0 0 42 42">
  <path fill="#FFF" d="M2.98499496,20.999 C2.98499496,28.129 7.129,34.292 13.138,37.212 L4.545,13.667 C3.51470079,15.9739465 2.98310682,18.4724381 2.98499496,20.999 L2.98499496,20.999 Z M33.161,20.09 C33.161,17.863 32.361,16.322 31.675,15.122 C30.762,13.638 29.906,12.381 29.906,10.897 C29.906,9.241 31.162,7.7 32.931,7.7 C33.011,7.7 33.087,7.71 33.165,7.714 C29.8470528,4.66704304 25.5047402,2.97902031 21,2.98498417 C14.706,2.98498417 9.169,6.214 5.948,11.105 C6.371,11.117 6.768,11.126 7.108,11.126 C8.991,11.126 11.908,10.898 11.908,10.898 C12.879,10.84 12.994,12.267 12.024,12.382 C12.024,12.382 11.048,12.496 9.962,12.553 L16.522,32.066 L20.465,20.243 L17.658,12.553 C17.0268063,12.513897 16.396876,12.4565396 15.769,12.381 C14.798,12.324 14.912,10.84 15.883,10.897 C15.883,10.897 18.858,11.126 20.628,11.126 C22.512,11.126 25.429,10.897 25.429,10.897 C26.4,10.84 26.515,12.266 25.544,12.381 C25.544,12.381 24.566,12.496 23.482,12.553 L29.993,31.918 L31.789,25.913 C32.568,23.422 33.161,21.632 33.161,20.09 L33.161,20.09 Z M21.316,22.575 L15.911,38.281 C19.54019,39.3486141 23.4132267,39.2478613 26.982,37.993 C26.9320697,37.9142891 26.8892345,37.8312959 26.854,37.745 L21.316,22.575 L21.316,22.575 Z M36.807,12.356 C36.884,12.93 36.928,13.546 36.928,14.208 C36.928,16.036 36.587,18.091 35.558,20.661 L30.056,36.57 C35.411,33.447 39.01303,27.645 39.01303,20.999 C39.018529,17.9779126 38.2592845,15.0045777 36.806,12.356 L36.807,12.356 Z M21,0 C9.421,0 0,9.42 0,20.999 C0,32.579 9.42,41.999 21,41.999 C32.578,41.999 42,32.579 42,20.999 C42,9.42 32.578,0 21,0 Z M21,41.036 C9.952,41.036 0.963,32.047 0.963,20.999 C0.963,9.951 9.951,0.963 21,0.963 C32.047,0.963 41.035,9.951 41.035,20.999 C41.035,32.047 32.047,41.036 21,41.036 Z"/>
</svg>
