<svg xmlns="http://www.w3.org/2000/svg" width="42" height="41" viewBox="0 0 42 41">
  <path fill="#FFF" d="M33.674,19.194 L7.526,19.194 C3.36918147,19.1951044 0,22.5651813 0,26.722 L0,32.771 C0.000551982468,36.9274282 3.36957194,40.2968958 7.526,40.298 L33.674,40.298 C37.8300375,40.2963438 41.1984483,36.9270378 41.199,32.771 L41.199,26.722 C41.1984486,22.5658002 37.8301992,19.1962081 33.674,19.194 L33.674,19.194 Z M13.019,23.903 L10.588,23.903 L10.588,35.982 L8.24,35.982 L8.24,23.903 L5.81,23.903 L5.81,21.848 L13.019,21.848 L13.019,23.903 Z M19.886,35.982 L17.803,35.982 L17.803,34.84 C17.416,35.262 17.017,35.585 16.6,35.802 C16.183,36.029 15.781,36.135 15.39,36.135 C14.906,36.135 14.546,35.981 14.3,35.669 C14.058,35.357 13.935,34.895 13.935,34.271 L13.935,25.554 L16.018,25.554 L16.018,33.554 C16.018,33.801 16.064,33.978 16.147,34.088 C16.237,34.201 16.38,34.254 16.576,34.254 C16.727,34.254 16.922,34.181 17.156,34.035 C17.392,33.887 17.607,33.702 17.803,33.474 L17.803,25.554 L19.886,25.554 L19.886,35.982 L19.886,35.982 Z M27.45,33.829 C27.45,34.566 27.286,35.132 26.959,35.527 C26.634,35.922 26.158,36.116 25.543,36.116 C25.133,36.116 24.768,36.042 24.452,35.889 C24.1075208,35.7202896 23.80332,35.4795207 23.56,35.183 L23.56,35.981 L21.452,35.981 L21.452,21.848 L23.56,21.848 L23.56,26.4 C23.843,26.085 24.141,25.841 24.452,25.677 C24.771,25.51 25.091,25.429 25.415,25.429 C26.074,25.429 26.577,25.649 26.925,26.094 C27.274,26.538 27.448,27.189 27.448,28.043 L27.448,33.829 L27.45,33.829 L27.45,33.829 Z M34.676,31.02 L30.689,31.02 L30.689,32.984 C30.689,33.532 30.757,33.913 30.893,34.126 C31.032,34.339 31.266,34.443 31.6,34.443 C31.946,34.443 32.185,34.353 32.325,34.174 C32.459,33.992 32.532,33.597 32.532,32.984 L32.532,32.51 L34.676,32.51 L34.676,33.045 C34.676,34.113 34.416,34.919 33.89,35.462 C33.372,36.001 32.59,36.268 31.552,36.268 C30.617,36.268 29.88,35.983 29.345,35.41 C28.812,34.841 28.54,34.05 28.54,33.046 L28.54,28.362 C28.54,27.46 28.837,26.719 29.428,26.15 C30.017,25.581 30.775,25.297 31.708,25.297 C32.663,25.297 33.397,25.56 33.908,26.088 C34.42,26.616 34.676,27.372 34.676,28.361 L34.676,31.02 L34.676,31.02 Z M31.62,27.12 C31.287,27.12 31.051,27.213 30.906,27.408 C30.758,27.591 30.689,27.905 30.689,28.342 L30.689,29.397 L32.532,29.397 L32.532,28.342 C32.532,27.905 32.458,27.591 32.311,27.408 C32.171,27.214 31.937,27.12 31.62,27.12 L31.62,27.12 Z M24.432,27.085 C24.713,27.085 24.93,27.176 25.082,27.355 C25.23,27.538 25.301,27.803 25.301,28.158 L25.301,33.543 C25.301,33.876 25.24,34.112 25.122,34.26 C25.002,34.41 24.815,34.484 24.559,34.484 C24.382,34.484 24.216,34.443 24.055,34.372 C23.8699888,34.2780383 23.7028103,34.1524852 23.561,34.001 L23.561,27.505 C23.702,27.362 23.845,27.252 23.991,27.186 C24.135,27.118 24.284,27.085 24.432,27.085 L24.432,27.085 Z M10.949,15.572 L10.949,9.403 L7.804,0 L10.464,0 L12.18,6.224 L12.346,6.224 L13.981,0 L16.666,0 L13.59,9.112 L13.59,15.572 L10.949,15.572 Z M20.244,15.862 C19.218,15.862 18.395,15.572 17.779,14.995 C17.164,14.415 16.855,13.642 16.855,12.666 L16.855,6.712 C16.855,5.819 17.172,5.112 17.802,4.586 C18.434,4.059 19.283,3.796 20.35,3.796 C21.321,3.796 22.117,4.074 22.739,4.628 C23.356,5.183 23.666,5.903 23.666,6.778 L23.666,12.711 C23.666,13.694 23.363,14.461 22.757,15.023 C22.147,15.582 21.311,15.862 20.244,15.862 Z M19.271,6.624 L19.27,6.624 L19.27,12.882 C19.27,13.197 19.354,13.439 19.52,13.611 C19.688,13.788 19.927,13.872 20.237,13.872 C20.554,13.872 20.806,13.785 20.993,13.609 C21.182,13.433 21.276,13.19 21.276,12.883 L21.276,6.624 C21.281859,6.38729494 21.175893,6.16165402 20.99,6.015 C20.798,5.861 20.547,5.785 20.237,5.785 C19.95,5.785 19.719,5.861 19.537,6.015 C19.3616909,6.16840963 19.2641268,6.39214691 19.271,6.625 L19.271,6.624 Z M27.208,15.74 C26.663,15.74 26.258,15.566 25.981,15.222 C25.709,14.882 25.571,14.371 25.571,13.686 L25.571,4.086 L27.914,4.086 L27.914,12.892 C27.914,13.162 27.969,13.359 28.065,13.479 C28.16,13.604 28.322,13.664 28.542,13.664 C28.715,13.664 28.933,13.584 29.198,13.422 C29.459,13.259 29.702,13.054 29.92,12.805 L29.92,4.085 L32.266,4.085 L32.266,15.573 L29.92,15.573 L29.92,14.3 C29.491,14.768 29.04,15.127 28.568,15.372 C28.102,15.614 27.649,15.74 27.208,15.74 Z"/>
</svg>
