<svg xmlns="http://www.w3.org/2000/svg">
  <symbol viewBox="0 0 10 25" id="icon-arrow-down">
    <title>arrow-down</title>
    <path d="M5,0.5 C5.27614237,0.5 5.5,0.710689529 5.5,0.970588235 L5.5,0.970588235 L5.5,22.2317647 L9.06421223,16.2692888 C9.1845517,16.0679365 9.43879785,15.9820864 9.66284783,16.0549843 L9.74513062,16.0898468 C9.98580956,16.2172651 10.0711697,16.5041898 9.93578777,16.7307112 L9.93578777,16.7307112 L5.43578777,24.2601229 C5.24463573,24.579959 4.75536427,24.579959 4.56421223,24.2601229 L4.56421223,24.2601229 L0.0642122314,16.7307112 C-0.0711696716,16.5041898 0.0141904414,16.2172651 0.25486938,16.0898468 C0.495548319,15.9624285 0.800405866,16.0427675 0.935787769,16.2692888 L0.935787769,16.2692888 L4.5,22.2317647 L4.5,0.970588235 C4.5,0.739567163 4.67687516,0.547427416 4.91012437,0.507581807 L5,0.5 Z" />
  </symbol>
  <symbol viewBox="0 0 24 10" id="icon-arrow-left">
    <title>arrow-left</title>
    <path d="M12.0000887,-7 C12.2762311,-7 12.5000887,-6.78931047 12.5000887,-6.52941176 L12.5000887,-6.52941176 L12.5000887,14.7317647 L16.0643009,8.76928883 C16.1846404,8.56793651 16.4388865,8.48208636 16.6629365,8.5549843 L16.7452193,8.58984681 C16.9858982,8.71726507 17.0712583,9.00418982 16.9358764,9.23071117 L16.9358764,9.23071117 L12.4358764,16.7601229 C12.2447244,17.079959 11.7554529,17.079959 11.5643009,16.7601229 L11.5643009,16.7601229 L7.06430091,9.23071117 C6.928919,9.00418982 7.01427912,8.71726507 7.25495806,8.58984681 C7.495637,8.46242854 7.80049454,8.54276747 7.93587644,8.76928883 L7.93587644,8.76928883 L11.5000887,14.7317647 L11.5000887,-6.52941176 C11.5000887,-6.76043284 11.6769638,-6.95257258 11.910213,-6.99241819 L12.0000887,-7 Z" transform="matrix(0 -1 -1 0 17 17)" />
  </symbol>
  <symbol viewBox="0 0 25 11" id="icon-arrow-right">
    <title>arrow-right</title>
    <path d="M12.4112215,-6.33984375 C12.6873639,-6.33984375 12.9112215,-6.12915422 12.9112215,-5.86925551 L12.9112215,-5.86925551 L12.9112215,15.391921 L16.4754337,9.42944508 C16.5957732,9.22809276 16.8500193,9.14224261 17.0740693,9.21514055 L17.1563521,9.25000306 C17.397031,9.37742132 17.4823912,9.66434607 17.3470093,9.89086742 L17.3470093,9.89086742 L12.8470093,17.4202792 C12.6558572,17.7401153 12.1665858,17.7401153 11.9754337,17.4202792 L11.9754337,17.4202792 L7.47543372,9.89086742 C7.34005182,9.66434607 7.42541193,9.37742132 7.66609087,9.25000306 C7.90676981,9.12258479 8.21162735,9.20292372 8.34700926,9.42944508 L8.34700926,9.42944508 L11.9112215,15.391921 L11.9112215,-5.86925551 C11.9112215,-6.10027659 12.0880966,-6.29241633 12.3213459,-6.33226194 L12.4112215,-6.33984375 Z" transform="matrix(0 1 1 0 6.751 -6.751)" />
  </symbol>
  <symbol viewBox="0 0 10 24" id="icon-arrow-up">
    <title>arrow-up</title>
    <path d="M5.00008868,0 C5.27623105,0 5.50008868,0.210689529 5.50008868,0.470588235 L5.50008868,0.470588235 L5.50008868,21.7317647 L9.06430091,15.7692888 C9.18464038,15.5679365 9.43888653,15.4820864 9.66293651,15.5549843 L9.7452193,15.5898468 C9.98589823,15.7172651 10.0712583,16.0041898 9.93587644,16.2307112 L9.93587644,16.2307112 L5.43587644,23.7601229 C5.24472441,24.079959 4.75545294,24.079959 4.56430091,23.7601229 L4.56430091,23.7601229 L0.0643009078,16.2307112 C-0.0710809952,16.0041898 0.0142791178,15.7172651 0.254958057,15.5898468 C0.495636995,15.4624285 0.800494542,15.5427675 0.935876445,15.7692888 L0.935876445,15.7692888 L4.50008868,21.7317647 L4.50008868,0.470588235 C4.50008868,0.239567163 4.67696384,0.0474274161 4.91021304,0.00758180651 L5.00008868,0 Z" transform="matrix(1 0 0 -1 0 24)" />
  </symbol>
  <symbol viewBox="0 0 100 83" id="icon-Logo-Crest">
    <title>Logo-Crest</title>
    <path d="M10.911,0.255837218 C10.911,0.255837218 17.019,4.99583722 19.889,6.96483722 C20.211,7.17983722 20.474,7.34983722 20.517,7.57983722 C20.487,7.60983722 20.455,7.64483722 20.299,7.84583722 C20.2430483,7.93349542 20.1909975,8.02358329 20.143,8.11583722 C20.1086234,8.19380409 20.080534,8.27439407 20.059,8.35683722 C20.047,8.40383722 20.041,8.45683722 20.011,8.68183722 C20.008,8.79483722 20.016,8.91383722 20.013,9.06783722 C20.136,9.25783722 20.259,9.44483722 20.392,9.62583722 C20.536,9.82783722 20.69,10.0228372 20.848,10.2118372 C21.035,10.4418372 21.224,10.6618372 21.428,10.8818372 C21.6,11.0658372 21.771,11.2518372 21.946,11.4338372 C22.181,11.6838372 22.43,11.9318372 22.682,12.1748372 C23.297,12.7848372 23.922,13.3848372 24.504,14.0108372 C29.004,18.8508372 33.737,23.4798372 38.352,28.2068372 C42.295,32.2468372 46.227,36.2998372 50.16,40.3508372 C56.753,33.7368372 63.352,27.1288372 69.948,20.5168372 C72.098,18.3668372 74.261,16.2188372 76.398,14.0468372 C76.951,13.4818372 77.497,12.9088372 78.04,12.3328372 C78.124,12.2428372 78.21,12.1548372 78.294,12.0638372 C78.869,11.4498372 79.439,10.8338372 80.005,10.2128372 C80.089,10.1208372 80.171,10.0268372 80.348,9.81583722 C80.439,9.70383722 80.526,9.58883722 80.681,9.34183722 C80.621,9.19283722 80.552,9.05383722 80.304,8.80183722 C80.286,8.78883722 80.268,8.77483722 80.064,8.67883722 C79.9790487,8.6542381 79.8920158,8.637501 79.804,8.62883722 C79.804,8.62883722 87.868,2.47883722 89.667,1.23883722 C91.465,-0.0111627821 90.523,1.68383722 90.523,1.68383722 C90.523,1.68383722 85.883,7.88683722 83.96,10.8008372 C83.75,11.1268372 83.584,11.3948372 83.357,11.4398372 C83.2728501,11.3621372 83.1840169,11.289668 83.091,11.2228372 C83.0037755,11.1664795 82.9136514,11.1147416 82.821,11.0678372 C82.7432337,11.0343572 82.6629945,11.0069421 82.581,10.9858372 C82.534,10.9738372 82.481,10.9698372 82.257,10.9408372 C82.145,10.9388372 82.027,10.9478372 81.874,10.9478372 C81.689,11.0738372 81.502,11.2008372 81.324,11.3358372 C81.124,11.4838372 80.934,11.6408372 80.748,11.8008372 C80.522,11.9938372 80.306,12.1838372 80.088,12.3938372 C79.908,12.5678372 79.724,12.7418372 79.547,12.9208372 C79.3,13.1598372 79.057,13.4118372 78.819,13.6688372 C78.221,14.2968372 77.631,14.9328372 77.015,15.5258372 C72.26,20.1108372 67.717,24.9268372 63.074,29.6258372 C59.153,33.5958372 55.218,37.5518372 51.286,41.5098372 C52.778,43.0478372 54.276,44.5798372 55.766,46.1168372 C59.854,50.3368372 63.946,54.5608372 67.995,58.8268372 C69.619,60.5388372 71.245,62.2418372 73.127,63.6908372 C73.46,63.9438372 73.8,64.1868372 74.147,64.4198372 C74.278,64.5068372 74.416,64.5858372 74.55,64.6698372 C74.763,64.8058372 74.975,64.9418372 75.195,65.0668372 C75.485,65.2328372 75.784,65.3848372 76.085,65.5328372 C76.193,65.5868372 76.297,65.6478372 76.408,65.6988372 C76.822,65.8928372 77.248,66.0688372 77.69,66.2288372 C78.04,66.3508372 78.25,66.8508372 78.408,67.3838372 C78.662,67.5398372 78.915,67.6878372 79.22,67.8708372 C79.448,68.0108372 79.673,68.1558372 79.882,68.3228372 C80.799,69.0668372 81.734,69.8108372 82.572,70.6498372 C83.158,71.2428372 83.496,71.5998372 83.636,71.9498372 C83.6659453,72.0316106 83.6821641,72.1177726 83.684,72.2048372 C83.687,72.3538372 83.646,72.5108372 83.548,72.7238372 C83.5015373,72.8206946 83.4508213,72.9154535 83.396,73.0078372 C83.342,73.1008372 83.278,73.2048372 83.164,73.3838372 C83.092,73.4958372 83.016,73.6138372 82.929,73.7458372 C83.018,73.7668372 83.104,73.7998372 83.189,73.8278372 C83.229,73.8408372 83.269,73.8508372 83.525,73.8668372 C83.645,73.8188372 83.76,73.7788372 84.002,73.7158372 C84.068,73.6998372 84.132,73.6818372 84.351,73.6528372 C84.4,73.6468372 84.451,73.6398372 84.661,73.6398372 C84.701,73.6408372 84.741,73.6408372 84.946,73.6678372 C84.979,73.6738372 85.013,73.6778372 85.211,73.7308372 L85.2386501,73.7399859 C85.2679796,73.7502046 85.3211429,73.7704086 85.459,73.8268372 C85.482,73.8368372 85.506,73.8468372 85.691,73.9498372 C85.711,73.9608372 85.73,73.9728372 85.909,74.0968372 C85.926,74.1088372 85.943,74.1208372 86.115,74.2638372 C86.13,74.2768372 86.146,74.2898372 86.31,74.4468372 L86.3273703,74.4635194 C86.3469184,74.4833882 86.386,74.5251229 86.496,74.6408372 L86.671,74.8418372 C86.707,74.8848372 86.744,74.9288372 86.833,75.0388372 C86.963,75.1998372 87.088,75.3648372 87.216,75.5288372 C87.262,75.5958372 87.317,75.6618372 87.364,75.7288372 C87.476,75.8708372 87.556,75.9818372 87.649,76.2758372 C87.647,76.2958372 87.634,76.3218372 87.544,76.5068372 C87.514,76.5468372 87.488,76.5868372 87.369,76.7018372 C87.2844889,76.7843217 87.1964044,76.8630639 87.105,76.9378372 C86.8414089,77.1538618 86.5740341,77.3652279 86.303,77.5718372 C87.153,78.5728372 87.993,79.5728372 88.847,80.5528372 C89.189,80.9408372 89.679,81.2338372 89.899,81.6728372 C90.073,82.0188372 89.937,82.5228372 89.936,82.9548372 C89.503,82.9408372 88.916,83.1048372 88.66,82.8828372 C87.653,82.0198372 86.738,81.0498372 85.818,80.0828372 C85.549,79.8048372 85.301,79.6008372 85.05,79.5288372 L84.617,79.5588372 L84.617,79.5578372 C84.412,79.6378372 84.219,79.8448372 84.029,80.1958372 C83.533,81.1158372 83.077,80.8478372 82.462,80.2208372 C82.2617758,80.0246252 82.0529017,79.8374393 81.836,79.6598372 C81.7238286,79.5657585 81.6104865,79.4730846 81.496,79.3818372 C81.179,79.1298372 80.859,78.8838372 80.466,78.5508372 C80.328851,78.431694 80.1954528,78.3083007 80.066,78.1808372 C79.9422658,78.0595966 79.8244617,77.9324484 79.713,77.7998372 L79.545,77.5988372 C79.479,77.5128372 79.409,77.4258372 79.341,77.3388372 C78.991,76.9048372 78.604,76.4788372 78.21,75.9648372 C78.167,75.9018372 78.124,75.8508372 78.059,75.7528372 C77.9426011,75.5885273 77.8347901,75.4182993 77.736,75.2428372 C77.636,75.0628372 77.546,74.8748372 77.457,74.6468372 C77.3781762,74.4331971 77.3169718,74.2134635 77.274,73.9898372 C77.206225,73.5849187 77.1971316,73.1723487 77.247,72.7648372 C76.999,72.9938372 76.801,73.1688372 76.556,73.3928372 C76.46,73.4788372 76.363,73.5648372 76.249,73.6688372 C76.132,73.4888372 76.009,73.3118372 75.883,73.1348372 C75.799,73.0168372 75.713,72.8998372 75.521,72.6388372 C75.236,72.2568372 74.95,71.8808372 74.568,71.3528372 C74.481,71.2298372 74.398,71.1068372 74.193,70.8018372 C74.0969274,70.6521989 74.005222,70.4998013 73.918,70.3448372 C73.862,70.2478372 73.812,70.1478372 73.761,70.0488372 C73.717,69.9618372 73.669,69.8768372 73.618,69.7618372 C73.5153578,69.5394322 73.4281515,69.3102234 73.357,69.0758372 C73.1839197,68.4991538 72.9727898,67.9345819 72.725,67.3858372 C72.611,67.1358372 72.49,66.8908372 72.336,66.5978372 C72.2,66.3428372 72.056,66.0928372 71.856,65.7608372 C70.874,64.1748372 69.618,62.7978372 68.309,61.4388372 C62.511,55.4108372 56.674,49.4118372 50.859,43.4018372 L50.144,42.6618372 C48.589,44.2268372 47.039,45.7978372 45.484,47.3598372 C41.339,51.5238372 37.19,55.6918372 32.999,59.8168372 C31.317,61.4718372 29.643,63.1268372 28.226,65.0388372 C27.978,65.3758372 27.741,65.7218372 27.514,66.0728372 C27.428,66.2068372 27.351,66.3458372 27.269,66.4818372 C27.137,66.6978372 27.005,66.9138372 26.881,67.1358372 C26.721,67.4298372 26.574,67.7328372 26.429,68.0358372 C26.377,68.1478372 26.317,68.2518372 26.267,68.3658372 C26.081,68.7838372 25.909,69.2158372 25.756,69.6618372 C25.639,70.0148372 25.145,70.2318372 24.616,70.3968372 C24.465,70.6538372 24.322,70.9108372 24.143,71.2198372 C24.006,71.4528372 23.863,71.6798372 23.701,71.8918372 C22.973,72.8238372 22.243,73.7728372 21.421,74.6268372 C20.837,75.2238372 20.487,75.5688372 20.141,75.7128372 C20.0603266,75.7435534 19.9752426,75.7611104 19.889,75.7648372 C19.74,75.7688372 19.585,75.7288372 19.372,75.6328372 C19.2746272,75.5874814 19.1795152,75.5374224 19.087,75.4828372 C18.9606233,75.4084381 18.8356029,75.3317589 18.712,75.2528372 L18.35,75.0208372 C18.33,75.1088372 18.299,75.1978372 18.271,75.2818372 C18.259,75.3238372 18.249,75.3628372 18.237,75.6218372 C18.286,75.7418372 18.327,75.8578372 18.393,76.1008372 C18.409,76.1658372 18.426,76.2318372 18.458,76.4508372 C18.464,76.4998372 18.471,76.5508372 18.474,76.7638372 C18.474,76.8038372 18.474,76.8438372 18.45,77.0508372 C18.445,77.0848372 18.44,77.1188372 18.39,77.3188372 C18.381,77.3468372 18.374,77.3748372 18.298,77.5688372 C18.288,77.5928372 18.278,77.6158372 18.178,77.8038372 C18.167,77.8238372 18.155,77.8438372 18.035,78.0248372 C18.022,78.0428372 18.01,78.0598372 17.871,78.2348372 C17.858,78.2508372 17.845,78.2668372 17.691,78.4338372 C17.6287377,78.4975771 17.5653952,78.5602529 17.501,78.6218372 C17.478,78.6428372 17.456,78.6648372 17.303,78.8018372 L17.108,78.9668372 C16.951,79.0978372 16.788,79.2268372 16.626,79.3568372 C16.56,79.4048372 16.496,79.4618372 16.431,79.5098372 C16.2735564,79.64409 16.0895444,79.7435927 15.891,79.8018372 C15.869,79.7998372 15.846,79.7878372 15.659,79.6988372 C15.627,79.6748372 15.595,79.6527572 15.5246,79.5849812 L15.464,79.5248372 C15.411,79.4708372 15.357,79.4148372 15.226,79.2608372 C15.0091444,78.9975383 14.7964514,78.7308385 14.588,78.4608372 C13.604,79.3268372 12.62,80.1848372 11.658,81.0558372 C11.277,81.4048372 10.991,81.9008372 10.557,82.1278372 C10.215,82.3048372 9.712,82.1738372 9.284,82.1778372 C9.294,81.7418372 9.124,81.1528372 9.343,80.8918372 C10.187,79.8678372 11.141,78.9348372 12.091,77.9988372 C12.363,77.7248372 12.563,77.4728372 12.632,77.2198372 L12.599,76.7828372 C12.516,76.5788372 12.309,76.3858372 11.959,76.1978372 C11.042,75.7088372 11.301,75.2478372 11.917,74.6198372 C12.07,74.4618372 12.214,74.2948372 12.468,73.9838372 C12.56,73.8698372 12.651,73.7538372 12.74,73.6368372 C12.987,73.3158372 13.227,72.9918372 13.554,72.5928372 C13.654,72.4718372 13.758,72.3528372 13.918,72.1828372 C14.037,72.0568372 14.161,71.9378372 14.29,71.8248372 L14.488,71.6528372 L14.744,71.4458372 C15.171,71.0878372 15.59,70.6928372 16.096,70.2908372 C16.157,70.2478372 16.209,70.2028372 16.305,70.1368372 C16.6404103,69.8839728 17.0075423,69.6762003 17.397,69.5188372 C17.582,69.4448372 17.777,69.3868372 18.047,69.3258372 C18.4482118,69.2531273 18.8579535,69.2399859 19.263,69.2868372 C19.033,69.0378372 18.856,68.8418372 18.632,68.5968372 C18.5397873,68.4950611 18.4474539,68.3933943 18.355,68.2918372 C18.532,68.1698372 18.706,68.0448372 18.879,67.9168372 C18.997,67.8308372 19.112,67.7428372 19.369,67.5468372 C19.745,67.2548372 20.116,66.9638372 20.635,66.5738372 C20.756,66.4838372 20.878,66.3988372 21.178,66.1898372 C21.327,66.0898372 21.476,65.9968372 21.628,65.9068372 C21.724,65.8498372 21.823,65.7988372 21.921,65.7468372 C22.006,65.7008372 22.091,65.6518372 22.203,65.5998372 C22.426,65.4948372 22.651,65.3998372 22.882,65.3288372 C23.7316957,65.0594589 24.5524206,64.7060448 25.332,64.2738372 C25.582,64.1338372 25.829,63.9858372 26.157,63.7798372 C27.722,62.7748372 29.074,61.4948372 30.409,60.1628372 C36.33,54.2568372 42.222,48.3128372 48.126,42.3888372 L49.017,41.4958372 C42.47,34.7278372 35.928,27.9548372 29.384,21.1858372 C27.271,18.9948372 25.164,16.7918372 23.029,14.6158372 C22.476,14.0528372 21.912,13.4968372 21.346,12.9448372 C21.259,12.8578372 21.17,12.7718372 21.082,12.6858372 C20.479,12.1008372 19.872,11.5208372 19.263,10.9428372 C19.173,10.8568372 19.081,10.7728372 18.873,10.5908372 C18.763,10.5008372 18.65,10.4108372 18.406,10.2508372 C18.257,10.3108372 18.119,10.3788372 17.866,10.6268372 C17.852,10.6438372 17.838,10.6618372 17.742,10.8668372 C17.7156514,10.9521874 17.6978966,11.0399567 17.689,11.1288372 C17.689,11.1288372 11.671,2.93883722 10.459,1.11483722 C9.238,-0.711162782 10.911,0.255837218 10.911,0.255837218 Z M36.407,65.3378372 C36.914,65.3538372 37.39,65.4048372 37.832,65.4898372 C38.275,65.5738372 38.676,65.6948372 39.036,65.8518372 C39.381627,65.9987084 39.6954375,66.2113117 39.96,66.4778372 L39.961,66.4778372 C40.217,66.7388372 40.416,67.0578372 40.557,67.4368372 C40.699,67.8138372 40.769,68.2638372 40.769,68.7858372 C40.718,69.2758372 40.608,69.7098372 40.437,70.0878372 C40.267,70.4668372 40.047,70.7958372 39.777,71.0808372 C39.507,71.3648372 39.188,71.6008372 38.819,71.7948372 C38.45,71.9858372 38.041,72.1358372 37.592,72.2408372 C37.3442303,72.2149005 37.0950523,72.20488 36.846,72.2108372 L36.066,72.2308372 L36.066,72.2308372 C35.806,72.2358372 35.551,72.2348372 35.306,72.2248372 C35.0734368,72.218121 34.8421984,72.1872892 34.616,72.1328372 L34.616,70.5088372 C34.6148433,69.3606961 34.6291779,68.2125916 34.659,67.0648372 C34.676,66.4968372 34.696,65.9558372 34.722,65.4408372 C34.722,65.4278372 34.725,65.4108372 34.732,65.3908372 C34.744,65.3528372 34.777,65.3338372 34.827,65.3338372 C35.3535905,65.3195604 35.8804885,65.3208943 36.407,65.3378372 Z M44.486,66.1508372 C44.754,66.4428372 45.019,66.7408372 45.278,67.0468372 L46.061,67.9768372 C46.324,68.2868372 46.591,68.5998372 46.864,68.9098372 C47.134,69.2178372 47.419,69.5148372 47.715,69.8018372 C47.715,69.5148372 47.705,69.2148372 47.685,68.8948372 C47.6650725,68.5772017 47.653735,68.2590855 47.651,67.9408372 C47.648,67.6228372 47.656,67.3108372 47.675,67.0048372 C47.695,66.6968372 47.745,66.4138372 47.825,66.1508372 C48.04,66.1508372 48.276,66.1548372 48.532,66.1638372 C48.788,66.1728372 49.021,66.2008372 49.231,66.2468372 L49.231,72.2008372 C49.151,72.2238372 49.06,72.2358372 48.954,72.2398372 C48.8473086,72.2422522 48.7405639,72.2405843 48.634,72.2348372 C48.5288864,72.229233 48.4238722,72.2218986 48.319,72.2128372 C48.2285622,72.2047147 48.1378017,72.2007106 48.047,72.2008372 C47.7228869,71.9189167 47.4134787,71.620523 47.12,71.3068372 C46.83,70.9968372 46.547,70.6848372 46.27,70.3668372 L46.271,70.3668372 C45.994,70.0468372 45.719,69.7288372 45.443,69.4068372 C45.166,69.0868372 44.877,68.7688372 44.574,68.4538372 C44.574,69.0838372 44.587,69.7188372 44.614,70.3608372 C44.639,71.0038372 44.627,71.6168372 44.574,72.2008372 L43.077,72.2008372 L43.077,66.2468372 C43.2988044,66.1529347 43.5362261,66.1013802 43.777,66.0948372 C44.026,66.0858372 44.262,66.1038372 44.486,66.1508372 Z M63.114,65.3238372 C63.493,65.3268372 63.854,65.3538372 64.197,65.4028372 C64.539,65.4528372 64.843,65.5408372 65.108,65.6688372 C65.372,65.7978372 65.588,65.9728372 65.752,66.1938372 C65.918,66.4138372 66.019,66.7038372 66.055,67.0588372 C66.0602487,67.5741856 65.926194,68.0813825 65.667,68.5268372 C65.595,68.6498372 65.522,68.7708372 65.451,68.8938372 C65.301,68.9418372 65.168,69.0058372 65.053,69.0868372 C64.9318022,69.1713084 64.7982062,69.2364196 64.657,69.2798372 C64.783,69.4498372 64.917,69.6218372 65.057,69.7988372 C65.199,69.9778372 65.339,70.1558372 65.478,70.3378372 C65.616,70.5178372 65.745,70.6978372 65.866,70.8778372 C65.986,71.0598372 66.082,71.2348372 66.154,71.4028372 L64.657,71.4028372 C64.5049265,71.2782929 64.369782,71.1344077 64.255,70.9748372 C64.1370728,70.8102745 64.0256536,70.6411442 63.921,70.4678372 L63.606,69.9478372 C63.503508,69.7799729 63.3874542,69.6207753 63.259,69.4718372 C63.1657311,69.4495924 63.0697544,69.4408366 62.974,69.4458372 C62.8867237,69.451461 62.7996706,69.4601329 62.713,69.4718372 C62.625,69.4838372 62.537,69.4918372 62.447,69.4968372 C62.3496436,69.501879 62.2520571,69.4934664 62.157,69.4718372 C62.135,69.6178372 62.121,69.7718372 62.117,69.9348372 C62.115,70.0978372 62.117,70.2648372 62.122,70.4378372 C62.128,70.6088372 62.136,70.7778372 62.144,70.9398372 C62.154,71.1038372 62.158,71.2568372 62.158,71.4028372 C61.959,71.4498372 61.728,71.4728372 61.464,71.4728372 C61.2304284,71.4759343 60.9972627,71.45245 60.769,71.4028372 L60.769,65.4158372 C61.148,65.3988372 61.539,65.3778372 61.942,65.3538372 C62.3322443,65.3312814 62.7231128,65.3212763 63.114,65.3238372 Z M52.67,65.3358372 C52.797,65.3478372 52.91,65.3658372 53.007,65.3888372 C53.299,66.0548372 53.575,66.7478372 53.837,67.4688372 C54.099,68.1868372 54.375,68.8818372 54.666,69.5458372 C54.909,68.8818372 55.168,68.2008372 55.446,67.5028372 C55.63,67.0375039 55.8068889,66.5695039 55.9766667,66.0982446 L56.226,65.388 L56.605375,65.3923372 C56.7345,65.3945872 56.866,65.3978372 57,65.4018372 C57.267,65.4108372 57.498,65.4398372 57.692,65.4858372 C57.498,65.9798372 57.298,66.4708372 57.092,66.9598372 C56.6756594,67.9445739 56.2623242,68.9305785 55.852,69.9178372 C55.644,70.4178372 55.445,70.9268372 55.25,71.4438372 C55.144983,71.4207577 55.0369428,71.4146805 54.93,71.4258372 C54.816,71.4398372 54.703,71.4498372 54.593,71.4638372 C54.484,71.4738372 54.383,71.4748372 54.293,71.4668372 C54.2079504,71.4623369 54.1300562,71.417826 54.083,71.3468372 C53.834,70.9018372 53.603,70.4308372 53.39,69.9398372 C53.177,69.4468372 52.97,68.9518372 52.77,68.4468372 C52.57,67.9448372 52.37,67.4418372 52.168,66.9418372 C51.968,66.4418372 51.758,65.9568372 51.538,65.4858372 C51.636,65.4398372 51.748,65.4018372 51.876,65.3738372 C52.1373636,65.3222408 52.4049035,65.3094366 52.67,65.3358372 Z M36.231,66.8758372 C36.178569,67.5078024 36.1528794,68.1417018 36.154,68.7758372 C36.154,69.4398372 36.18,70.0728372 36.231,70.6778372 C36.709,70.7258372 37.156,70.7058372 37.571,70.6178372 C37.9504703,70.5466647 38.3072047,70.3851053 38.611,70.1468372 C38.888,69.9198372 39.075,69.6258372 39.174,69.2668372 C39.273,68.9058372 39.243,68.4768372 39.083,67.9738372 C38.867,67.5738372 38.511,67.2798372 38.016,67.0888372 C37.521,66.8988372 36.926,66.8268372 36.231,66.8758372 Z M63.06,66.8608372 C62.841,66.8648372 62.63,66.8658372 62.424,66.8658372 C62.3721735,66.9551237 62.341074,67.0549155 62.333,67.1578372 C62.3158729,67.2958352 62.3075228,67.4347813 62.3079807,67.5738372 C62.3079807,67.7238372 62.311,67.8708372 62.316,68.0158372 C62.321,68.1628372 62.324,68.2898372 62.324,68.3978372 L62.869,68.3978372 C63.065,68.3978372 63.259,68.3908372 63.45,68.3758372 C63.642,68.3598372 63.819,68.3338372 63.982,68.2948372 C64.1286018,68.2634655 64.2671558,68.2021886 64.389,68.1148372 C64.4954336,68.0360547 64.5702551,67.9218722 64.6,67.7928372 C64.634,67.6628372 64.612,67.4968372 64.534,67.2968372 C64.4641576,67.1652066 64.3474666,67.0645739 64.207,67.0148372 C64.054,66.9548372 63.879,66.9148372 63.683,66.8928372 C63.4762204,66.8689893 63.2681348,66.8583011 63.06,66.8608372 Z M40,60.7128372 C40.851,60.7448372 44.39,60.7628372 45.255,60.7678372 C45.8735714,60.7706944 48.5395918,60.7730413 50.3226676,60.7741492 L51.9944472,60.7744247 C53.0496359,60.7692572 56.4964146,60.7194226 62.179,60.8478372 C62.375,60.8518372 62.28,61.2948372 62.291,61.5478372 C62.302,61.8018372 62.308,62.0348372 62.308,62.2498372 L40,62.2498372 L40,60.7128372 Z M29.231,26.1298372 L29.231,34.7198372 L24.012,34.7198372 L24.012,31.3298372 L17.76,31.3298372 L17.76,51.7378372 L21.185,51.7378372 L21.185,56.8698372 L8.079,56.8698372 L8.079,51.7378372 L11.5,51.7378372 L11.5,31.3298372 L5.217,31.3298372 L5.217,34.7198372 L0,34.7198372 L0,26.1298372 L29.231,26.1298372 Z M81.566,26.1298372 L81.566,31.2998372 L79.503,31.2998372 L79.503,38.2178372 L91.653,38.2178372 L91.653,31.2998372 L89.203,31.2998372 L89.203,26.1298372 L100,26.1298372 L100,31.2998372 L97.84,31.2998372 L97.84,51.7318372 L100,51.7318372 L100,56.8698372 L89.203,56.8698372 L89.203,51.7318372 L91.653,51.7318372 L91.653,43.4218372 L79.503,43.4218372 L79.503,51.7318372 L81.566,51.7318372 L81.566,56.8698372 L70.769,56.8698372 L70.769,51.7318372 L73.315,51.7318372 L73.315,31.2998372 L70.769,31.2998372 L70.769,26.1298372 L81.566,26.1298372 Z M39.231,21.5188372 C40.082,21.5498372 43.621,21.5688372 44.486,21.5738372 C45.0427143,21.5764086 47.257449,21.5781535 48.9947442,21.5790719 L51.2254472,21.5794316 C52.2806359,21.5743524 55.7274146,21.5254226 61.41,21.6538372 C61.606,21.6568372 61.51,22.0998372 61.522,22.3538372 C61.533,22.6078372 61.538,22.8408372 61.538,23.0558372 L39.231,23.0558372 L39.231,21.5188372 Z M63.046,11.5308372 C63.456,11.5448372 63.853,11.6128372 64.235,11.7318372 C64.617,11.8528372 64.935,12.0248372 65.189,12.2488372 C65.079,12.4388372 64.949,12.6188372 64.799,12.7908372 C64.649,12.9628372 64.492,13.0988372 64.329,13.1948372 C64.237,13.1498372 64.119,13.0948372 63.976,13.0318372 C63.6601825,12.8952823 63.3296635,12.7956233 62.991,12.7348372 C62.811,12.7048372 62.641,12.6968372 62.478,12.7138372 C62.321113,12.7286967 62.1689598,12.7756702 62.031,12.8518372 C61.8942971,12.9302941 61.7863478,13.0505105 61.723,13.1948372 C61.795,13.3668372 61.903,13.5088372 62.046,13.6178372 C62.19,13.7268372 62.353,13.8148372 62.536,13.8808372 C62.718,13.9468372 62.913,14.0018372 63.123,14.0478372 C63.333,14.0928372 63.537,14.1408372 63.736,14.1908372 C63.935,14.2378372 64.124,14.2958372 64.305,14.3628372 C64.4714788,14.4208086 64.6255114,14.5096997 64.759,14.6248372 C64.871,14.6708372 64.956,14.7348372 65.019,14.8138372 C65.081,14.8938372 65.138,14.9568372 65.189,15.0048372 C65.353,15.3828372 65.414,15.7298372 65.372,16.0458372 C65.3355879,16.3465023 65.2149527,16.6307577 65.024,16.8658372 C64.834,17.0998372 64.584,17.2848372 64.274,17.4218372 C63.964,17.5598372 63.62,17.6418372 63.241,17.6648372 C62.8947764,17.6875988 62.547164,17.6768825 62.203,17.6328372 C61.9084293,17.5941775 61.6181498,17.5278853 61.336,17.4348372 C61.0844692,17.3520802 60.8419121,17.2442026 60.612,17.1128372 C60.3995469,16.9910671 60.1951269,16.8557891 60,16.7078372 C60.11,16.5648372 60.243,16.4228372 60.396,16.2808372 C60.55,16.1408372 60.708,16.0028372 60.871,15.8638372 C61.0030166,15.9419054 61.1384876,16.0139787 61.277,16.0798372 C61.444,16.1598372 61.623,16.2358372 61.816,16.3088372 C62.009,16.3788372 62.209,16.4398372 62.418,16.4888372 C62.627,16.5358372 62.824,16.5578372 63.012,16.5488372 C63.1896355,16.5418739 63.3640724,16.4993697 63.525,16.4238372 C63.6879046,16.3431519 63.8189313,16.2100119 63.897,16.0458372 L63.897,15.9588372 C63.8551306,15.7855809 63.7526103,15.633042 63.608,15.5288372 C63.463547,15.4302036 63.3032116,15.3571394 63.134,15.3128372 C62.9529464,15.2665594 62.7692845,15.2311627 62.584,15.2068372 C62.4058235,15.1819866 62.2294514,15.1455765 62.056,15.0978372 C61.7108435,15.0158984 61.3826021,14.8744501 61.086,14.6798372 C60.831058,14.5135342 60.6112364,14.2988088 60.439,14.0478372 C60.257,13.6058372 60.213,13.2228372 60.307,12.8998372 C60.403,12.5738372 60.583,12.3098372 60.851,12.1018372 C61.118,11.8968372 61.449,11.7468372 61.841,11.6518372 C62.2350643,11.5555406 62.6406571,11.5148131 63.046,11.5308372 Z M47.841,11.5998372 C48.303,11.6628372 48.707,11.7818372 49.052,11.9598372 C49.397,12.1398372 49.654,12.4128372 49.824,12.7808372 C50.012,13.3468372 50.049,13.8348372 49.937,14.2478372 C49.8298072,14.6505402 49.588095,15.0044633 49.252,15.2508372 C48.91,15.5058372 48.474,15.6828372 47.943,15.7758372 C47.3598776,15.8731682 46.7657729,15.8859664 46.179,15.8138372 C46.1278851,15.9607741 46.1018552,16.1152636 46.102,16.2708372 C46.102,16.4298372 46.11,16.5868372 46.126,16.7438372 C46.143,16.9018372 46.152,17.0598372 46.156,17.2168372 C46.159,17.3748372 46.135,17.5268372 46.082,17.6758372 L44.684,17.6758372 C44.678,16.6898372 44.661,15.6758372 44.631,14.6358372 C44.6016266,13.6224574 44.6129691,12.6083066 44.665,11.5958372 C45.232,11.5728372 45.787,11.5518372 46.332,11.5338372 C46.8359593,11.5142076 47.3406789,11.5362828 47.841,11.5998372 Z M39.996,11.5278372 C40.14,11.5278372 40.28,11.5388372 40.418,11.5618372 C40.557,11.5868372 40.673,11.6218372 40.769,11.6698372 C40.7207077,12.6473761 40.7040323,13.6262207 40.719,14.6048372 C40.7342526,15.6067593 40.7182448,16.6089134 40.671,17.6098372 L39.322,17.6098372 L39.322,13.8708372 C39.161897,14.0272154 39.0227378,14.2036854 38.908,14.3958372 C38.783,14.6028372 38.656,14.8178372 38.528,15.0398372 C38.398,15.2618372 38.263,15.4798372 38.122,15.6968372 C37.982,15.9118372 37.828,16.1068372 37.66,16.2798372 C37.4693523,16.1092704 37.3001145,15.9161915 37.156,15.7048372 C37.0117058,15.4951297 36.8765787,15.27926 36.751,15.0578372 C36.625589,14.8352882 36.4969084,14.6145977 36.365,14.3958372 C36.2345544,14.1781566 36.0838885,13.973251 35.915,13.7838372 L35.915,17.6098372 C35.6839238,17.6625813 35.4467668,17.683774 35.21,17.6728372 C35.0980355,17.6676738 34.986842,17.6515977 34.878,17.6248372 C34.7963399,17.6068076 34.7206231,17.5682609 34.658,17.5128372 C34.658,17.0328372 34.653,16.5448372 34.644,16.0478372 C34.6356198,15.5505199 34.6282865,15.0531854 34.622,14.5558372 C34.6156433,14.064531 34.6139765,13.5731753 34.617,13.0818372 C34.62,12.5958372 34.634,12.1248372 34.657,11.6698372 C34.754,11.6458372 34.86,11.6328372 34.977,11.6298372 C35.2272355,11.6292256 35.4774076,11.6378982 35.727,11.6558372 C35.859,11.6658372 35.984,11.6698372 36.105,11.6698372 C36.356,12.0548372 36.607,12.4558372 36.855,12.8678372 C37.104,13.2828372 37.372,13.6828372 37.66,14.0678372 C37.804,13.9018372 37.939,13.7158372 38.063,13.5078372 C38.189,13.2998372 38.315,13.0878372 38.437,12.8678372 C38.56,12.6498372 38.684,12.4358372 38.81,12.2298372 C38.936,12.0228372 39.07,11.8358372 39.214,11.6698372 C39.309,11.6228372 39.429,11.5868372 39.569,11.5618372 C39.71,11.5388372 39.853,11.5278372 39.996,11.5278372 Z M54.19,11.5448372 C54.309,11.5588372 54.42,11.5908372 54.522,11.6378372 C54.522,12.0278372 54.518,12.4278372 54.509,12.8378372 C54.499,13.2478372 54.492,13.6548372 54.487,14.0648372 C54.4805775,14.4681369 54.4789107,14.8714983 54.482,15.2748372 C54.485,15.6718372 54.499,16.0508372 54.522,16.4128372 C54.747,16.4358372 54.993,16.4508372 55.261,16.4528372 C55.527,16.4558372 55.798,16.4568372 56.071,16.4568372 C56.344,16.4568372 56.614,16.4588372 56.881,16.4618372 C57.149,16.4638372 57.394,16.4778372 57.621,16.5018372 C57.6475553,16.5867934 57.6653151,16.6742522 57.674,16.7628372 C57.6979266,16.9788433 57.6979266,17.1968311 57.674,17.4128372 C57.663,17.5168372 57.644,17.6048372 57.62,17.6758372 L53.12,17.6758372 C53.12,17.1888372 53.116,16.6928372 53.106,16.1848372 C53.096,15.6788372 53.09,15.1698372 53.083,14.6558372 C53.0768941,14.1458609 53.0755607,13.6358385 53.079,13.1258372 C53.082,12.6208372 53.096,12.1228372 53.12,11.6378372 C53.223,11.6138372 53.336,11.5918372 53.456,11.5698372 C53.579,11.5498372 53.701,11.5368372 53.826,11.5298372 C53.95,11.5238372 54.072,11.5298372 54.19,11.5448372 Z M46.734,12.2958372 C46.5399424,12.2904296 46.3457974,12.3028147 46.154,12.3328372 L46.153,12.3328372 L46.153,13.5008372 C46.153,13.8628372 46.157,14.2218372 46.163,14.5798372 C46.453,14.6098372 46.753,14.6098372 47.063,14.5798372 C47.3443436,14.5582734 47.6191208,14.4839818 47.873,14.3608372 C48.105,14.2418372 48.275,14.0688372 48.38,13.8388372 C48.487,13.6108372 48.488,13.3018372 48.385,12.9138372 C48.327,12.7718372 48.208,12.6558372 48.028,12.5658372 C47.8353206,12.4710954 47.6303338,12.4037763 47.419,12.3658372 C47.1930172,12.3234494 46.9638854,12.3000345 46.734,12.2958372 Z" />
  </symbol>
  <symbol viewBox="0 0 84 73" id="icon-Logo-Flag">
    <title>Logo-Flag</title>
    <path d="M0,0 L84,0 L84,72.188 L0,72.188 L0,0 Z M35.998,18.7479978 C35.912,18.7479978 35.826,18.755 35.741,18.768 C35.6674766,18.7792663 35.5958226,18.8004597 35.528,18.831 C35.4383153,18.9333835 35.3573655,19.0431005 35.286,19.159 C35.211,19.279 35.136,19.405 35.062,19.533 C34.989,19.661 34.913,19.786 34.838,19.908 C34.763,20.029 34.682,20.138 34.596,20.235 C34.4230823,20.0094274 34.2618698,19.7751184 34.113,19.533 C33.963,19.291 33.813,19.057 33.663,18.831 C33.591,18.831 33.515,18.829 33.436,18.823 C33.2862302,18.8125708 33.1361319,18.8075675 32.986,18.808 C32.9216995,18.8088965 32.8576752,18.8166062 32.795,18.831 C32.78,19.098 32.772,19.373 32.77,19.658 C32.768,19.942 32.77,20.23 32.773,20.521 L32.786,21.394 C32.792,21.685 32.795,21.971 32.795,22.252 C32.824,22.28 32.867,22.302 32.927,22.317 C32.987,22.332 33.053,22.342 33.127,22.345 C33.2686375,22.3516002 33.4105271,22.3394959 33.549,22.309 L33.549,20.069 C33.65,20.179 33.74,20.299 33.819,20.427 C33.898,20.555 33.975,20.685 34.051,20.815 C34.126,20.945 34.207,21.071 34.294,21.194 C34.38,21.317 34.48,21.429 34.596,21.53 C34.696,21.429 34.789,21.315 34.873,21.189 C34.958,21.062 35.039,20.934 35.116,20.804 C35.194,20.674 35.27,20.548 35.345,20.427 C35.421,20.307 35.503,20.204 35.593,20.12 L35.593,22.309 L36.403,22.309 C36.431,21.717 36.441,21.13 36.431,20.549 C36.423,19.969 36.433,19.397 36.461,18.831 C36.3941188,18.8007395 36.3234938,18.779552 36.251,18.768 C36.1673409,18.7545472 36.0827337,18.7478589 35.998,18.7479978 L35.998,18.7479978 Z M40.766,21.235 C41.084,21.181 41.346,21.077 41.551,20.928 C41.756,20.778 41.893,20.583 41.962,20.34 C42.03,20.1 42.007,19.813 41.894,19.482 C41.7992059,19.273688 41.6357599,19.1042408 41.431,19.002 C41.2025579,18.891232 40.9571525,18.8195709 40.705,18.79 C40.4045148,18.7529719 40.1015305,18.7402639 39.799,18.752 C39.472,18.762 39.139,18.774 38.799,18.788 C38.768,19.366 38.761,19.958 38.779,20.568 C38.796,21.177 38.807,21.77 38.811,22.348 L39.649,22.348 C39.6803103,22.261861 39.6952335,22.1706257 39.693,22.079 C39.6910862,21.9864465 39.6850803,21.8940229 39.675,21.802 C39.6655519,21.7099705 39.660879,21.6175132 39.661,21.525 C39.661,21.434 39.677,21.343 39.707,21.257 C40.095,21.298 40.447,21.292 40.766,21.235 L40.766,21.235 Z M39.692,19.22 C39.786,19.204 39.901,19.197 40.04,19.198 C40.18,19.201 40.316,19.214 40.451,19.239 C40.587,19.264 40.708,19.303 40.817,19.356 C40.925,19.409 40.997,19.476 41.031,19.56 C41.093,19.787 41.092,19.968 41.028,20.101 C40.9648535,20.2349119 40.857495,20.3429768 40.724,20.407 C40.584,20.475 40.424,20.519 40.237,20.535 C40.0574043,20.552061 39.8765957,20.552061 39.697,20.535 C39.694,20.325 39.692,20.115 39.692,19.903 L39.692,19.22 L39.692,19.22 Z M44.706,19.515 C44.711,19.275 44.713,19.041 44.713,18.813 C44.6496319,18.784287 44.5821394,18.7657266 44.513,18.758 C44.4410452,18.7489254 44.3684276,18.7462483 44.296,18.75 C44.2216129,18.7533054 44.1474848,18.7609853 44.074,18.773 C44.001,18.786 43.934,18.799 43.872,18.813 C43.857,19.096 43.849,19.388 43.847,19.683 C43.845,19.982 43.846,20.28 43.85,20.579 C43.854,20.88 43.858,21.179 43.864,21.474 C43.869,21.772 43.872,22.062 43.872,22.347 L46.572,22.347 C46.5882363,22.2972716 46.5992949,22.2459998 46.605,22.194 C46.6196256,22.0677555 46.6196256,21.9402445 46.605,21.814 C46.5994722,21.7616449 46.5884104,21.7100232 46.572,21.66 C46.4247849,21.6452689 46.2769491,21.6375935 46.129,21.637 C45.969,21.635 45.807,21.634 45.643,21.634 C45.479,21.634 45.316,21.634 45.156,21.631 C45.0080591,21.6301177 44.8602368,21.622443 44.713,21.608 C44.6985879,21.3862775 44.6905845,21.1641848 44.689,20.942 C44.687,20.709 44.689,20.472 44.692,20.233 C44.695,19.993 44.7,19.755 44.706,19.515 L44.706,19.515 Z M50.116,21.615 C50.0187196,21.6590354 49.9137255,21.6835001 49.807,21.687 C49.687305,21.6912122 49.5675829,21.6794417 49.451,21.652 C49.328322,21.6243487 49.2074336,21.5892844 49.089,21.547 C48.9794915,21.5069091 48.8717285,21.4622024 48.766,21.413 C48.666,21.365 48.586,21.323 48.522,21.287 C48.425,21.367 48.33,21.449 48.238,21.531 C48.1518026,21.6075182 48.072189,21.6911459 48,21.781 C48.113,21.865 48.236,21.944 48.367,22.018 C48.497,22.092 48.643,22.154 48.802,22.206 C48.96,22.258 49.133,22.296 49.322,22.322 C49.51,22.347 49.717,22.354 49.945,22.341 C50.172,22.327 50.379,22.28 50.565,22.198 C50.7386065,22.1272775 50.8928653,22.0162111 51.015,21.874 C51.1288325,21.7371976 51.2010222,21.570606 51.223,21.394 C51.2442854,21.1843736 51.2061666,20.9729875 51.113,20.784 C51.0758544,20.7496575 51.0417289,20.7121863 51.011,20.672 C50.9693587,20.6224911 50.9156177,20.5845968 50.855,20.562 C50.7746991,20.4941984 50.6824546,20.4419717 50.583,20.408 C50.4713862,20.3680286 50.357524,20.3346379 50.242,20.308 C50.122,20.278 49.999,20.25 49.874,20.223 C49.7543586,20.1983382 49.636444,20.1659368 49.521,20.126 C49.416245,20.0894619 49.3175002,20.0375619 49.228,19.972 C49.1423747,19.9081126 49.0753939,19.8224877 49.034,19.724 C49.0727198,19.6392834 49.1375528,19.5691937 49.219,19.524 C49.299,19.479 49.388,19.453 49.487,19.443 C49.584,19.433 49.687,19.437 49.795,19.455 C49.9976689,19.4902665 50.1956276,19.5486475 50.385,19.629 C50.471,19.666 50.542,19.699 50.597,19.724 C50.695,19.668 50.789,19.588 50.879,19.488 C50.969,19.387 51.047,19.281 51.113,19.17 C50.9453293,19.0307709 50.7505398,18.9279275 50.541,18.868 C50.0746354,18.7252262 49.5786973,18.7090055 49.104,18.821 C48.8902555,18.8672038 48.6883665,18.9570836 48.511,19.085 C48.3539032,19.2007573 48.2390477,19.3647864 48.184,19.552 C48.128,19.741 48.154,19.965 48.264,20.223 C48.362,20.365 48.491,20.489 48.652,20.593 C48.812,20.7 49.006,20.781 49.234,20.838 C49.331,20.865 49.437,20.886 49.551,20.902 C49.665,20.917 49.774,20.937 49.881,20.964 C49.986,20.991 50.081,21.034 50.165,21.09 C50.2511871,21.1503711 50.3126326,21.2398756 50.338,21.342 L50.338,21.393 C50.2905413,21.4895812 50.2120049,21.5674133 50.115,21.614 L50.116,21.615 Z M35.538,24.597 L35.538,25.497 L48.923,25.497 C48.9227021,25.359943 48.919368,25.2229093 48.913,25.086 C48.907,24.937 48.963,24.678 48.846,24.676 C45.262,24.596 43.16,24.633 42.649,24.633 C42.139,24.633 39.211,24.631 38.692,24.629 C38.172,24.626 36.049,24.615 35.538,24.597 L35.538,24.597 Z M35.976,50.916 C35.8162825,50.7591633 35.6278499,50.6345601 35.421,50.549 C35.1887695,50.4522579 34.9466673,50.3811698 34.699,50.337 C34.434,50.287 34.149,50.257 33.844,50.248 C33.54,50.238 33.224,50.238 32.896,50.246 C32.866,50.246 32.846,50.257 32.839,50.279 C32.8353576,50.2886002 32.8333302,50.2987373 32.833,50.309 C32.8000542,50.9611861 32.7810499,51.6140018 32.776,52.267 C32.771339,52.6033132 32.769,52.9396545 32.769,53.276 L32.769,54.226 C32.896,54.256 33.034,54.275 33.183,54.28 C33.331,54.286 33.483,54.286 33.64,54.283 L34.107,54.272 C34.263,54.268 34.412,54.274 34.555,54.289 C34.825,54.228 35.07,54.14 35.292,54.029 C35.5048694,53.9215159 35.6987549,53.7799862 35.866,53.61 C36.028,53.443 36.16,53.25 36.262,53.029 C36.365,52.808 36.431,52.554 36.462,52.267 C36.462,51.961 36.419,51.698 36.334,51.477 C36.2562381,51.2665106 36.1341483,51.0751911 35.976,50.916 L35.976,50.916 Z M35.505,52.548 C35.4500885,52.7515502 35.3312528,52.9320823 35.166,53.063 C34.9827578,53.2030599 34.7689023,53.2976499 34.542,53.339 C34.2772947,53.3911133 34.0062325,53.4029133 33.738,53.374 C33.708,53.02 33.692,52.649 33.692,52.261 C33.692,51.874 33.708,51.502 33.738,51.149 C34.155,51.12 34.513,51.162 34.809,51.273 C35.106,51.385 35.32,51.557 35.449,51.791 C35.546,52.086 35.564,52.337 35.505,52.548 L35.505,52.548 Z M39.763,53.192 C39.928,53.379 40.098,53.562 40.272,53.742 C40.445,53.924 40.632,54.098 40.828,54.266 C40.876,54.266 40.93,54.267 40.991,54.273 C41.052,54.278 41.116,54.283 41.181,54.286 C41.246,54.289 41.31,54.29 41.373,54.289 C41.4287263,54.2880157 41.4841288,54.2802929 41.538,54.266 L41.538,50.78 C41.4000125,50.7517357 41.2598046,50.7356738 41.119,50.732 C40.9777168,50.7271306 40.8363663,50.7244637 40.695,50.724 C40.647,50.878 40.617,51.044 40.605,51.224 C40.593,51.404 40.589,51.586 40.591,51.772 C40.593,51.958 40.599,52.145 40.611,52.331 C40.623,52.518 40.629,52.694 40.629,52.861 C40.4520431,52.6939356 40.2819045,52.5197938 40.119,52.339 C39.9564472,52.1586737 39.7957719,51.9766639 39.637,51.793 L39.167,51.249 C39.012,51.069 38.853,50.895 38.691,50.724 C38.5511277,50.696298 38.408472,50.6852212 38.266,50.691 C38.116,50.696 37.976,50.726 37.846,50.781 L37.846,54.266 L38.744,54.266 C38.776,53.924 38.784,53.565 38.768,53.189 C38.7521592,52.81721 38.7441575,52.4451273 38.744,52.073 C38.926,52.257 39.1,52.443 39.266,52.63 C39.431,52.818 39.596,53.005 39.763,53.192 L39.763,53.192 Z M45.735,50.278 C45.589,50.695 45.433,51.107 45.267,51.516 C45.101,51.924 44.945,52.323 44.8,52.712 C44.625,52.323 44.46,51.916 44.302,51.495 C44.1496048,51.0838985 43.9835121,50.6780052 43.804,50.278 C43.7373866,50.2636407 43.6699114,50.2536196 43.602,50.248 C43.4430988,50.2324874 43.2827929,50.2398965 43.126,50.27 C43.0561135,50.2839992 42.9880201,50.3058025 42.923,50.335 C43.054,50.611 43.181,50.895 43.301,51.187 L43.661,52.068 C43.782,52.364 43.906,52.654 44.034,52.942 C44.161,53.23 44.3,53.505 44.45,53.766 C44.479,53.808 44.52,53.831 44.576,53.836 C44.635937,53.8407788 44.696184,53.8401094 44.756,53.834 L44.958,53.812 C45.0221298,53.8052967 45.0869136,53.8086709 45.15,53.822 C45.267,53.52 45.387,53.222 45.51,52.929 C45.7562091,52.3512319 46.0042103,51.7742291 46.254,51.198 C46.379,50.912 46.499,50.624 46.615,50.335 C46.4786234,50.3050072 46.3396117,50.2885938 46.2,50.286 C46.04,50.281 45.884,50.278 45.735,50.278 L45.735,50.278 Z M49.286,53.528 L49.273,53.234 C49.2698214,53.1356997 49.2691545,53.0373343 49.271,52.939 C49.2726621,52.8485487 49.2806819,52.7583263 49.295,52.669 C49.356,52.681 49.414,52.686 49.468,52.683 C49.522,52.68 49.575,52.675 49.628,52.668 C49.68,52.662 49.732,52.656 49.785,52.653 C49.8420882,52.6500881 49.8993038,52.6551366 49.955,52.668 C50.031,52.754 50.101,52.846 50.164,52.947 L50.353,53.252 C50.416,53.354 50.483,53.452 50.553,53.548 C50.623,53.644 50.704,53.728 50.794,53.798 L51.692,53.798 C51.6442116,53.6909213 51.5866336,53.588486 51.52,53.492 C51.4456355,53.3839455 51.3679313,53.2782278 51.287,53.175 C51.204,53.069 51.12,52.965 51.035,52.86 C50.9534591,52.7598927 50.8734498,52.6585476 50.795,52.556 C50.8792954,52.530627 50.959218,52.4925204 51.032,52.443 C51.1051906,52.3935638 51.1854292,52.3554674 51.27,52.33 L51.4,52.115 C51.5541647,51.8547445 51.6347015,51.5574844 51.633,51.255 C51.6207524,51.0726518 51.5577073,50.8973725 51.451,50.749 C51.3488384,50.6171691 51.2164419,50.5118693 51.065,50.442 C50.8916071,50.3626309 50.7071745,50.3100322 50.518,50.286 C50.3026083,50.2561243 50.0854524,50.2407564 49.868,50.24 C49.641,50.239 49.406,50.245 49.165,50.258 C48.923,50.272 48.689,50.284 48.462,50.294 L48.462,53.8 C48.58,53.827 48.719,53.84 48.878,53.84 C49.037,53.84 49.175,53.827 49.295,53.8 C49.295,53.714 49.292,53.625 49.286,53.529 L49.286,53.528 Z M49.4,51.314 C49.4046875,51.2536207 49.4231611,51.195121 49.454,51.143 C49.577,51.143 49.704,51.143 49.836,51.14 C49.967,51.139 50.091,51.145 50.21,51.159 C50.327,51.171 50.432,51.195 50.524,51.23 C50.614,51.265 50.681,51.32 50.721,51.395 C50.767,51.512 50.781,51.61 50.76,51.685 C50.741844,51.7612539 50.6967403,51.8283768 50.633,51.874 C50.5595962,51.925126 50.4765921,51.9608449 50.389,51.979 C50.2839662,52.0026871 50.1773535,52.0187291 50.07,52.027 C49.9538669,52.0356372 49.8374539,52.0399735 49.721,52.04 L49.394,52.04 C49.394,51.977 49.393,51.902 49.39,51.816 C49.3865651,51.7297099 49.3848981,51.6433584 49.3849956,51.557 C49.3849956,51.47 49.39,51.389 49.4,51.314 L49.4,51.314 Z M36,47.54 L36,48.44 L49.385,48.44 C49.3847021,48.302943 49.381368,48.1659093 49.375,48.029 C49.368,47.88 49.425,47.621 49.307,47.619 C45.723,47.539 43.621,47.576 43.111,47.576 C42.6,47.576 39.673,47.575 39.153,47.572 C38.633,47.569 36.511,47.558 36,47.54 L36,47.54 Z M65.522,27.295 L65.522,30.322 L66.992,30.322 L66.992,34.372 L59.702,34.372 L59.702,30.322 L60.939,30.322 L60.939,27.295 L54.462,27.295 L54.462,30.322 L55.989,30.322 L55.989,42.282 L54.462,42.282 L54.462,45.29 L60.939,45.29 L60.939,42.282 L59.702,42.282 L59.702,37.42 L66.992,37.42 L66.992,42.284 L65.522,42.284 L65.522,45.292 L72,45.292 L72,42.284 L70.704,42.284 L70.704,30.324 L72,30.324 L72,27.297 L65.522,27.297 L65.522,27.295 Z M62.77,58.573 L63.03,58.556 C63.18,58.598 63.33,58.717 63.491,58.88 C64.043,59.446 64.591,60.014 65.196,60.519 C65.35,60.649 65.702,60.553 65.962,60.561 C65.962,60.309 66.044,60.013 65.94,59.811 C65.808,59.554 65.514,59.382 65.308,59.155 C64.796,58.582 64.291,57.996 63.782,57.41 C64,57.246 64.145,57.134 64.262,57.039 C64.356,56.963 64.389,56.932 64.422,56.901 C64.492,56.833 64.508,56.811 64.526,56.787 C64.581,56.678 64.588,56.664 64.59,56.652 C64.5569763,56.5338561 64.4986248,56.4243191 64.419,56.331 C64.39,56.291 64.357,56.253 64.329,56.214 C64.253,56.118 64.177,56.022 64.099,55.927 C64.0672042,55.8882164 64.0348678,55.8498794 64.002,55.812 C63.922,55.722 63.91,55.707 63.897,55.694 L63.787,55.581 L63.669,55.473 C63.628624,55.43914 63.5872732,55.4064595 63.545,55.375 C63.5024774,55.3454457 63.4591267,55.317101 63.415,55.29 C63.303,55.23 63.289,55.224 63.275,55.218 C63.16,55.171 63.143,55.166 63.127,55.162 C63.007,55.13 62.987,55.128 62.967,55.124 C62.845,55.109 62.821,55.109 62.797,55.108 C62.67,55.108 62.64,55.112 62.61,55.116 C62.4402673,55.1377055 62.273747,55.1796713 62.114,55.241 C62.0466297,55.2418071 61.9794284,55.2340789 61.914,55.218 C61.863,55.202 61.811,55.183 61.757,55.17 C61.8522689,55.0272638 61.9456107,54.8832507 62.037,54.738 C62.0701293,54.6840678 62.1008268,54.628679 62.129,54.572 C62.1794972,54.4784331 62.2072464,54.374288 62.21,54.268 C62.2087828,54.2170557 62.1989785,54.166682 62.181,54.119 C62.098,53.914 61.895,53.705 61.544,53.358 C61.041,52.867 60.48,52.431 59.929,51.996 C59.8023278,51.8994666 59.669735,51.8109601 59.532,51.731 C59.349,51.624 59.197,51.538 59.045,51.446 C58.95,51.134 58.824,50.842 58.615,50.77 C58.3538704,50.6781174 58.0969505,50.5746822 57.845,50.46 C57.778,50.43 57.715,50.394 57.65,50.362 C57.4695018,50.2769922 57.2917458,50.1862799 57.117,50.09 C56.985,50.016 56.857,49.937 56.73,49.857 C56.65,49.808 56.567,49.762 56.488,49.711 C56.2799631,49.5745419 56.0758793,49.4321501 55.876,49.284 C54.746,48.436 53.771,47.439 52.796,46.437 C50.368,43.939 47.913,41.467 45.46,38.997 C44.565,38.097 43.667,37.2 42.772,36.3 C45.131,33.983 47.492,31.667 49.844,29.343 C52.63,26.593 55.356,23.773 58.209,21.089 C58.579,20.741 58.932,20.369 59.291,20.002 C59.434,19.852 59.581,19.704 59.728,19.564 C59.834,19.459 59.944,19.357 60.053,19.255 C60.2885311,19.0353127 60.5359005,18.8286708 60.794,18.636 C60.901,18.556 61.014,18.483 61.124,18.409 C61.217,18.409 61.287,18.404 61.354,18.405 C61.489,18.422 61.52,18.424 61.548,18.431 C61.599,18.444 61.648,18.461 61.692,18.479 C61.828,18.552 61.842,18.56 61.855,18.57 C61.975,18.66 61.996,18.68 62.015,18.697 C62.15,18.67 62.251,18.514 62.375,18.323 C63.53,16.617 66.314,12.986 66.314,12.986 C66.314,12.986 66.879,11.994 65.8,12.726 C64.721,13.451 59.882,17.052 59.882,17.052 C59.986,17.066 60.012,17.072 60.038,17.081 C60.161,17.137 60.172,17.145 60.182,17.152 C60.332,17.3 60.372,17.382 60.409,17.469 C60.3485366,17.5656575 60.2817231,17.6581943 60.209,17.746 C60.142113,17.8248955 60.0734284,17.9022491 60.003,17.978 C59.663,18.342 59.321,18.703 58.976,19.062 L58.824,19.22 C58.498,19.557 58.17,19.892 57.839,20.223 C56.557,21.494 55.259,22.751 53.969,24.011 C50.011,27.881 46.052,31.749 42.096,35.621 C39.736,33.25 37.377,30.877 35.011,28.512 C32.242,25.745 29.403,23.035 26.703,20.202 C26.353,19.835 25.978,19.484 25.609,19.127 C25.458,18.985 25.309,18.84 25.168,18.693 C25.062,18.587 24.96,18.478 24.858,18.37 C24.7371123,18.2431643 24.6203839,18.1124284 24.508,17.978 C24.3276918,17.7649342 24.1603886,17.5411953 24.007,17.308 C24.01,17.218 24.005,17.148 24.007,17.082 C24.025,16.95 24.027,16.92 24.035,16.892 C24.0481353,16.8436907 24.0651919,16.7965341 24.086,16.751 C24.161,16.62 24.17,16.606 24.179,16.593 C24.2192561,16.5385447 24.2630154,16.4867686 24.31,16.438 C24.285,16.302 24.126,16.203 23.933,16.078 C22.211,14.925 18.547,12.15 18.547,12.15 C18.547,12.15 17.543,11.584 18.275,12.653 C19.003,13.72 22.613,18.515 22.613,18.515 C22.618375,18.4627079 22.6290978,18.4111047 22.645,18.361 C22.6646298,18.3118401 22.6894362,18.2649091 22.719,18.221 C22.8093911,18.1241365 22.9204869,18.0489332 23.044,18.001 C23.19,18.095 23.257,18.147 23.324,18.201 C23.449,18.306 23.504,18.356 23.558,18.406 C23.923,18.744 24.288,19.084 24.649,19.426 L24.808,19.578 C25.148,19.901 25.485,20.227 25.818,20.556 C27.098,21.83 28.363,23.119 29.63,24.402 C33.557,28.364 37.482,32.33 41.41,36.292 L40.876,36.814 C37.333,40.282 33.798,43.762 30.246,47.219 C29.444,47.999 28.633,48.749 27.694,49.336 C27.498,49.456 27.35,49.543 27.199,49.626 C26.7302886,49.8791025 26.2379447,50.085753 25.729,50.243 C25.5899382,50.2864644 25.4539635,50.3392506 25.322,50.401 C25.254,50.432 25.204,50.461 25.152,50.487 C25.094,50.517 25.034,50.547 24.977,50.582 C24.886,50.634 24.796,50.688 24.707,50.747 C24.527,50.869 24.454,50.919 24.381,50.972 C24.069,51.2 23.847,51.371 23.621,51.542 C23.467,51.656 23.398,51.708 23.328,51.758 C23.224,51.833 23.119,51.906 23.013,51.978 L23.179,52.156 C23.314,52.3 23.419,52.414 23.557,52.56 C23.3138236,52.5325991 23.0679691,52.5403452 22.827,52.583 C22.5665639,52.6370179 22.3161962,52.7314963 22.085,52.863 C21.9813212,52.922853 21.8805412,52.9875925 21.783,53.057 C21.725,53.097 21.694,53.122 21.658,53.147 C21.354,53.383 21.103,53.614 20.846,53.824 L20.693,53.945 L20.574,54.045 C20.4963292,54.1113691 20.4219092,54.1814507 20.351,54.255 C20.255,54.355 20.193,54.425 20.132,54.495 C19.936,54.729 19.792,54.918 19.644,55.106 C19.59,55.175 19.536,55.243 19.481,55.309 C19.3763263,55.4379458 19.2662272,55.5623911 19.151,55.682 C18.781,56.049 18.625,56.319 19.175,56.606 C19.385,56.716 19.51,56.829 19.559,56.948 L19.579,57.204 C19.538,57.352 19.419,57.499 19.254,57.66 C18.684,58.208 18.112,58.754 17.606,59.353 C17.475,59.506 17.576,59.851 17.57,60.106 C17.827,60.104 18.129,60.181 18.334,60.076 C18.594,59.944 18.766,59.654 18.994,59.449 C19.572,58.939 20.162,58.437 20.753,57.931 C20.923,58.143 21.038,58.284 21.136,58.398 C21.214,58.489 21.246,58.522 21.278,58.553 C21.348,58.622 21.371,58.637 21.395,58.655 C21.507,58.707 21.521,58.715 21.535,58.715 C21.65363,58.6814391 21.763972,58.6235436 21.859,58.545 C21.897,58.516 21.936,58.483 21.975,58.455 C22.073,58.379 22.17,58.304 22.265,58.227 L22.382,58.13 L22.5,58.025 C22.5389567,57.9889906 22.5772956,57.9523186 22.615,57.915 L22.723,57.799 C22.806,57.696 22.813,57.686 22.821,57.675 C22.893,57.569 22.9,57.557 22.907,57.545 C22.967,57.435 22.973,57.422 22.979,57.408 C23.025,57.295 23.029,57.278 23.034,57.262 C23.064,57.145 23.067,57.125 23.07,57.105 C23.084,56.985 23.084,56.96 23.084,56.937 C23.083,56.813 23.078,56.782 23.074,56.754 C23.056,56.626 23.045,56.587 23.036,56.549 C23.0110326,56.453649 22.9796272,56.360101 22.942,56.269 C22.940113,56.2017533 22.9468342,56.1345414 22.962,56.069 C22.979,56.02 22.998,55.969 23.01,55.917 L23.227,56.053 C23.334,56.118 23.397,56.156 23.452,56.187 C23.52,56.226 23.572,56.252 23.623,56.275 C23.751,56.331 23.844,56.355 23.933,56.352 C23.9849292,56.3500569 24.0362266,56.3399325 24.085,56.322 C24.292,56.237 24.502,56.035 24.852,55.686 C25.346,55.186 25.784,54.631 26.22,54.085 C26.318,53.961 26.404,53.828 26.486,53.692 C26.593,53.511 26.679,53.36 26.77,53.21 C27.087,53.113 27.383,52.986 27.454,52.78 C27.545,52.518 27.648,52.265 27.76,52.02 C27.79,51.954 27.826,51.893 27.857,51.828 C27.944,51.65 28.032,51.473 28.129,51.301 C28.203,51.171 28.282,51.045 28.362,50.918 C28.41,50.838 28.457,50.757 28.508,50.678 C28.645,50.473 28.787,50.271 28.935,50.074 C29.786,48.954 30.79,47.984 31.799,47.016 C34.314,44.602 36.803,42.162 39.289,39.724 C40.224,38.81 41.154,37.89 42.087,36.974 L42.515,37.407 C46.005,40.925 49.507,44.437 52.985,47.966 C53.771,48.761 54.525,49.567 55.113,50.496 C55.233,50.69 55.32,50.836 55.402,50.986 C55.6540534,51.447614 55.8590833,51.9333876 56.014,52.436 C56.056,52.573 56.11,52.706 56.171,52.838 C56.201,52.906 56.231,52.955 56.257,53.006 C56.3366078,53.1567248 56.4233734,53.303559 56.517,53.446 C56.639,53.626 56.689,53.698 56.741,53.77 C56.97,54.078 57.141,54.299 57.313,54.522 L57.53,54.812 C57.605,54.916 57.68,55.019 57.75,55.125 L57.933,54.964 C58.081,54.833 58.199,54.73 58.348,54.596 C58.3178412,54.8344759 58.3232332,55.0761068 58.364,55.313 C58.4157079,55.5712794 58.5096334,55.8192698 58.642,56.047 C58.702,56.152 58.766,56.25 58.835,56.345 C58.875,56.402 58.9,56.432 58.925,56.469 C59.162,56.769 59.395,57.019 59.605,57.274 L59.727,57.426 L59.827,57.543 C59.894,57.621 59.965,57.695 60.039,57.766 C60.139,57.861 60.209,57.923 60.279,57.983 C60.515,58.178 60.708,58.323 60.897,58.469 C60.967,58.523 61.034,58.577 61.102,58.632 C61.285,58.783 61.384,58.869 61.477,58.961 C61.846,59.327 62.12,59.484 62.417,58.946 C62.532,58.741 62.647,58.619 62.77,58.573 L62.77,58.573 Z M29.538,32.325 L29.538,27.296 L12,27.296 L12,32.325 L15.13,32.325 L15.13,30.34 L18.9,30.34 L18.9,42.287 L16.847,42.287 L16.847,45.291 L24.711,45.291 L24.711,42.287 L22.657,42.287 L22.657,30.34 L26.408,30.34 L26.408,32.325 L29.538,32.325 Z" />
  </symbol>
</svg>