<svg xmlns="http://www.w3.org/2000/svg" width="455" height="939" viewBox="0 0 455 939">
  <g fill="none" fill-rule="evenodd">
    <path fill="#FFF" d="M42.9232704,0 L406.07673,0 C429.782597,0 449,19.1896403 449,42.8612613 L449,896.138739 C449,919.81036 429.782597,939 406.07673,939 L42.9232704,939 C19.2174028,939 0,919.81036 0,896.138739 L0,42.8612613 C0,19.1896403 19.2174028,0 42.9232704,0 Z"/>
    <path fill="#D8D8D8" fill-rule="nonzero" d="M149.093728 28.1981982L313.460989 28.1981982C316.575676 28.1981982 319.100629 30.7231509 319.100629 33.8378378 319.100629 36.9525248 316.575676 39.4774775 313.460989 39.4774775L149.093728 39.4774775C145.979041 39.4774775 143.454088 36.9525248 143.454088 33.8378378 143.454088 30.7231509 145.979041 28.1981982 149.093728 28.1981982zM148.63964 908L313.006901 908C316.121588 908 318.646541 910.524953 318.646541 913.63964 318.646541 916.754327 316.121588 919.279279 313.006901 919.279279L148.63964 919.279279C145.524953 919.279279 143 916.754327 143 913.63964 143 910.524953 145.524953 908 148.63964 908z"/>
    <circle cx="63" cy="35" r="10" fill="#D8D8D8"/>
    <path stroke="#D8D8D8" d="M405,65.5 C412.317773,65.5 418.942773,68.4661135 423.73833,73.2616703 C428.533886,78.0572271 431.5,84.6822271 431.5,92 L431.5,92 L431.5,861.002427 C431.5,868.3202 428.533886,874.9452 423.73833,879.740757 C418.942773,884.536314 412.317773,887.502427 405,887.502427 L405,887.502427 L46,887.502427 C38.6822271,887.502427 32.0572271,884.536314 27.2616703,879.740757 C22.4661135,874.9452 19.5,868.3202 19.5,861.002427 L19.5,861.002427 L19.5,92 C19.5,84.6822271 22.4661135,78.0572271 27.2616703,73.2616703 C32.0572271,68.4661135 38.6822271,65.5 46,65.5 L46,65.5 L405,65.5 Z"/>
    <g fill="#D8D8D8" transform="translate(449 222)">
      <rect width="6" height="117.689" y="132.33"/>
      <path d="M0,0 L3,0 C4.65685425,0 6,0.756334844 6,1.68932116 L6,57.4369193 C6,58.3699057 4.65685425,59.1262405 3,59.1262405 L0,59.1262405 L0,0 Z"/>
    </g>
  </g>
</svg>
