<svg xmlns="http://www.w3.org/2000/svg" xmlns:xlink="http://www.w3.org/1999/xlink" width="1920" height="1310" viewBox="0 0 1920 1310">
  <defs>
    <rect id="browser-a" width="1920" height="1199.883" x="0" y="110"/>
  </defs>
  <g fill="none" fill-rule="evenodd">
    <g fill-rule="nonzero">
      <path fill="#E2E3E5" d="M11.988942,0 L1908.01106,0 C1912.17987,0 1913.69159,0.464128056 1915.21564,1.33566352 C1916.7397,2.20719898 1917.93579,3.48614185 1918.75087,5.11577148 C1919.56594,6.74540111 1920,8.3618323 1920,12.819426 L1920,110 L0,110 L0,12.819426 C0,8.3618323 0.434060335,6.74540111 1.2491349,5.11577148 C2.06420947,3.48614185 3.26029827,2.20719898 4.78435521,1.33566352 C6.30841215,0.464128056 7.82012568,0 11.988942,0 Z"/>
      <ellipse cx="51.905" cy="55.5" fill="#C4C6CA" rx="11.69" ry="12.5"/>
      <ellipse cx="93.989" cy="55.5" fill="#C4C6CA" rx="11.69" ry="12.5"/>
      <ellipse cx="136.074" cy="55.5" fill="#C4C6CA" rx="11.69" ry="12.5"/>
      <path fill="#FFF" d="M200.519556,30 L1867.24469,30 C1869.3291,30 1870.08496,30.232064 1870.84698,30.6678318 C1871.60901,31.1035995 1872.20706,31.7430709 1872.61459,32.5578857 C1873.02213,33.3727006 1873.23916,34.1809162 1873.23916,36.409713 L1873.23916,73.590287 C1873.23916,75.8190838 1873.02213,76.6272994 1872.61459,77.4421143 C1872.20706,78.2569291 1871.60901,78.8964005 1870.84698,79.3321682 C1870.08496,79.767936 1869.3291,80 1867.24469,80 L200.519556,80 C198.435148,80 197.679291,79.767936 196.917263,79.3321682 C196.155234,78.8964005 195.55719,78.2569291 195.149653,77.4421143 C194.742115,76.6272994 194.525085,75.8190838 194.525085,73.590287 L194.525085,36.409713 C194.525085,34.1809162 194.742115,33.3727006 195.149653,32.5578857 C195.55719,31.7430709 196.155234,31.1035995 196.917263,30.6678318 C197.679291,30.232064 198.435148,30 200.519556,30 Z"/>
    </g>
    <use fill="#FBFAF0" xlink:href="#browser-a"/>
  </g>
</svg>
